<svg width="509" height="339" viewBox="0 0 509 339" fill="none" xmlns="http://www.w3.org/2000/svg">
<g clip-path="url(#clip0_4003_3247)">
<rect x="4.14258" y="4.92383" width="500" height="333.33" rx="4" fill="#F6F9FC"/>
<g clip-path="url(#clip1_4003_3247)">
<g clip-path="url(#clip2_4003_3247)">
<g clip-path="url(#clip3_4003_3247)">
<rect x="74.1426" y="71.584" width="460" height="363" rx="8" fill="white"/>
<rect width="460" height="363" transform="translate(74.1426 71.584)" fill="white"/>
<path d="M113.1 111.584V102.868H118.565V104H114.415V106.656H118.279V107.784H114.415V110.452H118.616V111.584H113.1ZM120.419 111.584V105.047H121.64V106.111H121.721C121.858 105.751 122.08 105.47 122.389 105.268C122.699 105.064 123.069 104.962 123.5 104.962C123.937 104.962 124.303 105.064 124.598 105.268C124.896 105.473 125.116 105.754 125.258 106.111H125.326C125.482 105.762 125.73 105.484 126.071 105.277C126.411 105.067 126.817 104.962 127.288 104.962C127.881 104.962 128.365 105.148 128.739 105.519C129.117 105.891 129.305 106.451 129.305 107.2V111.584H128.033V107.32C128.033 106.877 127.912 106.556 127.671 106.358C127.43 106.159 127.142 106.06 126.807 106.06C126.393 106.06 126.071 106.188 125.841 106.443C125.611 106.695 125.496 107.02 125.496 107.418V111.584H124.228V107.239C124.228 106.884 124.117 106.599 123.896 106.383C123.675 106.168 123.387 106.06 123.032 106.06C122.791 106.06 122.568 106.124 122.364 106.251C122.163 106.376 121.999 106.551 121.875 106.775C121.753 106.999 121.692 107.259 121.692 107.554V111.584H120.419ZM133.113 111.729C132.699 111.729 132.324 111.652 131.99 111.499C131.655 111.343 131.389 111.117 131.194 110.822C131.001 110.527 130.904 110.165 130.904 109.737C130.904 109.368 130.975 109.065 131.117 108.826C131.259 108.588 131.45 108.399 131.692 108.26C131.933 108.121 132.202 108.016 132.5 107.945C132.798 107.874 133.102 107.82 133.411 107.784C133.803 107.738 134.12 107.701 134.364 107.673C134.608 107.642 134.786 107.592 134.896 107.524C135.007 107.456 135.062 107.345 135.062 107.192V107.162C135.062 106.791 134.957 106.503 134.747 106.298C134.54 106.094 134.231 105.992 133.82 105.992C133.391 105.992 133.053 106.087 132.807 106.277C132.563 106.464 132.394 106.673 132.3 106.903L131.104 106.63C131.246 106.233 131.453 105.912 131.726 105.668C132.001 105.422 132.317 105.243 132.675 105.132C133.032 105.019 133.408 104.962 133.803 104.962C134.064 104.962 134.34 104.993 134.632 105.056C134.927 105.115 135.203 105.226 135.458 105.388C135.716 105.549 135.928 105.78 136.092 106.081C136.257 106.379 136.339 106.766 136.339 107.243V111.584H135.096V110.69H135.045C134.963 110.855 134.84 111.017 134.675 111.175C134.51 111.334 134.299 111.466 134.041 111.571C133.783 111.676 133.473 111.729 133.113 111.729ZM133.39 110.707C133.742 110.707 134.042 110.638 134.292 110.499C134.544 110.36 134.736 110.178 134.866 109.954C135 109.727 135.066 109.484 135.066 109.226V108.384C135.021 108.429 134.933 108.472 134.803 108.511C134.675 108.548 134.529 108.581 134.364 108.609C134.2 108.635 134.039 108.659 133.883 108.682C133.727 108.701 133.597 108.718 133.492 108.733C133.245 108.764 133.019 108.816 132.815 108.89C132.614 108.964 132.452 109.07 132.33 109.209C132.211 109.345 132.151 109.527 132.151 109.754C132.151 110.069 132.268 110.307 132.5 110.469C132.733 110.628 133.029 110.707 133.39 110.707ZM138.234 111.584V105.047H139.506V111.584H138.234ZM138.876 104.038C138.655 104.038 138.465 103.965 138.306 103.817C138.15 103.667 138.072 103.488 138.072 103.281C138.072 103.071 138.15 102.892 138.306 102.745C138.465 102.594 138.655 102.519 138.876 102.519C139.098 102.519 139.286 102.594 139.442 102.745C139.601 102.892 139.681 103.071 139.681 103.281C139.681 103.488 139.601 103.667 139.442 103.817C139.286 103.965 139.098 104.038 138.876 104.038ZM142.691 102.868V111.584H141.418V102.868H142.691Z" fill="#0A2540"/>
<rect x="112.643" y="122.084" width="383" height="39" rx="5.5" fill="white"/>
<rect x="112.643" y="122.084" width="383" height="39" rx="5.5" stroke="#E6EBF1"/>
<path d="M125.919 139.152H127.074V145.47C127.074 145.867 127.001 146.201 126.857 146.474C126.716 146.747 126.505 146.954 126.224 147.096C125.946 147.238 125.602 147.308 125.193 147.308C125.152 147.308 125.113 147.308 125.077 147.308C125.038 147.308 124.998 147.307 124.957 147.305V146.312C124.993 146.312 125.025 146.312 125.054 146.312C125.08 146.312 125.109 146.312 125.143 146.312C125.415 146.312 125.612 146.239 125.733 146.092C125.857 145.948 125.919 145.738 125.919 145.462V139.152ZM126.49 138.237C126.29 138.237 126.117 138.17 125.973 138.036C125.831 137.9 125.76 137.737 125.76 137.549C125.76 137.359 125.831 137.197 125.973 137.063C126.117 136.926 126.29 136.858 126.49 136.858C126.691 136.858 126.862 136.926 127.004 137.063C127.148 137.197 127.22 137.359 127.22 137.549C127.22 137.737 127.148 137.9 127.004 138.036C126.862 138.17 126.691 138.237 126.49 138.237ZM130.553 145.215C130.177 145.215 129.837 145.146 129.534 145.007C129.23 144.865 128.989 144.66 128.811 144.393C128.636 144.125 128.549 143.797 128.549 143.408C128.549 143.073 128.613 142.798 128.742 142.581C128.871 142.365 129.044 142.194 129.263 142.068C129.482 141.942 129.727 141.846 129.997 141.782C130.267 141.718 130.543 141.669 130.824 141.635C131.179 141.594 131.467 141.561 131.689 141.535C131.91 141.507 132.071 141.462 132.171 141.4C132.272 141.338 132.322 141.238 132.322 141.099V141.072C132.322 140.734 132.227 140.473 132.036 140.288C131.848 140.102 131.568 140.009 131.194 140.009C130.806 140.009 130.499 140.096 130.275 140.268C130.054 140.438 129.901 140.627 129.816 140.836L128.73 140.589C128.859 140.228 129.047 139.937 129.294 139.716C129.544 139.492 129.831 139.33 130.155 139.229C130.48 139.126 130.821 139.075 131.179 139.075C131.416 139.075 131.667 139.103 131.932 139.16C132.2 139.214 132.449 139.314 132.681 139.461C132.915 139.608 133.107 139.818 133.256 140.091C133.406 140.361 133.48 140.712 133.48 141.145V145.084H132.353V144.273H132.306C132.232 144.422 132.12 144.569 131.97 144.713C131.821 144.857 131.629 144.977 131.395 145.072C131.161 145.168 130.88 145.215 130.553 145.215ZM130.804 144.288C131.123 144.288 131.396 144.225 131.623 144.099C131.852 143.973 132.026 143.808 132.144 143.605C132.265 143.399 132.326 143.179 132.326 142.945V142.18C132.285 142.221 132.205 142.26 132.086 142.296C131.97 142.329 131.838 142.359 131.689 142.385C131.539 142.408 131.394 142.43 131.252 142.45C131.111 142.468 130.992 142.484 130.897 142.497C130.673 142.525 130.468 142.572 130.283 142.639C130.1 142.706 129.953 142.803 129.843 142.929C129.734 143.053 129.68 143.217 129.68 143.423C129.68 143.709 129.786 143.925 129.997 144.072C130.208 144.216 130.477 144.288 130.804 144.288ZM136.373 141.562V145.084H135.218V139.152H136.327V140.118H136.4C136.537 139.804 136.75 139.551 137.041 139.361C137.335 139.17 137.704 139.075 138.15 139.075C138.554 139.075 138.908 139.16 139.212 139.33C139.515 139.497 139.751 139.747 139.918 140.079C140.086 140.411 140.169 140.822 140.169 141.311V145.084H139.015V141.45C139.015 141.02 138.903 140.684 138.679 140.442C138.455 140.197 138.147 140.075 137.756 140.075C137.488 140.075 137.25 140.133 137.041 140.249C136.835 140.365 136.672 140.535 136.551 140.759C136.432 140.98 136.373 141.248 136.373 141.562ZM144.475 145.204C143.89 145.204 143.387 145.079 142.965 144.829C142.545 144.577 142.22 144.223 141.991 143.767C141.765 143.309 141.652 142.772 141.652 142.157C141.652 141.549 141.765 141.014 141.991 140.55C142.22 140.087 142.54 139.725 142.949 139.465C143.361 139.205 143.842 139.075 144.393 139.075C144.728 139.075 145.053 139.13 145.367 139.241C145.681 139.352 145.963 139.525 146.212 139.762C146.462 139.999 146.659 140.307 146.803 140.685C146.947 141.061 147.02 141.518 147.02 142.056V142.466H142.304V141.601H145.888C145.888 141.297 145.826 141.028 145.703 140.793C145.579 140.557 145.405 140.37 145.181 140.233C144.96 140.097 144.7 140.029 144.401 140.029C144.077 140.029 143.794 140.109 143.552 140.268C143.312 140.425 143.127 140.631 142.995 140.886C142.867 141.138 142.802 141.413 142.802 141.709V142.385C142.802 142.781 142.872 143.118 143.011 143.396C143.152 143.674 143.349 143.887 143.602 144.034C143.854 144.178 144.149 144.25 144.486 144.25C144.705 144.25 144.904 144.219 145.085 144.157C145.265 144.093 145.421 143.998 145.552 143.871C145.683 143.745 145.784 143.589 145.853 143.404L146.946 143.601C146.859 143.923 146.702 144.205 146.475 144.447C146.251 144.686 145.969 144.873 145.629 145.007C145.292 145.138 144.907 145.204 144.475 145.204ZM149.261 145.157C149.05 145.157 148.869 145.083 148.717 144.933C148.565 144.781 148.489 144.599 148.489 144.385C148.489 144.174 148.565 143.994 148.717 143.844C148.869 143.692 149.05 143.616 149.261 143.616C149.473 143.616 149.654 143.692 149.806 143.844C149.958 143.994 150.034 144.174 150.034 144.385C150.034 144.527 149.998 144.657 149.926 144.775C149.856 144.891 149.764 144.984 149.648 145.053C149.532 145.123 149.403 145.157 149.261 145.157ZM154.001 145.2C153.522 145.2 153.095 145.078 152.719 144.833C152.346 144.586 152.052 144.234 151.838 143.779C151.627 143.32 151.522 142.771 151.522 142.13C151.522 141.489 151.629 140.94 151.842 140.485C152.059 140.029 152.355 139.68 152.731 139.438C153.106 139.196 153.533 139.075 154.009 139.075C154.377 139.075 154.673 139.137 154.897 139.26C155.124 139.381 155.299 139.523 155.422 139.685C155.548 139.847 155.646 139.99 155.716 140.114H155.785V137.175H156.94V145.084H155.812V144.161H155.716C155.646 144.287 155.546 144.431 155.415 144.594C155.286 144.756 155.108 144.897 154.882 145.018C154.655 145.139 154.362 145.2 154.001 145.2ZM154.256 144.215C154.588 144.215 154.869 144.128 155.098 143.952C155.33 143.775 155.505 143.529 155.623 143.215C155.744 142.901 155.805 142.535 155.805 142.118C155.805 141.706 155.745 141.346 155.627 141.037C155.508 140.728 155.335 140.487 155.106 140.315C154.876 140.142 154.593 140.056 154.256 140.056C153.908 140.056 153.619 140.146 153.387 140.326C153.155 140.506 152.98 140.752 152.862 141.064C152.746 141.375 152.688 141.727 152.688 142.118C152.688 142.515 152.747 142.871 152.866 143.188C152.984 143.504 153.159 143.756 153.391 143.941C153.625 144.124 153.914 144.215 154.256 144.215ZM158.788 145.084V139.152H159.943V145.084H158.788ZM159.371 138.237C159.17 138.237 158.998 138.17 158.854 138.036C158.712 137.9 158.641 137.737 158.641 137.549C158.641 137.359 158.712 137.197 158.854 137.063C158.998 136.926 159.17 136.858 159.371 136.858C159.572 136.858 159.743 136.926 159.885 137.063C160.029 137.197 160.101 137.359 160.101 137.549C160.101 137.737 160.029 137.9 159.885 138.036C159.743 138.17 159.572 138.237 159.371 138.237ZM163.422 145.215C163.046 145.215 162.707 145.146 162.403 145.007C162.099 144.865 161.858 144.66 161.681 144.393C161.506 144.125 161.418 143.797 161.418 143.408C161.418 143.073 161.482 142.798 161.611 142.581C161.74 142.365 161.914 142.194 162.133 142.068C162.351 141.942 162.596 141.846 162.866 141.782C163.137 141.718 163.412 141.669 163.693 141.635C164.048 141.594 164.336 141.561 164.558 141.535C164.779 141.507 164.94 141.462 165.041 141.4C165.141 141.338 165.191 141.238 165.191 141.099V141.072C165.191 140.734 165.096 140.473 164.905 140.288C164.717 140.102 164.437 140.009 164.063 140.009C163.675 140.009 163.368 140.096 163.144 140.268C162.923 140.438 162.77 140.627 162.685 140.836L161.6 140.589C161.728 140.228 161.916 139.937 162.163 139.716C162.413 139.492 162.7 139.33 163.025 139.229C163.349 139.126 163.69 139.075 164.048 139.075C164.285 139.075 164.536 139.103 164.801 139.16C165.069 139.214 165.319 139.314 165.55 139.461C165.785 139.608 165.976 139.818 166.126 140.091C166.275 140.361 166.35 140.712 166.35 141.145V145.084H165.222V144.273H165.176C165.101 144.422 164.989 144.569 164.84 144.713C164.69 144.857 164.499 144.977 164.264 145.072C164.03 145.168 163.749 145.215 163.422 145.215ZM163.673 144.288C163.993 144.288 164.266 144.225 164.492 144.099C164.721 143.973 164.895 143.808 165.013 143.605C165.134 143.399 165.195 143.179 165.195 142.945V142.18C165.154 142.221 165.074 142.26 164.956 142.296C164.84 142.329 164.707 142.359 164.558 142.385C164.408 142.408 164.263 142.43 164.121 142.45C163.98 142.468 163.861 142.484 163.766 142.497C163.542 142.525 163.337 142.572 163.152 142.639C162.969 142.706 162.823 142.803 162.712 142.929C162.604 143.053 162.55 143.217 162.55 143.423C162.55 143.709 162.655 143.925 162.866 144.072C163.077 144.216 163.346 144.288 163.673 144.288ZM167.964 145.084V144.292L171.177 140.21V140.156H168.068V139.152H172.618V139.994L169.528 144.026V144.08H172.726V145.084H167.964ZM179.05 147.235C178.252 147.235 177.544 147.126 176.926 146.907C176.31 146.691 175.792 146.371 175.369 145.949C174.947 145.529 174.627 145.014 174.408 144.404C174.189 143.794 174.079 143.098 174.079 142.315C174.079 141.553 174.19 140.868 174.412 140.261C174.633 139.653 174.955 139.135 175.377 138.708C175.802 138.278 176.318 137.95 176.926 137.723C177.533 137.497 178.223 137.383 178.996 137.383C179.735 137.383 180.386 137.499 180.95 137.731C181.514 137.963 181.987 138.281 182.371 138.685C182.757 139.089 183.048 139.553 183.244 140.075C183.439 140.598 183.537 141.15 183.537 141.732C183.537 142.139 183.511 142.536 183.46 142.925C183.408 143.311 183.313 143.662 183.174 143.976C183.038 144.287 182.839 144.537 182.579 144.725C182.322 144.91 181.987 145.007 181.575 145.014C181.357 145.022 181.144 144.996 180.938 144.937C180.732 144.878 180.557 144.783 180.413 144.651C180.269 144.518 180.181 144.348 180.15 144.142H180.104C180.042 144.294 179.939 144.435 179.795 144.566C179.651 144.695 179.467 144.798 179.243 144.875C179.021 144.95 178.764 144.981 178.47 144.968C178.146 144.955 177.854 144.882 177.594 144.748C177.334 144.614 177.111 144.429 176.926 144.192C176.743 143.955 176.603 143.674 176.505 143.35C176.407 143.026 176.358 142.665 176.358 142.269C176.358 141.888 176.413 141.547 176.524 141.245C176.635 140.941 176.785 140.68 176.976 140.461C177.169 140.24 177.39 140.065 177.64 139.936C177.89 139.807 178.154 139.726 178.432 139.693C178.702 139.662 178.951 139.67 179.177 139.716C179.404 139.762 179.592 139.833 179.741 139.928C179.893 140.024 179.988 140.128 180.027 140.241H180.077V139.809H181.027V143.392C181.027 143.596 181.08 143.768 181.185 143.91C181.293 144.052 181.447 144.122 181.645 144.122C181.879 144.122 182.062 144.036 182.193 143.864C182.327 143.691 182.421 143.426 182.475 143.068C182.532 142.71 182.56 142.252 182.56 141.693C182.56 141.302 182.507 140.934 182.402 140.589C182.299 140.241 182.146 139.927 181.942 139.646C181.741 139.363 181.494 139.12 181.201 138.917C180.907 138.713 180.573 138.556 180.197 138.445C179.823 138.335 179.41 138.279 178.957 138.279C178.342 138.279 177.795 138.375 177.316 138.565C176.837 138.753 176.433 139.025 176.103 139.38C175.776 139.735 175.528 140.161 175.358 140.658C175.19 141.153 175.107 141.707 175.107 142.323C175.107 142.964 175.193 143.533 175.365 144.03C175.538 144.524 175.793 144.941 176.13 145.281C176.467 145.621 176.884 145.878 177.381 146.053C177.878 146.231 178.451 146.32 179.1 146.32C179.388 146.32 179.671 146.294 179.95 146.243C180.228 146.194 180.475 146.137 180.691 146.073C180.91 146.011 181.073 145.961 181.181 145.922L181.452 146.768C181.292 146.842 181.08 146.916 180.815 146.988C180.552 147.06 180.266 147.119 179.957 147.166C179.651 147.212 179.348 147.235 179.05 147.235ZM178.694 144.022C179.029 144.022 179.298 143.955 179.502 143.821C179.708 143.687 179.856 143.488 179.946 143.223C180.038 142.955 180.085 142.62 180.085 142.218C180.082 141.827 180.032 141.516 179.934 141.284C179.839 141.05 179.689 140.882 179.486 140.782C179.285 140.679 179.027 140.627 178.71 140.627C178.419 140.627 178.17 140.698 177.965 140.84C177.761 140.981 177.605 141.173 177.497 141.415C177.392 141.657 177.338 141.926 177.335 142.222C177.338 142.534 177.381 142.827 177.466 143.103C177.554 143.376 177.695 143.597 177.891 143.767C178.089 143.937 178.357 144.022 178.694 144.022ZM187.569 145.204C186.985 145.204 186.481 145.079 186.059 144.829C185.639 144.577 185.315 144.223 185.086 143.767C184.859 143.309 184.746 142.772 184.746 142.157C184.746 141.549 184.859 141.014 185.086 140.55C185.315 140.087 185.634 139.725 186.044 139.465C186.456 139.205 186.937 139.075 187.488 139.075C187.823 139.075 188.147 139.13 188.461 139.241C188.775 139.352 189.057 139.525 189.307 139.762C189.557 139.999 189.754 140.307 189.898 140.685C190.042 141.061 190.114 141.518 190.114 142.056V142.466H185.399V141.601H188.983C188.983 141.297 188.921 141.028 188.797 140.793C188.674 140.557 188.5 140.37 188.276 140.233C188.054 140.097 187.794 140.029 187.496 140.029C187.171 140.029 186.888 140.109 186.646 140.268C186.407 140.425 186.221 140.631 186.09 140.886C185.961 141.138 185.897 141.413 185.897 141.709V142.385C185.897 142.781 185.966 143.118 186.105 143.396C186.247 143.674 186.444 143.887 186.696 144.034C186.949 144.178 187.243 144.25 187.581 144.25C187.8 144.25 187.999 144.219 188.179 144.157C188.36 144.093 188.515 143.998 188.647 143.871C188.778 143.745 188.878 143.589 188.948 143.404L190.041 143.601C189.953 143.923 189.796 144.205 189.57 144.447C189.346 144.686 189.064 144.873 188.724 145.007C188.387 145.138 188.002 145.204 187.569 145.204ZM192.369 139.152L193.678 141.462L194.999 139.152H196.261L194.412 142.118L196.277 145.084H195.014L193.678 142.867L192.345 145.084H191.079L192.925 142.118L191.102 139.152H192.369ZM199.363 145.215C198.987 145.215 198.647 145.146 198.343 145.007C198.039 144.865 197.799 144.66 197.621 144.393C197.446 144.125 197.358 143.797 197.358 143.408C197.358 143.073 197.423 142.798 197.551 142.581C197.68 142.365 197.854 142.194 198.073 142.068C198.292 141.942 198.536 141.846 198.806 141.782C199.077 141.718 199.352 141.669 199.633 141.635C199.988 141.594 200.277 141.561 200.498 141.535C200.719 141.507 200.88 141.462 200.981 141.4C201.081 141.338 201.131 141.238 201.131 141.099V141.072C201.131 140.734 201.036 140.473 200.846 140.288C200.658 140.102 200.377 140.009 200.004 140.009C199.615 140.009 199.309 140.096 199.085 140.268C198.863 140.438 198.71 140.627 198.625 140.836L197.54 140.589C197.669 140.228 197.856 139.937 198.104 139.716C198.353 139.492 198.64 139.33 198.965 139.229C199.289 139.126 199.63 139.075 199.988 139.075C200.225 139.075 200.476 139.103 200.741 139.16C201.009 139.214 201.259 139.314 201.49 139.461C201.725 139.608 201.917 139.818 202.066 140.091C202.215 140.361 202.29 140.712 202.29 141.145V145.084H201.162V144.273H201.116C201.041 144.422 200.929 144.569 200.78 144.713C200.631 144.857 200.439 144.977 200.204 145.072C199.97 145.168 199.69 145.215 199.363 145.215ZM199.614 144.288C199.933 144.288 200.206 144.225 200.432 144.099C200.661 143.973 200.835 143.808 200.954 143.605C201.075 143.399 201.135 143.179 201.135 142.945V142.18C201.094 142.221 201.014 142.26 200.896 142.296C200.78 142.329 200.647 142.359 200.498 142.385C200.349 142.408 200.203 142.43 200.062 142.45C199.92 142.468 199.802 142.484 199.706 142.497C199.482 142.525 199.278 142.572 199.092 142.639C198.909 142.706 198.763 142.803 198.652 142.929C198.544 143.053 198.49 143.217 198.49 143.423C198.49 143.709 198.595 143.925 198.806 144.072C199.018 144.216 199.287 144.288 199.614 144.288ZM204.028 145.084V139.152H205.136V140.118H205.21C205.333 139.791 205.535 139.536 205.816 139.353C206.097 139.168 206.432 139.075 206.824 139.075C207.22 139.075 207.552 139.168 207.82 139.353C208.091 139.538 208.29 139.793 208.419 140.118H208.481C208.622 139.801 208.847 139.549 209.156 139.361C209.465 139.17 209.834 139.075 210.261 139.075C210.799 139.075 211.238 139.244 211.578 139.581C211.92 139.918 212.091 140.427 212.091 141.106V145.084H210.937V141.214C210.937 140.813 210.827 140.522 210.608 140.342C210.39 140.161 210.128 140.071 209.824 140.071C209.449 140.071 209.156 140.187 208.948 140.419C208.739 140.648 208.635 140.943 208.635 141.303V145.084H207.484V141.141C207.484 140.819 207.384 140.56 207.183 140.365C206.982 140.169 206.721 140.071 206.399 140.071C206.18 140.071 205.978 140.129 205.793 140.245C205.61 140.358 205.462 140.517 205.349 140.72C205.238 140.923 205.183 141.159 205.183 141.427V145.084H204.028ZM213.839 147.308V139.152H214.967V140.114H215.063C215.13 139.99 215.227 139.847 215.353 139.685C215.479 139.523 215.654 139.381 215.878 139.26C216.102 139.137 216.398 139.075 216.766 139.075C217.245 139.075 217.673 139.196 218.048 139.438C218.424 139.68 218.719 140.029 218.933 140.485C219.149 140.94 219.257 141.489 219.257 142.13C219.257 142.771 219.15 143.32 218.937 143.779C218.723 144.234 218.43 144.586 218.056 144.833C217.683 145.078 217.257 145.2 216.778 145.2C216.417 145.2 216.123 145.139 215.894 145.018C215.667 144.897 215.489 144.756 215.361 144.594C215.232 144.431 215.133 144.287 215.063 144.161H214.994V147.308H213.839ZM214.971 142.118C214.971 142.535 215.031 142.901 215.152 143.215C215.273 143.529 215.448 143.775 215.677 143.952C215.906 144.128 216.187 144.215 216.519 144.215C216.864 144.215 217.153 144.124 217.384 143.941C217.616 143.756 217.791 143.504 217.909 143.188C218.03 142.871 218.091 142.515 218.091 142.118C218.091 141.727 218.032 141.375 217.913 141.064C217.797 140.752 217.622 140.506 217.388 140.326C217.156 140.146 216.867 140.056 216.519 140.056C216.184 140.056 215.901 140.142 215.67 140.315C215.44 140.487 215.267 140.728 215.148 141.037C215.03 141.346 214.971 141.706 214.971 142.118ZM221.906 137.175V145.084H220.751V137.175H221.906ZM226.216 145.204C225.631 145.204 225.128 145.079 224.706 144.829C224.286 144.577 223.962 144.223 223.732 143.767C223.506 143.309 223.393 142.772 223.393 142.157C223.393 141.549 223.506 141.014 223.732 140.55C223.962 140.087 224.281 139.725 224.69 139.465C225.102 139.205 225.584 139.075 226.135 139.075C226.469 139.075 226.794 139.13 227.108 139.241C227.422 139.352 227.704 139.525 227.953 139.762C228.203 139.999 228.4 140.307 228.544 140.685C228.689 141.061 228.761 141.518 228.761 142.056V142.466H224.045V141.601H227.629C227.629 141.297 227.567 141.028 227.444 140.793C227.32 140.557 227.146 140.37 226.922 140.233C226.701 140.097 226.441 140.029 226.142 140.029C225.818 140.029 225.535 140.109 225.293 140.268C225.053 140.425 224.868 140.631 224.737 140.886C224.608 141.138 224.543 141.413 224.543 141.709V142.385C224.543 142.781 224.613 143.118 224.752 143.396C224.894 143.674 225.091 143.887 225.343 144.034C225.595 144.178 225.89 144.25 226.227 144.25C226.446 144.25 226.646 144.219 226.826 144.157C227.006 144.093 227.162 143.998 227.293 143.871C227.424 143.745 227.525 143.589 227.594 143.404L228.687 143.601C228.6 143.923 228.443 144.205 228.216 144.447C227.992 144.686 227.71 144.873 227.37 145.007C227.033 145.138 226.648 145.204 226.216 145.204ZM231.003 145.157C230.791 145.157 230.61 145.083 230.458 144.933C230.306 144.781 230.23 144.599 230.23 144.385C230.23 144.174 230.306 143.994 230.458 143.844C230.61 143.692 230.791 143.616 231.003 143.616C231.214 143.616 231.395 143.692 231.547 143.844C231.699 143.994 231.775 144.174 231.775 144.385C231.775 144.527 231.739 144.657 231.667 144.775C231.597 144.891 231.505 144.984 231.389 145.053C231.273 145.123 231.144 145.157 231.003 145.157ZM236.02 145.204C235.446 145.204 234.952 145.074 234.537 144.814C234.125 144.551 233.809 144.189 233.587 143.728C233.366 143.268 233.255 142.74 233.255 142.145C233.255 141.543 233.368 141.011 233.595 140.55C233.822 140.087 234.141 139.725 234.553 139.465C234.965 139.205 235.45 139.075 236.009 139.075C236.459 139.075 236.861 139.159 237.214 139.326C237.566 139.491 237.851 139.722 238.067 140.021C238.286 140.32 238.416 140.669 238.457 141.068H237.333C237.271 140.79 237.13 140.55 236.908 140.349C236.69 140.149 236.396 140.048 236.028 140.048C235.706 140.048 235.424 140.133 235.182 140.303C234.943 140.47 234.756 140.71 234.622 141.021C234.488 141.33 234.421 141.696 234.421 142.118C234.421 142.551 234.487 142.924 234.618 143.238C234.75 143.552 234.935 143.795 235.174 143.968C235.417 144.14 235.701 144.227 236.028 144.227C236.247 144.227 236.445 144.187 236.623 144.107C236.803 144.025 236.954 143.907 237.075 143.756C237.198 143.604 237.284 143.421 237.333 143.207H238.457C238.416 143.591 238.291 143.933 238.082 144.234C237.874 144.536 237.595 144.772 237.244 144.945C236.897 145.117 236.489 145.204 236.02 145.204ZM242.391 145.204C241.834 145.204 241.349 145.076 240.935 144.821C240.52 144.566 240.198 144.21 239.969 143.752C239.74 143.293 239.625 142.758 239.625 142.145C239.625 141.53 239.74 140.992 239.969 140.531C240.198 140.07 240.52 139.712 240.935 139.457C241.349 139.202 241.834 139.075 242.391 139.075C242.947 139.075 243.432 139.202 243.846 139.457C244.261 139.712 244.583 140.07 244.812 140.531C245.041 140.992 245.156 141.53 245.156 142.145C245.156 142.758 245.041 143.293 244.812 143.752C244.583 144.21 244.261 144.566 243.846 144.821C243.432 145.076 242.947 145.204 242.391 145.204ZM242.394 144.234C242.755 144.234 243.053 144.139 243.29 143.949C243.527 143.758 243.702 143.504 243.816 143.188C243.931 142.871 243.989 142.522 243.989 142.141C243.989 141.763 243.931 141.415 243.816 141.099C243.702 140.779 243.527 140.523 243.29 140.33C243.053 140.137 242.755 140.04 242.394 140.04C242.031 140.04 241.73 140.137 241.491 140.33C241.254 140.523 241.078 140.779 240.962 141.099C240.848 141.415 240.792 141.763 240.792 142.141C240.792 142.522 240.848 142.871 240.962 143.188C241.078 143.504 241.254 143.758 241.491 143.949C241.73 144.139 242.031 144.234 242.394 144.234ZM246.645 145.084V139.152H247.753V140.118H247.826C247.95 139.791 248.152 139.536 248.433 139.353C248.713 139.168 249.049 139.075 249.441 139.075C249.837 139.075 250.169 139.168 250.437 139.353C250.707 139.538 250.907 139.793 251.035 140.118H251.097C251.239 139.801 251.464 139.549 251.773 139.361C252.082 139.17 252.45 139.075 252.878 139.075C253.416 139.075 253.855 139.244 254.194 139.581C254.537 139.918 254.708 140.427 254.708 141.106V145.084H253.553V141.214C253.553 140.813 253.444 140.522 253.225 140.342C253.006 140.161 252.745 140.071 252.441 140.071C252.065 140.071 251.773 140.187 251.565 140.419C251.356 140.648 251.252 140.943 251.252 141.303V145.084H250.101V141.141C250.101 140.819 250 140.56 249.8 140.365C249.599 140.169 249.338 140.071 249.016 140.071C248.797 140.071 248.595 140.129 248.409 140.245C248.227 140.358 248.079 140.517 247.965 140.72C247.855 140.923 247.799 141.159 247.799 141.427V145.084H246.645Z" fill="#425466"/>
<path d="M120.131 187.852H118.837C118.787 187.575 118.694 187.332 118.559 187.122C118.423 186.912 118.258 186.734 118.061 186.587C117.865 186.44 117.645 186.33 117.402 186.255C117.161 186.18 116.905 186.143 116.634 186.143C116.145 186.143 115.707 186.266 115.32 186.512C114.935 186.758 114.631 187.119 114.407 187.595C114.186 188.07 114.075 188.651 114.075 189.337C114.075 190.028 114.186 190.612 114.407 191.087C114.631 191.563 114.937 191.922 115.324 192.165C115.711 192.409 116.146 192.53 116.63 192.53C116.899 192.53 117.153 192.495 117.393 192.423C117.637 192.348 117.857 192.239 118.053 192.095C118.249 191.951 118.415 191.776 118.551 191.568C118.689 191.358 118.784 191.118 118.837 190.847L120.131 190.851C120.062 191.268 119.928 191.653 119.729 192.004C119.532 192.352 119.279 192.654 118.97 192.908C118.663 193.16 118.311 193.354 117.916 193.493C117.521 193.631 117.089 193.7 116.622 193.7C115.886 193.7 115.231 193.526 114.656 193.178C114.081 192.826 113.627 192.324 113.296 191.672C112.967 191.019 112.802 190.241 112.802 189.337C112.802 188.43 112.968 187.652 113.3 187.002C113.632 186.349 114.085 185.849 114.66 185.5C115.235 185.149 115.889 184.974 116.622 184.974C117.073 184.974 117.493 185.039 117.883 185.168C118.276 185.296 118.628 185.484 118.941 185.733C119.253 185.979 119.512 186.28 119.716 186.637C119.921 186.991 120.059 187.396 120.131 187.852ZM123.619 193.725C123.215 193.725 122.85 193.65 122.524 193.501C122.198 193.349 121.939 193.129 121.748 192.842C121.56 192.554 121.466 192.201 121.466 191.784C121.466 191.424 121.535 191.129 121.674 190.896C121.812 190.664 121.999 190.48 122.234 190.345C122.469 190.209 122.731 190.107 123.022 190.038C123.312 189.969 123.608 189.916 123.909 189.88C124.291 189.836 124.601 189.8 124.838 189.772C125.076 189.742 125.249 189.694 125.357 189.627C125.465 189.561 125.519 189.453 125.519 189.304V189.275C125.519 188.912 125.416 188.632 125.212 188.433C125.01 188.234 124.708 188.134 124.307 188.134C123.89 188.134 123.561 188.227 123.32 188.412C123.082 188.594 122.918 188.798 122.827 189.022L121.661 188.756C121.799 188.369 122.001 188.057 122.267 187.819C122.535 187.578 122.843 187.404 123.192 187.296C123.54 187.186 123.906 187.13 124.291 187.13C124.545 187.13 124.815 187.161 125.1 187.222C125.387 187.28 125.655 187.387 125.904 187.545C126.156 187.703 126.362 187.928 126.522 188.221C126.683 188.511 126.763 188.889 126.763 189.353V193.584H125.552V192.713H125.502C125.422 192.873 125.301 193.031 125.141 193.186C124.981 193.341 124.775 193.469 124.523 193.572C124.271 193.674 123.97 193.725 123.619 193.725ZM123.889 192.73C124.231 192.73 124.524 192.662 124.768 192.526C125.014 192.391 125.201 192.214 125.328 191.995C125.458 191.774 125.523 191.538 125.523 191.286V190.465C125.478 190.509 125.393 190.551 125.266 190.589C125.141 190.625 124.999 190.657 124.838 190.685C124.678 190.71 124.522 190.733 124.37 190.755C124.218 190.775 124.09 190.791 123.988 190.805C123.747 190.835 123.528 190.887 123.329 190.959C123.132 191.03 122.975 191.134 122.856 191.27C122.74 191.402 122.682 191.579 122.682 191.801C122.682 192.107 122.795 192.34 123.022 192.497C123.248 192.652 123.537 192.73 123.889 192.73ZM128.615 193.584V187.213H129.813V188.225H129.88C129.996 187.882 130.2 187.613 130.493 187.416C130.789 187.217 131.124 187.118 131.497 187.118C131.575 187.118 131.666 187.121 131.771 187.126C131.879 187.132 131.963 187.139 132.024 187.147V188.333C131.974 188.319 131.886 188.304 131.758 188.287C131.631 188.268 131.504 188.258 131.377 188.258C131.084 188.258 130.823 188.321 130.593 188.445C130.366 188.567 130.187 188.737 130.054 188.955C129.921 189.171 129.855 189.417 129.855 189.694V193.584H128.615ZM135.454 193.708C134.94 193.708 134.481 193.577 134.077 193.314C133.676 193.049 133.361 192.672 133.131 192.182C132.904 191.69 132.791 191.1 132.791 190.411C132.791 189.723 132.906 189.134 133.135 188.644C133.368 188.155 133.686 187.78 134.089 187.52C134.493 187.26 134.951 187.13 135.462 187.13C135.858 187.13 136.176 187.197 136.416 187.329C136.659 187.459 136.847 187.611 136.98 187.786C137.116 187.96 137.221 188.113 137.295 188.246H137.37V185.09H138.61V193.584H137.399V192.593H137.295C137.221 192.728 137.113 192.883 136.972 193.057C136.834 193.231 136.643 193.384 136.4 193.513C136.156 193.643 135.841 193.708 135.454 193.708ZM135.728 192.651C136.084 192.651 136.386 192.557 136.632 192.369C136.881 192.178 137.069 191.914 137.196 191.577C137.326 191.239 137.391 190.847 137.391 190.399C137.391 189.956 137.327 189.569 137.2 189.237C137.073 188.905 136.886 188.647 136.64 188.462C136.394 188.276 136.09 188.184 135.728 188.184C135.354 188.184 135.043 188.281 134.794 188.474C134.546 188.668 134.358 188.932 134.23 189.266C134.106 189.601 134.044 189.978 134.044 190.399C134.044 190.824 134.107 191.207 134.234 191.548C134.362 191.888 134.55 192.157 134.799 192.356C135.05 192.553 135.36 192.651 135.728 192.651ZM143.871 193.584V187.213H145.111V193.584H143.871ZM144.498 186.23C144.282 186.23 144.097 186.158 143.942 186.015C143.79 185.868 143.714 185.694 143.714 185.492C143.714 185.287 143.79 185.113 143.942 184.969C144.097 184.823 144.282 184.75 144.498 184.75C144.713 184.75 144.897 184.823 145.049 184.969C145.204 185.113 145.281 185.287 145.281 185.492C145.281 185.694 145.204 185.868 145.049 186.015C144.897 186.158 144.713 186.23 144.498 186.23ZM148.22 189.801V193.584H146.98V187.213H148.17V188.25H148.249C148.395 187.913 148.625 187.642 148.937 187.437C149.253 187.233 149.649 187.13 150.128 187.13C150.562 187.13 150.942 187.222 151.268 187.404C151.595 187.584 151.848 187.852 152.027 188.209C152.207 188.565 152.297 189.006 152.297 189.532V193.584H151.057V189.681C151.057 189.219 150.937 188.858 150.696 188.599C150.455 188.336 150.125 188.205 149.705 188.205C149.417 188.205 149.161 188.267 148.937 188.391C148.716 188.516 148.541 188.698 148.411 188.939C148.283 189.176 148.22 189.464 148.22 189.801ZM157.192 187.213V188.209H153.592V187.213H157.192ZM154.579 193.584V186.475C154.579 186.077 154.666 185.746 154.84 185.484C155.015 185.218 155.245 185.021 155.533 184.891C155.821 184.758 156.133 184.691 156.47 184.691C156.719 184.691 156.932 184.712 157.109 184.754C157.286 184.792 157.417 184.828 157.503 184.862L157.213 185.865C157.155 185.849 157.08 185.829 156.989 185.807C156.898 185.782 156.787 185.77 156.657 185.77C156.356 185.77 156.14 185.845 156.01 185.994C155.883 186.143 155.819 186.359 155.819 186.641V193.584H154.579ZM161.104 193.713C160.507 193.713 159.986 193.576 159.541 193.302C159.095 193.028 158.75 192.645 158.504 192.153C158.258 191.661 158.135 191.086 158.135 190.428C158.135 189.767 158.258 189.189 158.504 188.694C158.75 188.199 159.095 187.815 159.541 187.541C159.986 187.267 160.507 187.13 161.104 187.13C161.701 187.13 162.223 187.267 162.668 187.541C163.113 187.815 163.459 188.199 163.705 188.694C163.951 189.189 164.074 189.767 164.074 190.428C164.074 191.086 163.951 191.661 163.705 192.153C163.459 192.645 163.113 193.028 162.668 193.302C162.223 193.576 161.701 193.713 161.104 193.713ZM161.108 192.672C161.495 192.672 161.816 192.569 162.071 192.365C162.325 192.16 162.513 191.888 162.635 191.548C162.759 191.207 162.821 190.833 162.821 190.424C162.821 190.017 162.759 189.644 162.635 189.304C162.513 188.961 162.325 188.686 162.071 188.478C161.816 188.271 161.495 188.167 161.108 188.167C160.718 188.167 160.395 188.271 160.138 188.478C159.883 188.686 159.694 188.961 159.57 189.304C159.448 189.644 159.387 190.017 159.387 190.424C159.387 190.833 159.448 191.207 159.57 191.548C159.694 191.888 159.883 192.16 160.138 192.365C160.395 192.569 160.718 192.672 161.108 192.672ZM165.658 193.584V187.213H166.857V188.225H166.923C167.039 187.882 167.244 187.613 167.537 187.416C167.833 187.217 168.167 187.118 168.541 187.118C168.618 187.118 168.709 187.121 168.815 187.126C168.922 187.132 169.007 187.139 169.068 187.147V188.333C169.018 188.319 168.929 188.304 168.802 188.287C168.675 188.268 168.548 188.258 168.42 188.258C168.127 188.258 167.866 188.321 167.637 188.445C167.41 188.567 167.23 188.737 167.097 188.955C166.965 189.171 166.898 189.417 166.898 189.694V193.584H165.658ZM170.341 193.584V187.213H171.531V188.25H171.61C171.743 187.899 171.96 187.625 172.261 187.429C172.562 187.23 172.923 187.13 173.344 187.13C173.769 187.13 174.126 187.23 174.414 187.429C174.704 187.628 174.918 187.902 175.057 188.25H175.123C175.275 187.91 175.517 187.639 175.849 187.437C176.181 187.233 176.576 187.13 177.035 187.13C177.613 187.13 178.084 187.311 178.449 187.674C178.817 188.036 179.001 188.582 179.001 189.312V193.584H177.761V189.428C177.761 188.997 177.643 188.684 177.408 188.491C177.173 188.297 176.893 188.2 176.566 188.2C176.163 188.2 175.849 188.325 175.625 188.574C175.401 188.82 175.289 189.136 175.289 189.523V193.584H174.053V189.349C174.053 189.004 173.945 188.726 173.729 188.516C173.514 188.305 173.233 188.2 172.887 188.2C172.652 188.2 172.435 188.263 172.236 188.387C172.04 188.509 171.881 188.679 171.759 188.897C171.64 189.116 171.581 189.369 171.581 189.656V193.584H170.341ZM182.717 193.725C182.313 193.725 181.948 193.65 181.622 193.501C181.296 193.349 181.037 193.129 180.846 192.842C180.658 192.554 180.564 192.201 180.564 191.784C180.564 191.424 180.634 191.129 180.772 190.896C180.91 190.664 181.097 190.48 181.332 190.345C181.567 190.209 181.829 190.107 182.12 190.038C182.41 189.969 182.706 189.916 183.007 189.88C183.389 189.836 183.699 189.8 183.936 189.772C184.174 189.742 184.347 189.694 184.455 189.627C184.563 189.561 184.617 189.453 184.617 189.304V189.275C184.617 188.912 184.514 188.632 184.31 188.433C184.108 188.234 183.807 188.134 183.406 188.134C182.988 188.134 182.659 188.227 182.418 188.412C182.181 188.594 182.016 188.798 181.925 189.022L180.759 188.756C180.898 188.369 181.099 188.057 181.365 187.819C181.633 187.578 181.941 187.404 182.29 187.296C182.638 187.186 183.005 187.13 183.389 187.13C183.643 187.13 183.913 187.161 184.198 187.222C184.485 187.28 184.754 187.387 185.002 187.545C185.254 187.703 185.46 187.928 185.62 188.221C185.781 188.511 185.861 188.889 185.861 189.353V193.584H184.65V192.713H184.6C184.52 192.873 184.4 193.031 184.239 193.186C184.079 193.341 183.873 193.469 183.621 193.572C183.37 193.674 183.068 193.725 182.717 193.725ZM182.987 192.73C183.33 192.73 183.623 192.662 183.866 192.526C184.112 192.391 184.299 192.214 184.426 191.995C184.556 191.774 184.621 191.538 184.621 191.286V190.465C184.577 190.509 184.491 190.551 184.364 190.589C184.239 190.625 184.097 190.657 183.936 190.685C183.776 190.71 183.62 190.733 183.468 190.755C183.316 190.775 183.189 190.791 183.086 190.805C182.846 190.835 182.626 190.887 182.427 190.959C182.23 191.03 182.073 191.134 181.954 191.27C181.838 191.402 181.78 191.579 181.78 191.801C181.78 192.107 181.893 192.34 182.12 192.497C182.347 192.652 182.635 192.73 182.987 192.73ZM190.687 187.213V188.209H187.207V187.213H190.687ZM188.14 185.687H189.38V191.713C189.38 191.954 189.416 192.135 189.488 192.257C189.56 192.376 189.652 192.457 189.766 192.501C189.882 192.543 190.008 192.564 190.143 192.564C190.243 192.564 190.33 192.557 190.405 192.543C190.479 192.529 190.537 192.518 190.579 192.51L190.803 193.534C190.731 193.562 190.629 193.59 190.496 193.617C190.363 193.648 190.197 193.664 189.998 193.667C189.672 193.672 189.368 193.614 189.086 193.493C188.804 193.371 188.575 193.183 188.401 192.929C188.227 192.674 188.14 192.355 188.14 191.971V185.687ZM192.258 193.584V187.213H193.499V193.584H192.258ZM192.885 186.23C192.669 186.23 192.484 186.158 192.329 186.015C192.177 185.868 192.101 185.694 192.101 185.492C192.101 185.287 192.177 185.113 192.329 184.969C192.484 184.823 192.669 184.75 192.885 184.75C193.1 184.75 193.284 184.823 193.436 184.969C193.591 185.113 193.669 185.287 193.669 185.492C193.669 185.694 193.591 185.868 193.436 186.015C193.284 186.158 193.1 186.23 192.885 186.23ZM198.05 193.713C197.453 193.713 196.932 193.576 196.487 193.302C196.042 193.028 195.696 192.645 195.45 192.153C195.204 191.661 195.081 191.086 195.081 190.428C195.081 189.767 195.204 189.189 195.45 188.694C195.696 188.199 196.042 187.815 196.487 187.541C196.932 187.267 197.453 187.13 198.05 187.13C198.648 187.13 199.169 187.267 199.614 187.541C200.059 187.815 200.405 188.199 200.651 188.694C200.897 189.189 201.02 189.767 201.02 190.428C201.02 191.086 200.897 191.661 200.651 192.153C200.405 192.645 200.059 193.028 199.614 193.302C199.169 193.576 198.648 193.713 198.05 193.713ZM198.055 192.672C198.442 192.672 198.762 192.569 199.017 192.365C199.271 192.16 199.459 191.888 199.581 191.548C199.705 191.207 199.768 190.833 199.768 190.424C199.768 190.017 199.705 189.644 199.581 189.304C199.459 188.961 199.271 188.686 199.017 188.478C198.762 188.271 198.442 188.167 198.055 188.167C197.665 188.167 197.341 188.271 197.084 188.478C196.83 188.686 196.64 188.961 196.516 189.304C196.394 189.644 196.333 190.017 196.333 190.424C196.333 190.833 196.394 191.207 196.516 191.548C196.64 191.888 196.83 192.16 197.084 192.365C197.341 192.569 197.665 192.672 198.055 192.672ZM203.845 189.801V193.584H202.604V187.213H203.795V188.25H203.874C204.02 187.913 204.25 187.642 204.562 187.437C204.877 187.233 205.274 187.13 205.752 187.13C206.187 187.13 206.567 187.222 206.893 187.404C207.219 187.584 207.472 187.852 207.652 188.209C207.832 188.565 207.922 189.006 207.922 189.532V193.584H206.682V189.681C206.682 189.219 206.561 188.858 206.321 188.599C206.08 188.336 205.75 188.205 205.329 188.205C205.042 188.205 204.786 188.267 204.562 188.391C204.341 188.516 204.165 188.698 204.035 188.939C203.908 189.176 203.845 189.464 203.845 189.801Z" fill="#0A2540"/>
<mask id="path-9-inside-1_4003_3247" fill="white">
<path d="M112.143 209.584C112.143 206.27 114.829 203.584 118.143 203.584H490.143C493.456 203.584 496.143 206.27 496.143 209.584V242.584H112.143V209.584Z"/>
</mask>
<path d="M112.143 209.584C112.143 206.27 114.829 203.584 118.143 203.584H490.143C493.456 203.584 496.143 206.27 496.143 209.584V242.584H112.143V209.584Z" fill="white"/>
<path d="M111.143 209.584C111.143 205.718 114.277 202.584 118.143 202.584H490.143C494.009 202.584 497.143 205.718 497.143 209.584H495.143C495.143 206.823 492.904 204.584 490.143 204.584H118.143C115.381 204.584 113.143 206.823 113.143 209.584H111.143ZM496.143 242.584H112.143H496.143ZM111.143 242.584V209.584C111.143 205.718 114.277 202.584 118.143 202.584V204.584C115.381 204.584 113.143 206.823 113.143 209.584V242.584H111.143ZM490.143 202.584C494.009 202.584 497.143 205.718 497.143 209.584V242.584H495.143V209.584C495.143 206.823 492.904 204.584 490.143 204.584V202.584Z" fill="#E6EBF1" mask="url(#path-9-inside-1_4003_3247)"/>
<path d="M128.969 219.039V227.084H127.751V220.256H127.704L125.779 221.513V220.351L127.786 219.039H128.969ZM131.345 227.084V226.204L134.068 223.383C134.358 223.077 134.598 222.809 134.787 222.578C134.978 222.345 135.12 222.124 135.215 221.914C135.309 221.705 135.356 221.482 135.356 221.246C135.356 220.979 135.293 220.749 135.168 220.555C135.042 220.358 134.87 220.208 134.653 220.103C134.436 219.996 134.191 219.942 133.918 219.942C133.63 219.942 133.379 220.001 133.164 220.119C132.949 220.237 132.784 220.403 132.669 220.618C132.554 220.833 132.496 221.084 132.496 221.372H131.337C131.337 220.882 131.45 220.454 131.675 220.087C131.9 219.721 132.209 219.437 132.602 219.235C132.995 219.031 133.442 218.929 133.942 218.929C134.447 218.929 134.893 219.029 135.278 219.231C135.665 219.43 135.968 219.702 136.185 220.048C136.402 220.391 136.511 220.779 136.511 221.211C136.511 221.51 136.455 221.802 136.342 222.087C136.232 222.372 136.04 222.691 135.765 223.042C135.49 223.39 135.107 223.813 134.618 224.311L133.019 225.984V226.043H136.641V227.084H131.345ZM141.131 227.194C140.591 227.194 140.109 227.101 139.685 226.915C139.263 226.729 138.929 226.471 138.683 226.141C138.44 225.809 138.309 225.424 138.29 224.986H139.524C139.54 225.225 139.62 225.431 139.764 225.607C139.91 225.78 140.101 225.913 140.337 226.008C140.573 226.102 140.835 226.149 141.123 226.149C141.44 226.149 141.72 226.094 141.963 225.984C142.21 225.874 142.402 225.721 142.541 225.524C142.68 225.325 142.749 225.096 142.749 224.837C142.749 224.567 142.68 224.33 142.541 224.126C142.405 223.919 142.204 223.757 141.94 223.639C141.678 223.521 141.361 223.462 140.989 223.462H140.31V222.472H140.989C141.288 222.472 141.55 222.418 141.775 222.311C142.003 222.204 142.181 222.054 142.309 221.863C142.438 221.669 142.502 221.443 142.502 221.183C142.502 220.935 142.445 220.719 142.333 220.535C142.223 220.349 142.066 220.204 141.861 220.099C141.66 219.994 141.421 219.942 141.146 219.942C140.884 219.942 140.64 219.991 140.412 220.087C140.187 220.182 140.003 220.318 139.862 220.496C139.72 220.671 139.644 220.882 139.634 221.128H138.459C138.472 220.694 138.601 220.311 138.844 219.981C139.09 219.651 139.415 219.393 139.819 219.207C140.222 219.022 140.67 218.929 141.162 218.929C141.678 218.929 142.123 219.029 142.498 219.231C142.875 219.43 143.166 219.696 143.37 220.028C143.577 220.361 143.679 220.725 143.676 221.121C143.679 221.571 143.553 221.953 143.299 222.268C143.048 222.582 142.712 222.793 142.293 222.9V222.963C142.828 223.044 143.242 223.256 143.535 223.599C143.831 223.943 143.977 224.368 143.975 224.876C143.977 225.319 143.854 225.716 143.606 226.067C143.359 226.417 143.023 226.694 142.596 226.895C142.169 227.094 141.681 227.194 141.131 227.194ZM145.491 225.513V224.53L148.968 219.039H149.741V220.484H149.25L146.764 224.42V224.483H151.529V225.513H145.491ZM149.305 227.084V225.214L149.313 224.766V219.039H150.464V227.084H149.305ZM159.278 219.039V227.084H158.06V220.256H158.013L156.088 221.513V220.351L158.096 219.039H159.278ZM161.654 227.084V226.204L164.377 223.383C164.668 223.077 164.907 222.809 165.096 222.578C165.287 222.345 165.43 222.124 165.524 221.914C165.618 221.705 165.665 221.482 165.665 221.246C165.665 220.979 165.602 220.749 165.477 220.555C165.351 220.358 165.18 220.208 164.962 220.103C164.745 219.996 164.5 219.942 164.228 219.942C163.939 219.942 163.688 220.001 163.473 220.119C163.259 220.237 163.094 220.403 162.978 220.618C162.863 220.833 162.805 221.084 162.805 221.372H161.647C161.647 220.882 161.759 220.454 161.984 220.087C162.21 219.721 162.519 219.437 162.911 219.235C163.304 219.031 163.751 218.929 164.251 218.929C164.757 218.929 165.202 219.029 165.587 219.231C165.974 219.43 166.277 219.702 166.494 220.048C166.712 220.391 166.82 220.779 166.82 221.211C166.82 221.51 166.764 221.802 166.651 222.087C166.541 222.372 166.349 222.691 166.074 223.042C165.799 223.39 165.417 223.813 164.927 224.311L163.328 225.984V226.043H166.95V227.084H161.654ZM171.44 227.194C170.9 227.194 170.418 227.101 169.994 226.915C169.572 226.729 169.239 226.471 168.992 226.141C168.749 225.809 168.618 225.424 168.6 224.986H169.833C169.849 225.225 169.929 225.431 170.073 225.607C170.219 225.78 170.411 225.913 170.646 226.008C170.882 226.102 171.144 226.149 171.432 226.149C171.749 226.149 172.029 226.094 172.273 225.984C172.519 225.874 172.711 225.721 172.85 225.524C172.989 225.325 173.058 225.096 173.058 224.837C173.058 224.567 172.989 224.33 172.85 224.126C172.714 223.919 172.514 223.757 172.249 223.639C171.987 223.521 171.67 223.462 171.298 223.462H170.619V222.472H171.298C171.597 222.472 171.859 222.418 172.084 222.311C172.312 222.204 172.49 222.054 172.618 221.863C172.747 221.669 172.811 221.443 172.811 221.183C172.811 220.935 172.755 220.719 172.642 220.535C172.532 220.349 172.375 220.204 172.17 220.099C171.969 219.994 171.73 219.942 171.456 219.942C171.194 219.942 170.949 219.991 170.721 220.087C170.496 220.182 170.312 220.318 170.171 220.496C170.029 220.671 169.954 220.882 169.943 221.128H168.768C168.782 220.694 168.91 220.311 169.153 219.981C169.4 219.651 169.724 219.393 170.128 219.207C170.531 219.022 170.979 218.929 171.471 218.929C171.987 218.929 172.432 219.029 172.807 219.231C173.184 219.43 173.475 219.696 173.679 220.028C173.886 220.361 173.988 220.725 173.985 221.121C173.988 221.571 173.862 221.953 173.608 222.268C173.357 222.582 173.022 222.793 172.603 222.9V222.963C173.137 223.044 173.551 223.256 173.844 223.599C174.14 223.943 174.287 224.368 174.284 224.876C174.287 225.319 174.164 225.716 173.915 226.067C173.669 226.417 173.332 226.694 172.905 226.895C172.478 227.094 171.99 227.194 171.44 227.194ZM175.8 225.513V224.53L179.277 219.039H180.051V220.484H179.56L177.073 224.42V224.483H181.838V225.513H175.8ZM179.615 227.084V225.214L179.622 224.766V219.039H180.773V227.084H179.615ZM189.587 219.039V227.084H188.369V220.256H188.322L186.397 221.513V220.351L188.405 219.039H189.587ZM191.964 227.084V226.204L194.686 223.383C194.977 223.077 195.216 222.809 195.405 222.578C195.596 222.345 195.739 222.124 195.833 221.914C195.927 221.705 195.974 221.482 195.974 221.246C195.974 220.979 195.912 220.749 195.786 220.555C195.66 220.358 195.489 220.208 195.271 220.103C195.054 219.996 194.809 219.942 194.537 219.942C194.249 219.942 193.997 220.001 193.782 220.119C193.568 220.237 193.403 220.403 193.287 220.618C193.172 220.833 193.115 221.084 193.115 221.372H191.956C191.956 220.882 192.068 220.454 192.294 220.087C192.519 219.721 192.828 219.437 193.221 219.235C193.613 219.031 194.06 218.929 194.56 218.929C195.066 218.929 195.511 219.029 195.896 219.231C196.284 219.43 196.586 219.702 196.803 220.048C197.021 220.391 197.129 220.779 197.129 221.211C197.129 221.51 197.073 221.802 196.961 222.087C196.851 222.372 196.658 222.691 196.383 223.042C196.108 223.39 195.726 223.813 195.236 224.311L193.637 225.984V226.043H197.259V227.084H191.964ZM201.749 227.194C201.209 227.194 200.728 227.101 200.303 226.915C199.882 226.729 199.548 226.471 199.302 226.141C199.058 225.809 198.927 225.424 198.909 224.986H200.142C200.158 225.225 200.238 225.431 200.382 225.607C200.528 225.78 200.72 225.913 200.955 226.008C201.191 226.102 201.453 226.149 201.741 226.149C202.058 226.149 202.338 226.094 202.582 225.984C202.828 225.874 203.02 225.721 203.159 225.524C203.298 225.325 203.367 225.096 203.367 224.837C203.367 224.567 203.298 224.33 203.159 224.126C203.023 223.919 202.823 223.757 202.558 223.639C202.296 223.521 201.979 223.462 201.608 223.462H200.928V222.472H201.608C201.906 222.472 202.168 222.418 202.393 222.311C202.621 222.204 202.799 222.054 202.927 221.863C203.056 221.669 203.12 221.443 203.12 221.183C203.12 220.935 203.064 220.719 202.951 220.535C202.841 220.349 202.684 220.204 202.48 220.099C202.278 219.994 202.04 219.942 201.765 219.942C201.503 219.942 201.258 219.991 201.03 220.087C200.805 220.182 200.621 220.318 200.48 220.496C200.339 220.671 200.263 220.882 200.252 221.128H199.078C199.091 220.694 199.219 220.311 199.463 219.981C199.709 219.651 200.034 219.393 200.437 219.207C200.84 219.022 201.288 218.929 201.78 218.929C202.296 218.929 202.742 219.029 203.116 219.231C203.493 219.43 203.784 219.696 203.988 220.028C204.195 220.361 204.297 220.725 204.295 221.121C204.297 221.571 204.171 221.953 203.917 222.268C203.666 222.582 203.331 222.793 202.912 222.9V222.963C203.446 223.044 203.86 223.256 204.153 223.599C204.449 223.943 204.596 224.368 204.593 224.876C204.596 225.319 204.473 225.716 204.224 226.067C203.978 226.417 203.641 226.694 203.214 226.895C202.787 227.094 202.299 227.194 201.749 227.194ZM206.109 225.513V224.53L209.586 219.039H210.36V220.484H209.869L207.382 224.42V224.483H212.147V225.513H206.109ZM209.924 227.084V225.214L209.932 224.766V219.039H211.083V227.084H209.924ZM219.896 219.039V227.084H218.678V220.256H218.631L216.706 221.513V220.351L218.714 219.039H219.896ZM222.273 227.084V226.204L224.995 223.383C225.286 223.077 225.525 222.809 225.714 222.578C225.905 222.345 226.048 222.124 226.142 221.914C226.236 221.705 226.284 221.482 226.284 221.246C226.284 220.979 226.221 220.749 226.095 220.555C225.969 220.358 225.798 220.208 225.58 220.103C225.363 219.996 225.118 219.942 224.846 219.942C224.558 219.942 224.306 220.001 224.092 220.119C223.877 220.237 223.712 220.403 223.597 220.618C223.481 220.833 223.424 221.084 223.424 221.372H222.265C222.265 220.882 222.377 220.454 222.603 220.087C222.828 219.721 223.137 219.437 223.53 219.235C223.923 219.031 224.369 218.929 224.869 218.929C225.375 218.929 225.82 219.029 226.205 219.231C226.593 219.43 226.895 219.702 227.113 220.048C227.33 220.391 227.439 220.779 227.439 221.211C227.439 221.51 227.382 221.802 227.27 222.087C227.16 222.372 226.967 222.691 226.692 223.042C226.417 223.39 226.035 223.813 225.545 224.311L223.946 225.984V226.043H227.568V227.084H222.273ZM232.058 227.194C231.519 227.194 231.037 227.101 230.612 226.915C230.191 226.729 229.857 226.471 229.611 226.141C229.367 225.809 229.236 225.424 229.218 224.986H230.451C230.467 225.225 230.547 225.431 230.691 225.607C230.838 225.78 231.029 225.913 231.265 226.008C231.5 226.102 231.762 226.149 232.05 226.149C232.367 226.149 232.647 226.094 232.891 225.984C233.137 225.874 233.33 225.721 233.468 225.524C233.607 225.325 233.677 225.096 233.677 224.837C233.677 224.567 233.607 224.33 233.468 224.126C233.332 223.919 233.132 223.757 232.867 223.639C232.605 223.521 232.289 223.462 231.917 223.462H231.237V222.472H231.917C232.215 222.472 232.477 222.418 232.702 222.311C232.93 222.204 233.108 222.054 233.237 221.863C233.365 221.669 233.429 221.443 233.429 221.183C233.429 220.935 233.373 220.719 233.26 220.535C233.15 220.349 232.993 220.204 232.789 220.099C232.587 219.994 232.349 219.942 232.074 219.942C231.812 219.942 231.567 219.991 231.339 220.087C231.114 220.182 230.931 220.318 230.789 220.496C230.648 220.671 230.572 220.882 230.561 221.128H229.387C229.4 220.694 229.528 220.311 229.772 219.981C230.018 219.651 230.343 219.393 230.746 219.207C231.149 219.022 231.597 218.929 232.09 218.929C232.605 218.929 233.051 219.029 233.425 219.231C233.802 219.43 234.093 219.696 234.297 220.028C234.504 220.361 234.606 220.725 234.604 221.121C234.606 221.571 234.481 221.953 234.227 222.268C233.975 222.582 233.64 222.793 233.221 222.9V222.963C233.755 223.044 234.169 223.256 234.462 223.599C234.758 223.943 234.905 224.368 234.902 224.876C234.905 225.319 234.782 225.716 234.533 226.067C234.287 226.417 233.95 226.694 233.523 226.895C233.096 227.094 232.608 227.194 232.058 227.194ZM236.418 225.513V224.53L239.895 219.039H240.669V220.484H240.178L237.691 224.42V224.483H242.456V225.513H236.418ZM240.233 227.084V225.214L240.241 224.766V219.039H241.392V227.084H240.233Z" fill="#425466"/>
<path d="M396.893 215.834H377.393C376.288 215.834 375.393 216.729 375.393 217.834V229.334C375.393 230.439 376.288 231.334 377.393 231.334H396.893C397.997 231.334 398.893 230.439 398.893 229.334V217.834C398.893 216.729 397.997 215.834 396.893 215.834Z" fill="white" stroke="black" stroke-opacity="0.2" stroke-width="0.5"/>
<path d="M377.933 221.494C377.368 221.192 376.766 220.967 376.143 220.824L376.173 220.694H378.903C379.283 220.704 379.583 220.824 379.673 221.214L380.273 224.054L380.453 224.904L382.123 220.704H383.923L381.243 226.854H379.443L377.943 221.484L377.933 221.494ZM385.243 226.864H383.543L384.603 220.694H386.303L385.243 226.864ZM391.413 220.844L391.183 222.184L391.023 222.114C390.723 221.994 390.313 221.864 389.753 221.874C389.083 221.874 388.783 222.144 388.773 222.414C388.773 222.694 389.143 222.884 389.733 223.174C390.713 223.614 391.173 224.154 391.163 224.854C391.153 226.134 389.993 226.954 388.203 226.954C387.443 226.954 386.703 226.804 386.303 226.634L386.543 225.244L386.773 225.344C387.323 225.574 387.683 225.674 388.373 225.674C388.853 225.674 389.373 225.474 389.383 225.074C389.383 224.804 389.163 224.604 388.503 224.304C387.863 224.004 387.003 223.504 387.013 222.624C387.013 221.424 388.213 220.584 389.883 220.584C390.543 220.584 391.083 220.724 391.413 220.844ZM393.673 224.684H395.083L394.693 222.894L394.573 222.364L394.353 222.964L393.673 224.684ZM395.773 220.694L397.143 226.864H395.563L395.363 225.944H393.183L392.823 226.864H391.043L393.563 221.204C393.743 220.804 394.053 220.704 394.463 220.704H395.763L395.773 220.694Z" fill="#1434CB"/>
<path d="M425.143 215.584H405.143C404.038 215.584 403.143 216.479 403.143 217.584V229.584C403.143 230.689 404.038 231.584 405.143 231.584H425.143C426.247 231.584 427.143 230.689 427.143 229.584V217.584C427.143 216.479 426.247 215.584 425.143 215.584Z" fill="#252525"/>
<path d="M412.143 228.584C414.904 228.584 417.143 226.345 417.143 223.584C417.143 220.823 414.904 218.584 412.143 218.584C409.381 218.584 407.143 220.823 407.143 223.584C407.143 226.345 409.381 228.584 412.143 228.584Z" fill="#EB001B"/>
<path d="M418.143 228.584C420.904 228.584 423.143 226.345 423.143 223.584C423.143 220.823 420.904 218.584 418.143 218.584C415.381 218.584 413.143 220.823 413.143 223.584C413.143 226.345 415.381 228.584 418.143 228.584Z" fill="#F79E1B"/>
<path fill-rule="evenodd" clip-rule="evenodd" d="M415.143 219.584C415.764 220.05 416.268 220.654 416.615 221.348C416.962 222.042 417.143 222.808 417.143 223.584C417.143 224.36 416.962 225.126 416.615 225.82C416.268 226.514 415.764 227.118 415.143 227.584C414.522 227.118 414.018 226.514 413.67 225.82C413.323 225.126 413.143 224.36 413.143 223.584C413.143 222.808 413.323 222.042 413.67 221.348C414.018 220.654 414.522 220.05 415.143 219.584Z" fill="#FF5F00"/>
<path d="M453.143 215.584H433.143C432.038 215.584 431.143 216.479 431.143 217.584V229.584C431.143 230.689 432.038 231.584 433.143 231.584H453.143C454.247 231.584 455.143 230.689 455.143 229.584V217.584C455.143 216.479 454.247 215.584 453.143 215.584Z" fill="#016FD0"/>
<path fill-rule="evenodd" clip-rule="evenodd" d="M444.902 228.983V223.283H455.052V224.863L453.882 226.113L455.052 227.373V228.983H453.182L452.182 227.883L451.202 228.983H444.902Z" fill="#FFFFFE"/>
<path fill-rule="evenodd" clip-rule="evenodd" d="M445.583 228.354V223.904H449.353V224.924H446.803V225.624H449.303V226.624H446.803V227.324H449.353V228.354H445.583Z" fill="#016FD0"/>
<path fill-rule="evenodd" clip-rule="evenodd" d="M449.343 228.354L451.423 226.124L449.343 223.904H450.953L452.233 225.314L453.513 223.904H455.053V223.944L453.013 226.124L455.053 228.294V228.354H453.493L452.193 226.924L450.913 228.354H449.343Z" fill="#016FD0"/>
<path fill-rule="evenodd" clip-rule="evenodd" d="M445.383 218.215H447.823L448.683 220.165V218.215H451.703L452.223 219.675L452.753 218.215H455.053V223.915H442.873L445.383 218.215Z" fill="#FFFFFE"/>
<path fill-rule="evenodd" clip-rule="evenodd" d="M445.843 218.834L443.873 223.284H445.223L445.593 222.384H447.613L447.983 223.284H449.373L447.403 218.834H445.843ZM446.013 221.394L446.613 219.974L447.193 221.394H446.013Z" fill="#016FD0"/>
<path fill-rule="evenodd" clip-rule="evenodd" d="M449.354 223.284V218.834H451.254L452.244 221.584L453.234 218.844H455.064V223.284H453.884V220.244L452.764 223.284H451.684L450.554 220.224V223.284H449.354Z" fill="#016FD0"/>
<path d="M463.843 215.583H469.843C470.031 215.574 470.218 215.611 470.389 215.69C470.56 215.769 470.709 215.889 470.823 216.038C470.937 216.188 471.013 216.363 471.044 216.549C471.076 216.734 471.061 216.925 471.003 217.103L468.213 229.103C468.101 229.52 467.857 229.889 467.519 230.156C467.18 230.422 466.764 230.572 466.333 230.583H460.333C460.145 230.594 459.958 230.56 459.787 230.483C459.615 230.407 459.465 230.29 459.348 230.143C459.231 229.996 459.152 229.822 459.116 229.638C459.08 229.454 459.09 229.264 459.143 229.083L461.933 217.083C462.042 216.659 462.289 216.281 462.634 216.01C462.979 215.739 463.404 215.589 463.843 215.583Z" fill="#E21836"/>
<path d="M469.333 215.584H476.223C477.063 215.584 476.683 216.264 476.483 217.104L473.693 229.104C473.503 229.934 473.563 230.614 472.693 230.614H465.833C465.645 230.622 465.457 230.584 465.287 230.503C465.116 230.423 464.968 230.302 464.854 230.152C464.74 230.002 464.664 229.826 464.633 229.64C464.601 229.454 464.615 229.263 464.673 229.084L467.463 217.084C467.571 216.665 467.812 216.293 468.149 216.023C468.486 215.752 468.901 215.598 469.333 215.584Z" fill="#00447C"/>
<path d="M475.953 215.583H481.953C482.143 215.569 482.334 215.602 482.509 215.679C482.684 215.756 482.837 215.875 482.955 216.025C483.072 216.175 483.151 216.352 483.184 216.541C483.217 216.729 483.203 216.922 483.143 217.103L480.353 229.103C480.24 229.525 479.992 229.897 479.647 230.164C479.302 230.432 478.879 230.579 478.443 230.583H472.443C472.256 230.592 472.07 230.556 471.9 230.477C471.731 230.398 471.583 230.28 471.469 230.131C471.355 229.983 471.278 229.809 471.246 229.625C471.214 229.441 471.226 229.252 471.283 229.073L474.073 217.073C474.183 216.655 474.426 216.284 474.765 216.015C475.104 215.747 475.521 215.595 475.953 215.583Z" fill="#007B84"/>
<path d="M465.403 219.424C465.12 219.445 464.836 219.445 464.553 219.424C464.553 219.534 464.113 221.424 464.113 221.424C464.085 221.739 463.951 222.035 463.733 222.264C463.612 222.372 463.455 222.429 463.293 222.424C463.236 222.429 463.179 222.423 463.125 222.406C463.07 222.388 463.02 222.36 462.977 222.323C462.934 222.285 462.899 222.239 462.874 222.188C462.85 222.137 462.836 222.081 462.833 222.024V221.954L462.913 221.424C462.913 221.424 463.353 219.684 463.433 219.424C463.101 219.461 462.765 219.461 462.433 219.424C462.435 219.467 462.435 219.511 462.433 219.554L461.993 221.554V221.724L461.923 222.264C461.906 222.37 461.909 222.479 461.933 222.584C462.133 222.944 462.713 222.994 463.043 222.994C463.423 223.021 463.803 222.945 464.143 222.774C464.326 222.651 464.481 222.491 464.6 222.305C464.719 222.12 464.798 221.911 464.833 221.694L464.883 221.504C464.883 221.504 465.333 219.684 465.413 219.444L465.403 219.424ZM466.933 220.884C466.766 220.89 466.603 220.931 466.453 221.004L466.263 221.104L466.323 220.904C465.943 220.984 465.853 220.994 465.513 221.044C465.462 221.465 465.385 221.882 465.283 222.294L465.103 223.024C465.363 223.009 465.623 223.009 465.883 223.024L466.013 222.364C466.013 222.174 466.143 221.744 466.183 221.594C466.255 221.558 466.333 221.535 466.413 221.524C466.583 221.524 466.563 221.674 466.563 221.734C466.563 221.794 466.483 222.174 466.423 222.454V222.634C466.423 222.774 466.353 222.904 466.323 223.044C466.576 223.029 466.83 223.029 467.083 223.044C467.143 222.674 467.143 222.584 467.243 222.124L467.293 221.914C467.383 221.504 467.433 221.294 467.363 221.124C467.326 221.044 467.264 220.977 467.187 220.934C467.11 220.891 467.021 220.873 466.933 220.884ZM468.643 221.314L468.223 221.394L467.803 221.454L467.743 221.844C467.716 222.026 467.679 222.206 467.633 222.384C467.633 222.554 467.573 222.614 467.553 222.684C467.511 222.777 467.478 222.874 467.453 222.974H468.293C468.293 222.824 468.293 222.774 468.293 222.704C468.293 222.634 468.293 222.504 468.403 222.204C468.403 222.054 468.473 221.914 468.503 221.774C468.533 221.634 468.573 221.484 468.603 221.344L468.643 221.314ZM468.643 220.734C468.535 220.686 468.416 220.668 468.299 220.68C468.181 220.692 468.069 220.735 467.973 220.804C467.773 220.944 467.743 221.134 467.913 221.234C468.021 221.281 468.14 221.3 468.257 221.288C468.375 221.275 468.487 221.233 468.583 221.164C468.793 221.024 468.813 220.834 468.653 220.734H468.643ZM469.643 223.054C469.827 223.067 470.011 223.041 470.183 222.977C470.356 222.913 470.512 222.813 470.643 222.684C470.801 222.473 470.914 222.231 470.973 221.974C471.022 221.842 471.04 221.7 471.026 221.56C471.013 221.419 470.967 221.284 470.893 221.164C470.796 221.066 470.678 220.992 470.548 220.947C470.418 220.902 470.28 220.887 470.143 220.904C469.815 220.889 469.493 221 469.243 221.214C469.031 221.426 468.891 221.698 468.843 221.994C468.773 222.274 468.703 222.794 469.173 222.994C469.335 223.045 469.504 223.065 469.673 223.054H469.643ZM469.643 222.054C469.723 221.704 469.813 221.414 470.053 221.414C470.293 221.414 470.253 221.634 470.173 221.984C470.138 222.155 470.077 222.32 469.993 222.474C469.971 222.515 469.94 222.549 469.901 222.576C469.863 222.602 469.819 222.618 469.773 222.624C469.773 222.624 469.593 222.624 469.593 222.404C469.596 222.272 469.616 222.141 469.653 222.014L469.643 222.054ZM471.823 223.054L471.953 222.394C471.953 222.204 472.083 221.774 472.123 221.624C472.195 221.587 472.273 221.563 472.353 221.554C472.523 221.554 472.503 221.704 472.493 221.764C472.464 222.006 472.42 222.247 472.363 222.484V222.664C472.363 222.804 472.293 222.934 472.263 223.074C472.516 223.059 472.77 223.059 473.023 223.074C473.073 222.764 473.093 222.674 473.193 222.214V222.004C473.293 221.594 473.343 221.384 473.273 221.214C473.236 221.134 473.174 221.067 473.097 221.024C473.02 220.981 472.931 220.963 472.843 220.974C472.676 220.979 472.512 221.019 472.363 221.094L472.173 221.204L472.223 220.994C471.843 221.074 471.753 221.084 471.403 221.134C471.352 221.555 471.275 221.972 471.173 222.384C471.113 222.624 471.053 222.874 471.003 223.114C471.263 223.099 471.523 223.099 471.783 223.114L471.823 223.054ZM474.413 223.054L474.563 222.304C474.563 222.304 474.683 221.834 474.683 221.814L474.753 221.754H474.813C475.325 221.809 475.841 221.697 476.283 221.434C476.587 221.202 476.797 220.868 476.873 220.494C476.888 220.388 476.888 220.28 476.873 220.174C476.881 220.024 476.839 219.876 476.753 219.754C476.533 219.444 476.093 219.434 475.583 219.434H475.333C474.683 219.434 474.423 219.434 474.333 219.434C474.243 219.434 474.333 219.564 474.333 219.564L474.143 220.584C474.143 220.584 473.593 222.884 473.563 222.994C474.143 223.014 474.323 223.014 474.423 223.024L474.413 223.054ZM474.843 221.134L475.143 220.034V219.934H475.243H475.763C475.865 219.978 475.946 220.06 475.989 220.163C476.032 220.265 476.033 220.38 475.993 220.484C475.969 220.599 475.92 220.707 475.849 220.8C475.778 220.893 475.687 220.97 475.583 221.024C475.402 221.096 475.207 221.126 475.013 221.114H474.843V221.134ZM476.393 222.064C476.323 222.344 476.253 222.854 476.713 223.064C476.852 223.109 477.001 223.116 477.143 223.084C477.292 223.066 477.431 223.003 477.543 222.904V223.024H478.343C478.403 222.704 478.453 222.404 478.593 221.804C478.653 221.524 478.723 221.234 478.793 220.954L477.953 221.084V221.174C477.894 221.073 477.802 220.996 477.693 220.954C477.535 220.935 477.374 220.954 477.224 221.009C477.075 221.065 476.94 221.156 476.833 221.274C476.624 221.483 476.484 221.752 476.433 222.044L476.393 222.064ZM477.183 222.064C477.263 221.724 477.353 221.424 477.593 221.424C477.833 221.424 477.823 221.564 477.803 221.804C477.807 221.867 477.807 221.931 477.803 221.994C477.782 222.099 477.756 222.202 477.723 222.304C477.706 222.368 477.679 222.429 477.643 222.484C477.605 222.526 477.559 222.561 477.507 222.585C477.456 222.609 477.4 222.622 477.343 222.624C477.343 222.624 477.143 222.584 477.143 222.394C477.146 222.279 477.163 222.165 477.193 222.054L477.183 222.064ZM481.303 220.924C480.933 220.994 480.863 221.014 480.523 221.054C480.263 221.634 480.273 221.514 480.063 221.974V221.914L480.013 220.914C479.623 220.984 479.613 221.004 479.253 221.044C479.253 221.274 479.253 221.224 479.333 221.584C479.333 221.764 479.333 221.944 479.403 222.124C479.473 222.304 479.453 222.564 479.493 223.004C479.253 223.414 479.193 223.564 478.963 223.914L478.803 224.174C478.788 224.199 478.768 224.219 478.743 224.234H478.543L478.403 224.684H478.873C478.981 224.69 479.088 224.665 479.182 224.612C479.276 224.559 479.353 224.48 479.403 224.384L479.703 223.884C479.903 223.464 481.403 220.884 481.403 220.884L481.303 220.924ZM476.393 226.854H476.193L476.923 224.434H477.143L477.223 224.184V224.464C477.223 224.634 477.343 224.784 477.703 224.764H478.143L478.283 224.294H478.143C478.053 224.294 478.013 224.294 478.023 224.224V223.934H477.243C477.003 223.934 476.243 223.934 476.123 223.994C475.991 224.038 475.866 224.102 475.753 224.184L475.823 223.934H475.143L474.993 224.424L474.253 226.874H474.103L473.963 227.344H475.373V227.494H476.063L476.113 227.344H476.303L476.463 226.844L476.393 226.854ZM475.813 224.924C475.7 224.959 475.59 225.003 475.483 225.054L475.673 224.434H476.233L476.143 224.874C476.047 224.866 475.95 224.866 475.853 224.874L475.813 224.924ZM475.813 225.804H475.513C475.403 225.804 475.193 225.954 475.193 225.954L475.383 225.304H475.943L475.813 225.754V225.804ZM475.493 226.804H474.933L475.093 226.264H475.653L475.493 226.804ZM476.853 225.304H477.673L477.553 225.684H476.743L476.623 226.104H477.343L476.803 226.874C476.772 226.91 476.735 226.941 476.693 226.964C476.644 226.975 476.592 226.975 476.543 226.964H476.343L476.203 227.414H476.723C476.832 227.418 476.941 227.395 477.039 227.346C477.137 227.297 477.221 227.224 477.283 227.134L477.653 226.624L477.733 227.144C477.742 227.181 477.759 227.216 477.783 227.245C477.808 227.275 477.838 227.298 477.873 227.314C477.926 227.354 477.988 227.381 478.053 227.394H478.493L478.643 226.884H478.543C478.484 226.897 478.422 226.897 478.363 226.884C478.359 226.847 478.359 226.81 478.363 226.774L478.283 226.254H477.943L478.093 226.084H478.913L479.043 225.664H478.283L478.393 225.284H479.143L479.293 224.824H477.013L476.873 225.284L476.853 225.304ZM469.983 226.914L470.173 226.284H470.953L471.093 225.814H470.313L470.433 225.424H471.193L471.333 224.964H469.443L469.313 225.424H469.743L469.623 225.814H469.193L469.043 226.284H469.483L469.223 227.124C469.223 227.234 469.223 227.274 469.273 227.334C469.306 227.383 469.356 227.419 469.413 227.434H469.613H470.493L470.653 226.914L470.263 226.974C470.143 227.034 469.983 227.024 470.003 226.954L469.983 226.914ZM470.073 223.914L469.873 224.274C469.848 224.332 469.811 224.383 469.763 224.424C469.704 224.439 469.642 224.439 469.583 224.424H469.483L469.343 224.874H469.683C469.805 224.871 469.925 224.84 470.033 224.784C470.103 224.784 470.113 224.784 470.163 224.724L470.283 224.624H471.353L471.493 224.144H470.713L470.853 223.884L470.073 223.914ZM471.653 226.914C471.653 226.914 471.653 226.844 471.653 226.744L471.943 225.744H473.323C473.411 225.733 473.495 225.706 473.573 225.664C473.646 225.623 473.708 225.565 473.753 225.494C473.833 225.367 473.894 225.229 473.933 225.084L474.303 223.864H473.263C473.1 223.886 472.94 223.923 472.783 223.974C472.655 224.036 472.534 224.114 472.423 224.204L472.523 223.864H471.853L470.913 226.964L470.853 227.224C470.853 227.224 470.933 227.334 470.973 227.374C471.045 227.394 471.121 227.394 471.193 227.374H472.073L472.233 226.844H471.773C471.773 226.872 471.764 226.9 471.745 226.922C471.727 226.944 471.701 226.959 471.673 226.964L471.653 226.914ZM472.143 225.174H473.243L473.173 225.384C473.173 225.384 473.173 225.384 473.023 225.384H472.143V225.174ZM472.363 224.444H473.463L473.383 224.704C473.383 224.704 472.873 224.704 472.783 224.704C472.57 224.738 472.37 224.828 472.203 224.964L472.363 224.444ZM473.193 226.114C473.193 226.114 473.193 226.174 473.193 226.184C473.193 226.194 473.133 226.184 473.083 226.184H472.923V225.924H472.273V227.214C472.273 227.314 472.273 227.364 472.353 227.404C472.532 227.468 472.724 227.488 472.913 227.464H473.323L473.473 226.984H473.113H473.003H472.953C472.953 226.984 472.953 226.984 472.953 226.894V226.584H473.333C473.397 226.588 473.462 226.578 473.522 226.556C473.582 226.534 473.637 226.499 473.683 226.454C473.747 226.397 473.79 226.319 473.803 226.234L473.873 225.944H473.363L473.293 226.144L473.193 226.114Z" fill="#FEFEFE"/>
<mask id="path-29-inside-2_4003_3247" fill="white">
<path d="M112.143 242.584H304.143V282.584H118.143C114.829 282.584 112.143 279.898 112.143 276.584V242.584Z"/>
</mask>
<path d="M112.143 242.584H304.143V282.584H118.143C114.829 282.584 112.143 279.898 112.143 276.584V242.584Z" fill="white"/>
<path d="M111.143 241.584H304.143V243.584H113.143L111.143 241.584ZM304.143 283.584H118.143C114.277 283.584 111.143 280.45 111.143 276.584H113.143C113.143 279.345 115.381 281.584 118.143 281.584H304.143V283.584ZM118.143 283.584C114.277 283.584 111.143 280.45 111.143 276.584V241.584L113.143 243.584V276.584C113.143 279.345 115.381 281.584 118.143 281.584V283.584ZM304.143 242.584V282.584V242.584Z" fill="#E6EBF1" mask="url(#path-29-inside-2_4003_3247)"/>
<path d="M126.056 257.766H127.58L130.228 264.232H130.325L132.973 257.766H134.496V266.084H133.302V260.065H133.225L130.772 266.072H129.781L127.328 260.061H127.251V266.084H126.056V257.766ZM136.521 257.766H138.044L140.692 264.232H140.79L143.438 257.766H144.961V266.084H143.767V260.065H143.69L141.237 266.072H140.246L137.792 260.061H137.715V266.084H136.521V257.766ZM150.056 257.376L147.376 267.335H146.291L148.972 257.376H150.056ZM150.744 257.766H152.169L154.342 261.547H154.432L156.605 257.766H158.03L155.013 262.818V266.084H153.762V262.818L150.744 257.766ZM158.774 257.766H160.199L162.372 261.547H162.462L164.635 257.766H166.06L163.042 262.818V266.084H161.791V262.818L158.774 257.766Z" fill="#425466"/>
<path d="M304.643 243.084H495.643V276.584C495.643 279.622 493.18 282.084 490.143 282.084H304.643V243.084Z" fill="white"/>
<path d="M304.643 243.084H495.643V276.584C495.643 279.622 493.18 282.084 490.143 282.084H304.643V243.084Z" stroke="#E6EBF1"/>
<path d="M325.093 260.379H323.805C323.756 260.104 323.664 259.861 323.529 259.652C323.394 259.443 323.229 259.266 323.034 259.12C322.838 258.974 322.619 258.864 322.377 258.789C322.138 258.715 321.883 258.678 321.613 258.678C321.126 258.678 320.69 258.8 320.305 259.045C319.922 259.29 319.619 259.65 319.397 260.123C319.176 260.596 319.066 261.174 319.066 261.857C319.066 262.545 319.176 263.125 319.397 263.599C319.619 264.072 319.924 264.43 320.309 264.672C320.694 264.914 321.128 265.035 321.609 265.035C321.876 265.035 322.129 265 322.369 264.928C322.611 264.854 322.83 264.745 323.025 264.602C323.221 264.459 323.386 264.284 323.521 264.078C323.658 263.869 323.753 263.629 323.805 263.359L325.093 263.364C325.025 263.779 324.891 264.162 324.693 264.511C324.498 264.858 324.246 265.158 323.938 265.411C323.632 265.662 323.283 265.856 322.889 265.993C322.495 266.131 322.066 266.2 321.601 266.2C320.869 266.2 320.217 266.026 319.644 265.679C319.072 265.33 318.62 264.83 318.29 264.181C317.963 263.531 317.799 262.757 317.799 261.857C317.799 260.954 317.964 260.179 318.294 259.533C318.625 258.883 319.076 258.385 319.648 258.038C320.221 257.689 320.872 257.514 321.601 257.514C322.05 257.514 322.468 257.579 322.856 257.708C323.247 257.834 323.598 258.022 323.909 258.269C324.22 258.514 324.477 258.814 324.681 259.169C324.884 259.522 325.022 259.925 325.093 260.379ZM327.559 257.629L329.912 264.515H330.007L332.36 257.629H333.739L330.696 266.084H329.222L326.18 257.629H327.559ZM341.762 260.379H340.474C340.424 260.104 340.332 259.861 340.197 259.652C340.062 259.443 339.897 259.266 339.702 259.12C339.506 258.974 339.288 258.864 339.045 258.789C338.806 258.715 338.551 258.678 338.282 258.678C337.794 258.678 337.358 258.8 336.973 259.045C336.59 259.29 336.288 259.65 336.065 260.123C335.845 260.596 335.735 261.174 335.735 261.857C335.735 262.545 335.845 263.125 336.065 263.599C336.288 264.072 336.592 264.43 336.977 264.672C337.362 264.914 337.796 265.035 338.277 265.035C338.544 265.035 338.798 265 339.037 264.928C339.279 264.854 339.498 264.745 339.693 264.602C339.889 264.459 340.054 264.284 340.189 264.078C340.326 263.869 340.421 263.629 340.474 263.359L341.762 263.364C341.693 263.779 341.559 264.162 341.361 264.511C341.166 264.858 340.914 265.158 340.606 265.411C340.3 265.662 339.951 265.856 339.557 265.993C339.164 266.131 338.734 266.2 338.269 266.2C337.537 266.2 336.885 266.026 336.312 265.679C335.74 265.33 335.289 264.83 334.958 264.181C334.631 263.531 334.467 262.757 334.467 261.857C334.467 260.954 334.632 260.179 334.963 259.533C335.293 258.883 335.744 258.385 336.317 258.038C336.889 257.689 337.54 257.514 338.269 257.514C338.718 257.514 339.136 257.579 339.524 257.708C339.915 257.834 340.266 258.022 340.577 258.269C340.888 258.514 341.145 258.814 341.349 259.169C341.553 259.522 341.69 259.925 341.762 260.379Z" fill="#425466"/>
<path opacity="0.2" fill-rule="evenodd" clip-rule="evenodd" d="M476.134 256.812H462.77C462.145 256.812 461.412 257.532 461.412 258.171V268.359C461.412 268.997 462.145 269.717 462.77 269.717H479.747C480.372 269.717 481.105 268.997 481.105 268.359V263.245C480.533 263.759 479.826 264.101 479.068 264.229V264.284C479.068 264.732 478.823 264.963 478.389 264.963H463.449C463.015 264.963 462.77 264.732 462.77 264.284V263.604C462.77 263.156 463.015 262.925 463.449 262.925H475.353C474.961 262.491 474.668 261.977 474.493 261.418C474.318 260.86 474.266 260.27 474.34 259.69C474.414 259.109 474.613 258.551 474.923 258.055C475.232 257.558 475.646 257.134 476.134 256.812Z" fill="#565656"/>
<path opacity="0.3" fill-rule="evenodd" clip-rule="evenodd" d="M474.545 258.85H461.412V260.887H474.369C474.255 260.204 474.315 259.503 474.545 258.85Z" fill="#565656"/>
<path fill-rule="evenodd" clip-rule="evenodd" d="M478.388 264.962C477.128 264.962 475.918 264.461 475.027 263.569C474.136 262.678 473.635 261.468 473.635 260.208C473.635 258.947 474.136 257.737 475.027 256.846C475.918 255.954 477.128 255.453 478.388 255.453C479.649 255.453 480.858 255.954 481.749 256.846C482.641 257.737 483.142 258.947 483.142 260.208C483.142 261.468 482.641 262.678 481.749 263.569C480.858 264.461 479.649 264.962 478.388 264.962ZM476.5 258.238H475.964L474.653 258.903V259.583L475.692 259.039V262.177H476.507V258.238H476.5ZM478.062 258.781C478.449 258.781 478.721 258.999 478.721 259.311C478.721 259.651 478.402 259.888 477.94 259.888H477.736V260.466H477.981C478.47 260.466 478.802 260.71 478.802 261.063C478.802 261.403 478.476 261.634 478.015 261.634C477.675 261.634 477.336 261.525 476.983 261.315V261.994C477.363 262.157 477.743 262.245 478.117 262.245C479.006 262.245 479.617 261.79 479.617 261.131C479.617 260.669 479.332 260.296 478.857 260.146C479.264 260.011 479.529 259.651 479.529 259.243C479.529 258.605 478.965 258.17 478.151 258.17C477.783 258.174 477.421 258.253 477.084 258.401V259.066C477.41 258.883 477.743 258.781 478.062 258.781ZM480.996 260.262C481.492 260.262 481.838 260.554 481.838 260.934C481.838 261.335 481.492 261.613 480.996 261.613C480.697 261.613 480.385 261.518 480.065 261.321V262.021C480.398 262.17 480.738 262.245 481.07 262.245C481.247 262.245 481.41 262.218 481.566 262.177C481.919 261.6 482.123 260.934 482.123 260.221L482.109 259.936C481.857 259.786 481.568 259.711 481.274 259.719C481.152 259.719 481.023 259.725 480.887 259.746V258.863H481.865C481.78 258.645 481.676 258.436 481.553 258.238H480.181V260.377C480.453 260.309 480.724 260.262 480.996 260.262Z" fill="#565656"/>
<path d="M120.27 305.72V314.584H119.041L114.536 308.083H114.454V314.584H113.116V305.72H114.354L118.864 312.23H118.946V305.72H120.27ZM124.252 314.731C123.831 314.731 123.45 314.653 123.109 314.497C122.769 314.339 122.499 314.109 122.3 313.809C122.104 313.509 122.006 313.141 122.006 312.706C122.006 312.331 122.078 312.022 122.222 311.779C122.366 311.537 122.561 311.345 122.806 311.204C123.052 311.062 123.326 310.956 123.629 310.884C123.932 310.811 124.24 310.757 124.555 310.719C124.953 310.673 125.276 310.635 125.524 310.607C125.773 310.575 125.953 310.524 126.065 310.455C126.178 310.386 126.234 310.273 126.234 310.118V310.087C126.234 309.709 126.127 309.416 125.914 309.209C125.703 309.001 125.389 308.897 124.97 308.897C124.535 308.897 124.191 308.994 123.94 309.187C123.692 309.377 123.521 309.59 123.425 309.823L122.209 309.546C122.353 309.142 122.564 308.816 122.841 308.568C123.121 308.317 123.443 308.135 123.806 308.023C124.17 307.907 124.552 307.85 124.953 307.85C125.219 307.85 125.5 307.881 125.797 307.945C126.097 308.006 126.377 308.118 126.637 308.282C126.899 308.447 127.114 308.682 127.282 308.988C127.449 309.291 127.533 309.685 127.533 310.169V314.584H126.269V313.675H126.217C126.133 313.842 126.008 314.007 125.84 314.169C125.673 314.33 125.458 314.464 125.195 314.571C124.933 314.678 124.618 314.731 124.252 314.731ZM124.533 313.692C124.891 313.692 125.197 313.622 125.451 313.48C125.708 313.339 125.902 313.154 126.035 312.926C126.171 312.696 126.239 312.449 126.239 312.186V311.329C126.192 311.376 126.103 311.419 125.97 311.459C125.84 311.497 125.692 311.53 125.524 311.559C125.357 311.585 125.194 311.609 125.035 311.632C124.877 311.653 124.744 311.67 124.637 311.684C124.386 311.716 124.157 311.769 123.949 311.844C123.744 311.919 123.58 312.028 123.456 312.169C123.334 312.307 123.274 312.492 123.274 312.723C123.274 313.043 123.392 313.286 123.629 313.45C123.865 313.612 124.167 313.692 124.533 313.692ZM129.456 314.584V307.936H130.698V309.018H130.781C130.919 308.652 131.146 308.366 131.46 308.161C131.775 307.954 132.151 307.85 132.59 307.85C133.034 307.85 133.406 307.954 133.706 308.161C134.009 308.369 134.233 308.655 134.377 309.018H134.446C134.605 308.663 134.857 308.381 135.204 308.17C135.55 307.956 135.963 307.85 136.442 307.85C137.045 307.85 137.536 308.039 137.917 308.417C138.301 308.795 138.493 309.364 138.493 310.126V314.584H137.199V310.247C137.199 309.797 137.076 309.471 136.831 309.269C136.586 309.067 136.293 308.966 135.952 308.966C135.531 308.966 135.204 309.096 134.97 309.356C134.736 309.613 134.619 309.943 134.619 310.347V314.584H133.33V310.165C133.33 309.804 133.217 309.515 132.992 309.295C132.767 309.076 132.474 308.966 132.114 308.966C131.868 308.966 131.642 309.031 131.434 309.161C131.229 309.288 131.063 309.465 130.936 309.693C130.812 309.921 130.75 310.185 130.75 310.485V314.584H129.456ZM143.292 314.718C142.638 314.718 142.073 314.578 141.6 314.298C141.13 314.016 140.766 313.619 140.51 313.108C140.256 312.595 140.129 311.993 140.129 311.303C140.129 310.622 140.256 310.022 140.51 309.503C140.766 308.984 141.124 308.578 141.583 308.287C142.045 307.995 142.584 307.85 143.202 307.85C143.577 307.85 143.94 307.912 144.292 308.036C144.644 308.16 144.96 308.355 145.24 308.62C145.52 308.886 145.741 309.23 145.902 309.654C146.064 310.076 146.145 310.588 146.145 311.191V311.65H140.86V310.68H144.877C144.877 310.34 144.807 310.038 144.669 309.776C144.53 309.51 144.336 309.301 144.084 309.148C143.836 308.995 143.545 308.919 143.21 308.919C142.847 308.919 142.529 309.008 142.258 309.187C141.99 309.363 141.782 309.594 141.635 309.88C141.491 310.162 141.418 310.47 141.418 310.801V311.559C141.418 312.003 141.496 312.381 141.652 312.693C141.811 313.004 142.032 313.242 142.314 313.407C142.597 313.568 142.927 313.649 143.305 313.649C143.551 313.649 143.774 313.615 143.976 313.545C144.178 313.473 144.353 313.366 144.5 313.225C144.647 313.084 144.76 312.909 144.838 312.701L146.062 312.922C145.964 313.283 145.788 313.599 145.534 313.87C145.283 314.138 144.967 314.347 144.587 314.497C144.209 314.645 143.777 314.718 143.292 314.718ZM154.006 314.718C153.383 314.718 152.839 314.575 152.374 314.29C151.91 314.004 151.549 313.604 151.292 313.091C151.036 312.577 150.907 311.977 150.907 311.29C150.907 310.601 151.036 309.998 151.292 309.481C151.549 308.965 151.91 308.564 152.374 308.278C152.839 307.993 153.383 307.85 154.006 307.85C154.629 307.85 155.173 307.993 155.638 308.278C156.102 308.564 156.463 308.965 156.72 309.481C156.976 309.998 157.105 310.601 157.105 311.29C157.105 311.977 156.976 312.577 156.72 313.091C156.463 313.604 156.102 314.004 155.638 314.29C155.173 314.575 154.629 314.718 154.006 314.718ZM154.01 313.632C154.414 313.632 154.749 313.525 155.014 313.312C155.28 313.098 155.476 312.814 155.603 312.459C155.733 312.104 155.798 311.713 155.798 311.286C155.798 310.862 155.733 310.472 155.603 310.118C155.476 309.76 155.28 309.473 155.014 309.256C154.749 309.04 154.414 308.932 154.01 308.932C153.603 308.932 153.266 309.04 152.998 309.256C152.732 309.473 152.534 309.76 152.405 310.118C152.278 310.472 152.214 310.862 152.214 311.286C152.214 311.713 152.278 312.104 152.405 312.459C152.534 312.814 152.732 313.098 152.998 313.312C153.266 313.525 153.603 313.632 154.01 313.632ZM160.043 310.637V314.584H158.749V307.936H159.991V309.018H160.074C160.227 308.666 160.466 308.383 160.792 308.17C161.121 307.956 161.535 307.85 162.034 307.85C162.487 307.85 162.884 307.945 163.224 308.135C163.565 308.323 163.829 308.603 164.016 308.975C164.204 309.347 164.298 309.807 164.298 310.356V314.584H163.004V310.511C163.004 310.03 162.878 309.653 162.627 309.382C162.376 309.108 162.031 308.971 161.593 308.971C161.293 308.971 161.026 309.036 160.792 309.165C160.561 309.295 160.378 309.486 160.242 309.737C160.11 309.985 160.043 310.285 160.043 310.637ZM172.459 314.718C171.815 314.718 171.261 314.572 170.797 314.281C170.335 313.987 169.98 313.581 169.732 313.065C169.484 312.548 169.36 311.957 169.36 311.29C169.36 310.615 169.487 310.019 169.741 309.503C169.995 308.984 170.352 308.578 170.814 308.287C171.276 307.995 171.82 307.85 172.446 307.85C172.951 307.85 173.401 307.943 173.796 308.131C174.191 308.316 174.51 308.575 174.753 308.91C174.998 309.245 175.144 309.636 175.19 310.083H173.93C173.861 309.771 173.702 309.503 173.454 309.278C173.209 309.053 172.88 308.94 172.467 308.94C172.107 308.94 171.791 309.036 171.52 309.226C171.251 309.414 171.042 309.682 170.892 310.031C170.742 310.377 170.667 310.787 170.667 311.26C170.667 311.745 170.741 312.163 170.888 312.515C171.035 312.867 171.243 313.14 171.511 313.333C171.782 313.527 172.101 313.623 172.467 313.623C172.713 313.623 172.935 313.578 173.134 313.489C173.336 313.397 173.505 313.265 173.64 313.095C173.779 312.925 173.875 312.72 173.93 312.481H175.19C175.144 312.911 175.004 313.294 174.77 313.632C174.536 313.969 174.223 314.235 173.831 314.428C173.441 314.621 172.984 314.718 172.459 314.718ZM178.708 314.731C178.287 314.731 177.906 314.653 177.566 314.497C177.225 314.339 176.955 314.109 176.756 313.809C176.56 313.509 176.462 313.141 176.462 312.706C176.462 312.331 176.534 312.022 176.678 311.779C176.823 311.537 177.017 311.345 177.263 311.204C177.508 311.062 177.782 310.956 178.085 310.884C178.388 310.811 178.697 310.757 179.011 310.719C179.409 310.673 179.732 310.635 179.981 310.607C180.229 310.575 180.409 310.524 180.522 310.455C180.634 310.386 180.69 310.273 180.69 310.118V310.087C180.69 309.709 180.584 309.416 180.37 309.209C180.159 309.001 179.845 308.897 179.427 308.897C178.991 308.897 178.648 308.994 178.397 309.187C178.148 309.377 177.977 309.59 177.882 309.823L176.665 309.546C176.81 309.142 177.02 308.816 177.297 308.568C177.577 308.317 177.899 308.135 178.262 308.023C178.626 307.907 179.008 307.85 179.409 307.85C179.675 307.85 179.956 307.881 180.253 307.945C180.553 308.006 180.833 308.118 181.093 308.282C181.355 308.447 181.57 308.682 181.738 308.988C181.905 309.291 181.989 309.685 181.989 310.169V314.584H180.725V313.675H180.673C180.589 313.842 180.464 314.007 180.297 314.169C180.129 314.33 179.914 314.464 179.652 314.571C179.389 314.678 179.075 314.731 178.708 314.731ZM178.989 313.692C179.347 313.692 179.653 313.622 179.907 313.48C180.164 313.339 180.359 313.154 180.491 312.926C180.627 312.696 180.695 312.449 180.695 312.186V311.329C180.649 311.376 180.559 311.419 180.426 311.459C180.297 311.497 180.148 311.53 179.981 311.559C179.813 311.585 179.65 311.609 179.492 311.632C179.333 311.653 179.2 311.67 179.093 311.684C178.842 311.716 178.613 311.769 178.405 311.844C178.2 311.919 178.036 312.028 177.912 312.169C177.791 312.307 177.73 312.492 177.73 312.723C177.73 313.043 177.848 313.286 178.085 313.45C178.322 313.612 178.623 313.692 178.989 313.692ZM183.912 314.584V307.936H185.163V308.992H185.232C185.354 308.634 185.567 308.353 185.873 308.148C186.182 307.941 186.531 307.837 186.92 307.837C187.001 307.837 187.096 307.84 187.206 307.845C187.318 307.851 187.406 307.858 187.47 307.867V309.105C187.418 309.09 187.326 309.075 187.193 309.057C187.06 309.037 186.927 309.027 186.795 309.027C186.489 309.027 186.216 309.092 185.977 309.222C185.74 309.349 185.553 309.526 185.414 309.754C185.276 309.979 185.206 310.236 185.206 310.524V314.584H183.912ZM191.04 314.714C190.504 314.714 190.025 314.577 189.603 314.303C189.185 314.026 188.856 313.632 188.617 313.121C188.38 312.608 188.262 311.992 188.262 311.273C188.262 310.555 188.381 309.94 188.621 309.429C188.863 308.919 189.195 308.528 189.616 308.257C190.038 307.985 190.515 307.85 191.049 307.85C191.462 307.85 191.793 307.919 192.044 308.057C192.298 308.193 192.494 308.352 192.633 308.534C192.774 308.715 192.884 308.875 192.962 309.014H193.04V305.72H194.334V314.584H193.07V313.55H192.962C192.884 313.691 192.771 313.853 192.624 314.034C192.48 314.216 192.281 314.375 192.027 314.51C191.773 314.646 191.444 314.714 191.04 314.714ZM191.326 313.61C191.698 313.61 192.013 313.512 192.269 313.316C192.529 313.117 192.725 312.841 192.858 312.489C192.994 312.137 193.061 311.728 193.061 311.26C193.061 310.798 192.995 310.395 192.862 310.048C192.73 309.702 192.535 309.432 192.278 309.239C192.021 309.046 191.704 308.949 191.326 308.949C190.936 308.949 190.612 309.05 190.352 309.252C190.092 309.454 189.896 309.729 189.764 310.079C189.634 310.428 189.569 310.822 189.569 311.26C189.569 311.704 189.635 312.104 189.768 312.459C189.901 312.814 190.097 313.095 190.356 313.303C190.619 313.508 190.942 313.61 191.326 313.61Z" fill="#0A2540"/>
<rect x="112.643" y="325.084" width="383" height="39" rx="5.5" fill="white"/>
<rect x="112.643" y="325.084" width="383" height="39" rx="5.5" stroke="#E6EBF1"/>
</g>
</g>
</g>
<g opacity="0.3">
<path d="M4.14258 4.92383H504.143V334.254C504.143 336.463 502.352 338.254 500.143 338.254H8.14259C5.93345 338.254 4.14258 336.463 4.14258 334.254V4.92383Z" fill="url(#paint0_linear_4003_3247)"/>
</g>
</g>
<defs>
<linearGradient id="paint0_linear_4003_3247" x1="254.143" y1="4.92383" x2="254.143" y2="338.254" gradientUnits="userSpaceOnUse">
<stop stop-color="#BEC9DC" stop-opacity="0"/>
<stop offset="1" stop-color="#BEC9DC" stop-opacity="0.4"/>
</linearGradient>
<clipPath id="clip0_4003_3247">
<rect x="4.14258" y="4.92383" width="500" height="333.33" rx="4" fill="white"/>
</clipPath>
<clipPath id="clip1_4003_3247">
<rect x="4.14258" y="4.92383" width="500" height="333.33" rx="4" fill="white"/>
</clipPath>
<clipPath id="clip2_4003_3247">
<rect width="500" height="333.33" fill="white" transform="translate(74.1426 71.584)"/>
</clipPath>
<clipPath id="clip3_4003_3247">
<rect x="74.1426" y="71.584" width="460" height="363" rx="8" fill="white"/>
</clipPath>
</defs>
</svg>
