<svg width="509" height="339" viewBox="0 0 509 339" fill="none" xmlns="http://www.w3.org/2000/svg">
<g clip-path="url(#clip0_4003_3463)">
<rect x="4.14258" y="4.92383" width="500" height="333.33" rx="4" fill="#F6F9FC"/>
<g clip-path="url(#clip1_4003_3463)">
<g clip-path="url(#clip2_4003_3463)">
<path d="M108.62 68.3999V71.9139H107.003V62.8379H110.63C112.653 62.8379 113.917 63.7859 113.917 65.6189C113.917 67.4269 112.653 68.3999 110.63 68.3999H108.62ZM108.62 67.0099H110.543C111.706 67.0099 112.325 66.5039 112.325 65.6199C112.325 64.7219 111.705 64.2289 110.543 64.2289H108.621V67.0089L108.62 67.0099ZM120.583 68.6019C120.583 70.6619 119.256 72.0529 117.386 72.0529C115.515 72.0529 114.188 70.6629 114.188 68.6029C114.188 66.5419 115.515 65.1519 117.386 65.1519C119.256 65.1519 120.583 66.5419 120.583 68.6019ZM115.717 68.6019C115.717 69.9549 116.362 70.7759 117.386 70.7759C118.409 70.7759 119.054 69.9549 119.054 68.6019C119.054 67.2499 118.409 66.4279 117.386 66.4279C116.362 66.4279 115.717 67.2499 115.717 68.6019ZM124.801 65.2779H126.052L127.24 69.6769L128.416 65.2779H129.92L127.923 71.9139H126.608L125.395 67.5659L124.181 71.9139H122.867L120.87 65.2779H122.424L123.625 69.6769L124.801 65.2779ZM133.117 72.0529C131.259 72.0529 130.197 70.4859 130.197 68.6029C130.197 66.7189 131.259 65.1519 133.117 65.1519C133.977 65.1519 134.609 65.4919 135.026 65.9859V62.8379H136.543V71.9139H135.026V71.2189C134.609 71.7119 133.976 72.0529 133.117 72.0529ZM135.064 68.4129C135.064 67.1609 134.356 66.4789 133.421 66.4789C132.321 66.4789 131.727 67.3389 131.727 68.6019C131.727 69.8659 132.321 70.7259 133.421 70.7259C134.356 70.7259 135.064 70.0309 135.064 68.8049V68.4129ZM143.656 65.2779V71.9139H142.139V71.2059C141.759 71.6489 141.191 72.0529 140.331 72.0529C138.941 72.0529 138.081 71.1049 138.081 69.6769V65.2779H139.598V69.3479C139.598 70.1569 139.952 70.6749 140.774 70.6749C141.456 70.6749 142.139 70.1699 142.139 69.2219V65.2779H143.656ZM149.021 65.2649V66.7819C148.837 66.7558 148.651 66.7431 148.465 66.7439C147.505 66.7439 146.771 67.3639 146.771 68.4249V71.9139H145.254V65.2779H146.771V66.2639C147.061 65.6439 147.744 65.2399 148.591 65.2399C148.768 65.2399 148.907 65.2529 149.021 65.2649Z" fill="#2E3A55"/>
<path d="M100.643 67.1641C100.643 73.9291 95.1576 79.4141 88.3926 79.4141C81.6276 79.4141 76.1426 73.9291 76.1426 67.1641C76.1426 60.3991 81.6276 54.9141 88.3926 54.9141C95.1576 54.9141 100.643 60.3991 100.643 67.1641Z" fill="black"/>
<path d="M89.2726 61.0937C88.8166 61.0937 88.4096 61.2397 88.0476 61.5387C87.7016 61.8327 87.4676 62.2467 87.3476 62.7737V69.7317C87.6696 70.0797 88.0876 70.2507 88.6116 70.2507C89.4656 70.2507 90.0816 69.8437 90.4556 69.0347C90.8306 68.2097 91.0156 67.0177 91.0156 65.4487C91.0156 63.8807 90.8626 62.7617 90.5566 62.0957C90.2586 61.4257 89.8316 61.0927 89.2716 61.0927L89.2726 61.0937ZM90.4526 60.2637C91.1486 60.2637 91.7606 60.4427 92.2966 60.8027C92.8436 61.1627 93.2706 61.7007 93.5806 62.4207C93.8866 63.1407 94.0436 64.0207 94.0436 65.0617C94.0436 66.9017 93.6216 68.3147 92.7796 69.3017C91.9496 70.2777 90.8226 70.7657 89.3926 70.7657C88.9896 70.7657 88.6116 70.7157 88.2486 70.6107C87.9209 70.5174 87.6145 70.3612 87.3466 70.1507V72.0777C87.3466 72.6437 87.4966 73.0347 87.7896 73.2557C88.0836 73.4717 88.5396 73.5847 89.1546 73.5847V73.9907L88.6146 73.9707C87.6731 73.9427 86.7314 73.9237 85.7896 73.9137C85.3866 73.9137 84.5446 73.9407 83.2646 73.9907V73.5847C83.7036 73.5847 84.0136 73.4877 84.1866 73.2947C84.3716 73.1117 84.4686 72.7747 84.4686 72.2717V62.6297C84.4686 62.0377 84.3686 61.6077 84.1666 61.3367C83.9816 61.0667 83.6506 60.9307 83.1836 60.9307V60.5237C83.6106 60.5627 84.0256 60.5817 84.4286 60.5817C85.5916 60.5817 86.5666 60.4927 87.3556 60.3107V62.0837C87.6142 61.5176 88.0423 61.0459 88.5806 60.7337C89.1036 60.4237 89.7316 60.2637 90.4526 60.2637Z" fill="white"/>
<rect x="76.1426" y="99.9141" width="356" height="212" rx="8" fill="white"/>
<path d="M105.498 156.185V133.472H106.953V156.185H105.498ZM110.049 140.517C109.955 139.677 109.564 139.026 108.878 138.565C108.192 138.098 107.328 137.864 106.287 137.864C105.542 137.864 104.897 137.982 104.353 138.219C103.809 138.45 103.386 138.769 103.084 139.177C102.789 139.579 102.641 140.038 102.641 140.552C102.641 140.984 102.741 141.357 102.942 141.67C103.15 141.984 103.419 142.247 103.75 142.46C104.087 142.667 104.448 142.841 104.832 142.983C105.217 143.119 105.586 143.232 105.941 143.321L107.716 143.782C108.295 143.924 108.89 144.116 109.499 144.359C110.108 144.601 110.673 144.921 111.194 145.317C111.714 145.713 112.134 146.204 112.454 146.79C112.779 147.375 112.942 148.076 112.942 148.892C112.942 149.922 112.675 150.835 112.143 151.634C111.617 152.432 110.851 153.062 109.845 153.524C108.846 153.985 107.636 154.216 106.216 154.216C104.856 154.216 103.679 154 102.685 153.568C101.691 153.136 100.914 152.524 100.352 151.731C99.7899 150.933 99.4793 149.987 99.4202 148.892H102.171C102.224 149.549 102.437 150.096 102.809 150.534C103.188 150.966 103.67 151.288 104.256 151.501C104.847 151.708 105.495 151.811 106.199 151.811C106.973 151.811 107.663 151.69 108.266 151.448C108.875 151.199 109.354 150.856 109.703 150.418C110.052 149.975 110.227 149.457 110.227 148.866C110.227 148.327 110.073 147.887 109.765 147.544C109.464 147.201 109.053 146.917 108.532 146.692C108.017 146.467 107.435 146.269 106.784 146.098L104.637 145.512C103.182 145.116 102.029 144.533 101.177 143.764C100.331 142.995 99.9082 141.978 99.9082 140.712C99.9082 139.665 100.192 138.751 100.76 137.971C101.328 137.19 102.097 136.584 103.067 136.152C104.037 135.714 105.131 135.495 106.349 135.495C107.58 135.495 108.665 135.711 109.606 136.143C110.552 136.575 111.297 137.169 111.841 137.926C112.386 138.677 112.669 139.541 112.693 140.517H110.049ZM123.263 135.744V153.914H120.513V138.494H120.406L116.059 141.333V138.707L120.592 135.744H123.263ZM128.197 150.365V148.147L136.049 135.744H137.797V139.009H136.688L131.071 147.899V148.041H141.833V150.365H128.197ZM136.812 153.914V149.691L136.829 148.679V135.744H139.429V153.914H136.812ZM144.944 150.365V148.147L152.796 135.744H154.544V139.009H153.435L147.819 147.899V148.041H158.581V150.365H144.944ZM153.559 153.914V149.691L153.577 148.679V135.744H156.176V153.914H153.559ZM163.173 154.083C162.688 154.083 162.271 153.911 161.922 153.568C161.573 153.219 161.398 152.799 161.398 152.308C161.398 151.823 161.573 151.409 161.922 151.066C162.271 150.717 162.688 150.543 163.173 150.543C163.658 150.543 164.075 150.717 164.424 151.066C164.773 151.409 164.947 151.823 164.947 152.308C164.947 152.633 164.864 152.932 164.699 153.204C164.539 153.47 164.326 153.683 164.06 153.843C163.794 154.003 163.498 154.083 163.173 154.083ZM169.014 153.914L176.946 138.228V138.095H167.772V135.744H179.785V138.175L171.879 153.914H169.014ZM189.044 154.162C187.772 154.162 186.648 153.944 185.672 153.506C184.702 153.068 183.942 152.465 183.392 151.696C182.842 150.927 182.57 150.052 182.576 149.07C182.57 148.301 182.727 147.594 183.046 146.949C183.371 146.299 183.812 145.757 184.368 145.326C184.924 144.888 185.545 144.61 186.231 144.492V144.385C185.326 144.166 184.602 143.681 184.057 142.93C183.513 142.179 183.244 141.315 183.25 140.339C183.244 139.411 183.49 138.583 183.986 137.855C184.489 137.122 185.178 136.545 186.054 136.125C186.929 135.705 187.926 135.495 189.044 135.495C190.15 135.495 191.138 135.708 192.007 136.134C192.882 136.554 193.572 137.131 194.074 137.864C194.577 138.592 194.831 139.417 194.837 140.339C194.831 141.315 194.553 142.179 194.003 142.93C193.453 143.681 192.738 144.166 191.856 144.385V144.492C192.536 144.61 193.149 144.888 193.693 145.326C194.243 145.757 194.681 146.299 195.006 146.949C195.337 147.594 195.506 148.301 195.512 149.07C195.506 150.052 195.228 150.927 194.678 151.696C194.128 152.465 193.365 153.068 192.389 153.506C191.419 153.944 190.304 154.162 189.044 154.162ZM189.044 151.918C189.795 151.918 190.446 151.794 190.996 151.545C191.546 151.291 191.972 150.939 192.273 150.489C192.575 150.034 192.729 149.502 192.735 148.892C192.729 148.259 192.563 147.701 192.238 147.215C191.918 146.73 191.484 146.349 190.933 146.071C190.383 145.793 189.753 145.654 189.044 145.654C188.328 145.654 187.692 145.793 187.136 146.071C186.58 146.349 186.142 146.73 185.823 147.215C185.504 147.701 185.347 148.259 185.353 148.892C185.347 149.502 185.492 150.034 185.788 150.489C186.089 150.939 186.518 151.291 187.074 151.545C187.63 151.794 188.287 151.918 189.044 151.918ZM189.044 143.463C189.647 143.463 190.182 143.341 190.65 143.099C191.117 142.856 191.484 142.519 191.75 142.087C192.022 141.656 192.161 141.15 192.167 140.57C192.161 140.002 192.025 139.505 191.759 139.08C191.498 138.654 191.135 138.325 190.667 138.095C190.2 137.858 189.659 137.74 189.044 137.74C188.417 137.74 187.867 137.858 187.393 138.095C186.926 138.325 186.562 138.654 186.302 139.08C186.042 139.505 185.915 140.002 185.921 140.57C185.915 141.15 186.045 141.656 186.311 142.087C186.577 142.519 186.944 142.856 187.411 143.099C187.884 143.341 188.429 143.463 189.044 143.463Z" fill="#0A2540"/>
<path d="M101.099 174.914H98.8916V168.096H101.169C101.837 168.096 102.411 168.232 102.89 168.505C103.369 168.776 103.737 169.166 103.992 169.674C104.249 170.18 104.378 170.787 104.378 171.495C104.378 172.205 104.248 172.816 103.989 173.326C103.731 173.837 103.358 174.229 102.87 174.505C102.382 174.778 101.791 174.914 101.099 174.914ZM99.9204 174.015H101.042C101.562 174.015 101.993 173.918 102.337 173.722C102.681 173.525 102.939 173.239 103.11 172.867C103.281 172.492 103.366 172.034 103.366 171.495C103.366 170.96 103.281 170.506 103.11 170.133C102.941 169.76 102.689 169.477 102.354 169.284C102.019 169.091 101.603 168.995 101.106 168.995H99.9204V174.015ZM108.897 172.793V169.8H109.896V174.914H108.917V174.028H108.864C108.746 174.301 108.557 174.529 108.298 174.711C108.04 174.891 107.719 174.981 107.335 174.981C107.007 174.981 106.716 174.909 106.463 174.764C106.212 174.618 106.015 174.401 105.871 174.115C105.729 173.829 105.657 173.475 105.657 173.053V169.8H106.653V172.933C106.653 173.282 106.749 173.559 106.943 173.765C107.136 173.972 107.386 174.075 107.695 174.075C107.881 174.075 108.067 174.028 108.251 173.935C108.437 173.842 108.592 173.701 108.714 173.512C108.838 173.324 108.899 173.084 108.897 172.793ZM113.517 175.017C113.013 175.017 112.579 174.91 112.215 174.694C111.853 174.477 111.574 174.172 111.376 173.779C111.181 173.384 111.083 172.921 111.083 172.391C111.083 171.867 111.181 171.405 111.376 171.006C111.574 170.606 111.849 170.294 112.202 170.07C112.557 169.846 112.972 169.734 113.447 169.734C113.736 169.734 114.015 169.782 114.286 169.877C114.557 169.972 114.8 170.122 115.015 170.326C115.23 170.531 115.4 170.796 115.524 171.122C115.649 171.446 115.711 171.84 115.711 172.304V172.657H111.646V171.911H114.735C114.735 171.649 114.682 171.417 114.576 171.215C114.469 171.011 114.319 170.85 114.126 170.733C113.935 170.615 113.711 170.556 113.454 170.556C113.174 170.556 112.93 170.625 112.721 170.763C112.515 170.898 112.355 171.076 112.242 171.295C112.131 171.513 112.075 171.749 112.075 172.004V172.587C112.075 172.929 112.135 173.22 112.255 173.459C112.377 173.699 112.547 173.882 112.765 174.009C112.982 174.133 113.236 174.195 113.527 174.195C113.716 174.195 113.888 174.168 114.043 174.115C114.198 174.06 114.333 173.977 114.446 173.869C114.559 173.76 114.646 173.626 114.705 173.466L115.648 173.636C115.572 173.913 115.437 174.156 115.241 174.365C115.048 174.571 114.805 174.732 114.512 174.847C114.222 174.961 113.89 175.017 113.517 175.017ZM119.536 174.914V168.096H123.764V168.981H120.565V171.059H123.461V171.941H120.565V174.914H119.536ZM126.858 175.017C126.354 175.017 125.92 174.91 125.556 174.694C125.195 174.477 124.915 174.172 124.718 173.779C124.522 173.384 124.425 172.921 124.425 172.391C124.425 171.867 124.522 171.405 124.718 171.006C124.915 170.606 125.19 170.294 125.543 170.07C125.898 169.846 126.313 169.734 126.788 169.734C127.077 169.734 127.356 169.782 127.627 169.877C127.898 169.972 128.141 170.122 128.356 170.326C128.572 170.531 128.741 170.796 128.866 171.122C128.99 171.446 129.052 171.84 129.052 172.304V172.657H124.987V171.911H128.077C128.077 171.649 128.023 171.417 127.917 171.215C127.81 171.011 127.661 170.85 127.467 170.733C127.277 170.615 127.052 170.556 126.795 170.556C126.515 170.556 126.271 170.625 126.062 170.763C125.856 170.898 125.696 171.076 125.583 171.295C125.472 171.513 125.417 171.749 125.417 172.004V172.587C125.417 172.929 125.477 173.22 125.596 173.459C125.718 173.699 125.888 173.882 126.106 174.009C126.323 174.133 126.577 174.195 126.868 174.195C127.057 174.195 127.229 174.168 127.384 174.115C127.54 174.06 127.674 173.977 127.787 173.869C127.9 173.76 127.987 173.626 128.047 173.466L128.989 173.636C128.913 173.913 128.778 174.156 128.583 174.365C128.39 174.571 128.147 174.732 127.854 174.847C127.563 174.961 127.231 175.017 126.858 175.017ZM130.316 174.914V168.096H131.312V170.629H131.372C131.43 170.523 131.513 170.4 131.622 170.26C131.73 170.12 131.881 169.998 132.074 169.894C132.267 169.787 132.523 169.734 132.84 169.734C133.253 169.734 133.621 169.838 133.945 170.047C134.269 170.255 134.523 170.556 134.708 170.949C134.894 171.342 134.987 171.815 134.987 172.367C134.987 172.92 134.895 173.394 134.711 173.789C134.527 174.182 134.274 174.485 133.952 174.698C133.63 174.909 133.263 175.014 132.85 175.014C132.539 175.014 132.285 174.962 132.088 174.857C131.892 174.753 131.739 174.631 131.628 174.491C131.517 174.351 131.432 174.227 131.372 174.118H131.289V174.914H130.316ZM131.292 172.357C131.292 172.717 131.344 173.032 131.448 173.303C131.553 173.574 131.704 173.785 131.901 173.939C132.099 174.09 132.341 174.165 132.627 174.165C132.924 174.165 133.173 174.086 133.373 173.929C133.572 173.769 133.723 173.552 133.825 173.279C133.93 173.006 133.982 172.699 133.982 172.357C133.982 172.02 133.931 171.717 133.829 171.448C133.729 171.18 133.578 170.968 133.376 170.812C133.176 170.657 132.927 170.579 132.627 170.579C132.338 170.579 132.094 170.654 131.895 170.803C131.697 170.951 131.547 171.159 131.445 171.425C131.343 171.691 131.292 172.002 131.292 172.357ZM141.32 168.096V174.914H140.288V169.128H140.248L138.616 170.193V169.208L140.318 168.096H141.32ZM145.511 168.003C145.815 168.005 146.115 168.06 146.41 168.169C146.705 168.278 146.972 168.455 147.209 168.702C147.449 168.948 147.64 169.281 147.782 169.701C147.926 170.118 147.999 170.637 148.001 171.259C148.001 171.856 147.942 172.387 147.822 172.853C147.702 173.317 147.53 173.709 147.306 174.028C147.084 174.348 146.814 174.591 146.497 174.758C146.179 174.924 145.822 175.007 145.425 175.007C145.018 175.007 144.658 174.927 144.343 174.768C144.027 174.608 143.771 174.387 143.574 174.105C143.376 173.821 143.253 173.495 143.204 173.126H144.219C144.286 173.419 144.421 173.657 144.626 173.839C144.832 174.019 145.098 174.108 145.425 174.108C145.924 174.108 146.314 173.891 146.593 173.456C146.873 173.019 147.014 172.408 147.016 171.625H146.963C146.847 171.816 146.703 171.98 146.53 172.118C146.359 172.255 146.167 172.362 145.954 172.437C145.741 172.513 145.513 172.55 145.271 172.55C144.879 172.55 144.521 172.454 144.199 172.261C143.878 172.068 143.621 171.802 143.43 171.465C143.24 171.128 143.144 170.743 143.144 170.31C143.144 169.879 143.242 169.489 143.437 169.138C143.635 168.787 143.91 168.51 144.263 168.306C144.618 168.099 145.034 167.998 145.511 168.003ZM145.515 168.868C145.255 168.868 145.021 168.933 144.812 169.061C144.606 169.188 144.443 169.36 144.323 169.577C144.203 169.793 144.143 170.032 144.143 170.296C144.143 170.561 144.201 170.8 144.316 171.016C144.434 171.229 144.593 171.398 144.795 171.525C145 171.649 145.233 171.711 145.495 171.711C145.69 171.711 145.872 171.674 146.041 171.598C146.209 171.523 146.357 171.418 146.483 171.285C146.61 171.15 146.709 170.997 146.78 170.826C146.851 170.655 146.886 170.475 146.886 170.286C146.886 170.036 146.826 169.803 146.706 169.587C146.589 169.372 146.427 169.199 146.22 169.068C146.014 168.935 145.779 168.868 145.515 168.868Z" fill="#727F96"/>
<mask id="mask0_4003_3463" style="mask-type:luminance" maskUnits="userSpaceOnUse" x="340" y="123" width="61" height="71">
<path d="M340.143 123.914H400.143V193.914H340.143V123.914Z" fill="white"/>
</mask>
<g mask="url(#mask0_4003_3463)">
<path d="M387.765 127.914H347.226C345.523 127.914 344.143 129.294 344.143 130.997V182.525C344.143 184.228 345.523 185.608 347.226 185.608H387.765C389.467 185.608 390.848 184.228 390.848 182.525V130.997C390.848 129.294 389.467 127.914 387.765 127.914Z" fill="white"/>
<path d="M357.881 138.902C357.881 136.626 356.036 134.781 353.76 134.781C351.484 134.781 349.639 136.626 349.639 138.902C349.639 141.178 351.484 143.023 353.76 143.023C356.036 143.023 357.881 141.178 357.881 138.902Z" fill="#E7ECF1"/>
<path d="M371.615 137.529H363.374C362.615 137.529 362 138.144 362 138.903C362 139.661 362.615 140.276 363.374 140.276H371.615C372.374 140.276 372.989 139.661 372.989 138.903C372.989 138.144 372.374 137.529 371.615 137.529Z" fill="#E7ECF1"/>
<path d="M356.507 149.893H351.013C350.254 149.893 349.639 150.508 349.639 151.266C349.639 152.025 350.254 152.64 351.013 152.64H356.507C357.266 152.64 357.881 152.025 357.881 151.266C357.881 150.508 357.266 149.893 356.507 149.893Z" fill="#E7ECF1"/>
<path d="M356.507 156.762H351.013C350.254 156.762 349.639 157.377 349.639 158.135C349.639 158.894 350.254 159.509 351.013 159.509H356.507C357.266 159.509 357.881 158.894 357.881 158.135C357.881 157.377 357.266 156.762 356.507 156.762Z" fill="#E7ECF1"/>
<path d="M383.979 174.619H378.485C377.726 174.619 377.111 175.234 377.111 175.993C377.111 176.751 377.726 177.366 378.485 177.366H383.979C384.738 177.366 385.353 176.751 385.353 175.993C385.353 175.234 384.738 174.619 383.979 174.619Z" fill="#E7ECF1"/>
<path d="M375.736 149.893H363.374C362.615 149.893 362 150.508 362 151.266C362 152.025 362.615 152.64 363.374 152.64H375.736C376.495 152.64 377.11 152.025 377.11 151.266C377.11 150.508 376.495 149.893 375.736 149.893Z" fill="#E7ECF1"/>
<path d="M375.736 156.762H363.374C362.615 156.762 362 157.377 362 158.135C362 158.894 362.615 159.509 363.374 159.509H375.736C376.495 159.509 377.11 158.894 377.11 158.135C377.11 157.377 376.495 156.762 375.736 156.762Z" fill="#E7ECF1"/>
<path d="M370.244 174.619H351.013C350.254 174.619 349.639 175.234 349.639 175.993C349.639 176.751 350.254 177.366 351.013 177.366H370.244C371.003 177.366 371.618 176.751 371.618 175.993C371.618 175.234 371.003 174.619 370.244 174.619Z" fill="#E7ECF1"/>
<path d="M383.98 167.752H351.013C350.254 167.752 349.639 168.367 349.639 169.125C349.639 169.884 350.254 170.499 351.013 170.499H383.98C384.739 170.499 385.354 169.884 385.354 169.125C385.354 168.367 384.739 167.752 383.98 167.752Z" fill="#E7ECF1"/>
<path d="M398.102 184.186C398.102 179.077 393.96 174.936 388.852 174.936C383.743 174.936 379.602 179.077 379.602 184.186C379.602 189.294 383.743 193.436 388.852 193.436C393.96 193.436 398.102 189.294 398.102 184.186Z" fill="white"/>
<path fill-rule="evenodd" clip-rule="evenodd" d="M389.43 186.833L392.084 184.179C392.138 184.125 392.201 184.083 392.272 184.054C392.342 184.024 392.417 184.009 392.493 184.009C392.569 184.009 392.645 184.024 392.715 184.054C392.785 184.083 392.849 184.125 392.903 184.179C392.957 184.233 392.999 184.297 393.028 184.367C393.057 184.437 393.072 184.513 393.072 184.589C393.072 184.665 393.057 184.74 393.028 184.81C392.999 184.88 392.957 184.944 392.903 184.998L389.261 188.64C389.207 188.694 389.143 188.737 389.073 188.766C389.003 188.795 388.928 188.81 388.852 188.81C388.776 188.81 388.701 188.795 388.63 188.766C388.56 188.737 388.496 188.694 388.443 188.64L384.801 184.998C384.744 184.945 384.699 184.881 384.668 184.81C384.637 184.739 384.62 184.663 384.619 184.586C384.618 184.508 384.632 184.431 384.662 184.36C384.691 184.288 384.734 184.223 384.788 184.168C384.843 184.113 384.908 184.07 384.98 184.041C385.052 184.011 385.129 183.997 385.206 183.998C385.283 183.999 385.36 184.016 385.431 184.047C385.502 184.078 385.566 184.123 385.619 184.179L388.273 186.834V180.137C388.273 179.984 388.334 179.837 388.442 179.728C388.551 179.62 388.698 179.559 388.851 179.559C389.005 179.559 389.152 179.62 389.26 179.728C389.369 179.837 389.43 179.984 389.43 180.137V186.834V186.833Z" fill="#727F96"/>
</g>
<path d="M100.542 204.179V203.323H105.643V204.179H103.586V209.914H102.595V204.179H100.542ZM108.138 210.014C107.674 210.014 107.27 209.908 106.925 209.695C106.579 209.483 106.311 209.186 106.12 208.804C105.929 208.422 105.834 207.976 105.834 207.465C105.834 206.952 105.929 206.504 106.12 206.12C106.311 205.736 106.579 205.438 106.925 205.225C107.27 205.013 107.674 204.907 108.138 204.907C108.601 204.907 109.006 205.013 109.351 205.225C109.696 205.438 109.965 205.736 110.156 206.12C110.347 206.504 110.442 206.952 110.442 207.465C110.442 207.976 110.347 208.422 110.156 208.804C109.965 209.186 109.696 209.483 109.351 209.695C109.006 209.908 108.601 210.014 108.138 210.014ZM108.141 209.206C108.441 209.206 108.69 209.127 108.888 208.968C109.085 208.809 109.231 208.598 109.325 208.334C109.422 208.07 109.47 207.779 109.47 207.462C109.47 207.146 109.422 206.857 109.325 206.593C109.231 206.327 109.085 206.113 108.888 205.952C108.69 205.792 108.441 205.711 108.141 205.711C107.838 205.711 107.587 205.792 107.388 205.952C107.191 206.113 107.044 206.327 106.947 206.593C106.853 206.857 106.805 207.146 106.805 207.462C106.805 207.779 106.853 208.07 106.947 208.334C107.044 208.598 107.191 208.809 107.388 208.968C107.587 209.127 107.838 209.206 108.141 209.206Z" fill="#727F96"/>
<path d="M153.428 203.323H154.42V207.996C154.42 208.419 154.336 208.78 154.169 209.081C154.003 209.381 153.771 209.61 153.47 209.769C153.17 209.926 152.818 210.004 152.415 210.004C152.043 210.004 151.71 209.937 151.414 209.801C151.12 209.666 150.887 209.47 150.715 209.212C150.546 208.953 150.461 208.638 150.461 208.266H151.449C151.449 208.449 151.491 208.606 151.575 208.739C151.661 208.872 151.777 208.976 151.925 209.052C152.076 209.125 152.247 209.161 152.44 209.161C152.651 209.161 152.829 209.117 152.975 209.029C153.123 208.939 153.235 208.807 153.313 208.633C153.39 208.459 153.428 208.247 153.428 207.996V203.323ZM158 210.014C157.513 210.014 157.094 209.91 156.742 209.702C156.392 209.491 156.122 209.196 155.931 208.817C155.742 208.435 155.648 207.987 155.648 207.475C155.648 206.968 155.742 206.522 155.931 206.136C156.122 205.75 156.388 205.448 156.729 205.232C157.072 205.015 157.473 204.907 157.933 204.907C158.212 204.907 158.482 204.953 158.744 205.045C159.005 205.137 159.24 205.282 159.448 205.479C159.657 205.677 159.821 205.933 159.941 206.249C160.061 206.562 160.121 206.943 160.121 207.391V207.732H156.192V207.011H159.178C159.178 206.758 159.127 206.534 159.024 206.339C158.921 206.141 158.776 205.986 158.589 205.872C158.405 205.758 158.188 205.701 157.939 205.701C157.669 205.701 157.433 205.768 157.231 205.901C157.032 206.032 156.877 206.203 156.768 206.416C156.66 206.626 156.607 206.855 156.607 207.101V207.665C156.607 207.995 156.665 208.276 156.781 208.508C156.899 208.739 157.063 208.916 157.273 209.039C157.483 209.159 157.729 209.219 158.01 209.219C158.192 209.219 158.358 209.193 158.509 209.142C158.659 209.088 158.789 209.009 158.898 208.904C159.008 208.798 159.091 208.669 159.149 208.514L160.06 208.678C159.987 208.946 159.856 209.181 159.667 209.383C159.481 209.583 159.246 209.738 158.962 209.85C158.681 209.959 158.361 210.014 158 210.014ZM162.231 206.979V209.914H161.269V204.971H162.192V205.775H162.253C162.367 205.514 162.545 205.303 162.788 205.145C163.032 204.986 163.34 204.907 163.711 204.907C164.048 204.907 164.343 204.977 164.596 205.119C164.849 205.258 165.046 205.466 165.185 205.743C165.325 206.02 165.394 206.362 165.394 206.77V209.914H164.432V206.886C164.432 206.527 164.339 206.247 164.152 206.046C163.966 205.842 163.709 205.74 163.383 205.74C163.16 205.74 162.961 205.788 162.788 205.885C162.616 205.981 162.48 206.123 162.379 206.31C162.28 206.494 162.231 206.717 162.231 206.979ZM167.727 206.979V209.914H166.765V204.971H167.689V205.775H167.75C167.863 205.514 168.041 205.303 168.284 205.145C168.528 204.986 168.836 204.907 169.208 204.907C169.544 204.907 169.839 204.977 170.093 205.119C170.346 205.258 170.542 205.466 170.681 205.743C170.821 206.02 170.891 206.362 170.891 206.77V209.914H169.928V206.886C169.928 206.527 169.835 206.247 169.648 206.046C169.462 205.842 169.205 205.74 168.879 205.74C168.656 205.74 168.458 205.788 168.284 205.885C168.112 205.981 167.976 206.123 167.875 206.31C167.777 206.494 167.727 206.717 167.727 206.979ZM172.692 211.768C172.549 211.768 172.418 211.756 172.3 211.732C172.182 211.711 172.094 211.687 172.036 211.662L172.268 210.873C172.444 210.92 172.6 210.941 172.737 210.934C172.875 210.928 172.996 210.876 173.101 210.78C173.208 210.683 173.303 210.526 173.384 210.307L173.503 209.978L171.695 204.971H172.725L173.976 208.807H174.028L175.28 204.971H176.313L174.276 210.574C174.181 210.831 174.061 211.049 173.915 211.227C173.769 211.407 173.596 211.542 173.394 211.633C173.192 211.723 172.958 211.768 172.692 211.768ZM179.853 209.914V203.323H182.202C182.713 203.323 183.136 203.411 183.473 203.587C183.812 203.763 184.065 204.006 184.233 204.318C184.4 204.627 184.484 204.984 184.484 205.389C184.484 205.793 184.399 206.148 184.23 206.454C184.062 206.759 183.809 206.996 183.47 207.166C183.133 207.335 182.71 207.42 182.199 207.42H180.419V206.564H182.109C182.431 206.564 182.692 206.518 182.894 206.426C183.098 206.333 183.247 206.199 183.341 206.023C183.436 205.847 183.483 205.636 183.483 205.389C183.483 205.14 183.435 204.925 183.338 204.742C183.244 204.56 183.095 204.421 182.891 204.324C182.689 204.225 182.424 204.176 182.096 204.176H180.847V209.914H179.853ZM183.106 206.94L184.735 209.914H183.602L182.006 206.94H183.106ZM187.717 210.014C187.253 210.014 186.849 209.908 186.504 209.695C186.158 209.483 185.89 209.186 185.699 208.804C185.508 208.422 185.413 207.976 185.413 207.465C185.413 206.952 185.508 206.504 185.699 206.12C185.89 205.736 186.158 205.438 186.504 205.225C186.849 205.013 187.253 204.907 187.717 204.907C188.18 204.907 188.585 205.013 188.93 205.225C189.276 205.438 189.544 205.736 189.735 206.12C189.926 206.504 190.021 206.952 190.021 207.465C190.021 207.976 189.926 208.422 189.735 208.804C189.544 209.186 189.276 209.483 188.93 209.695C188.585 209.908 188.18 210.014 187.717 210.014ZM187.72 209.206C188.02 209.206 188.269 209.127 188.467 208.968C188.664 208.809 188.81 208.598 188.904 208.334C189.001 208.07 189.049 207.779 189.049 207.462C189.049 207.146 189.001 206.857 188.904 206.593C188.81 206.327 188.664 206.113 188.467 205.952C188.269 205.792 188.02 205.711 187.72 205.711C187.418 205.711 187.167 205.792 186.967 205.952C186.77 206.113 186.623 206.327 186.526 206.593C186.432 206.857 186.385 207.146 186.385 207.462C186.385 207.779 186.432 208.07 186.526 208.334C186.623 208.598 186.77 208.809 186.967 208.968C187.167 209.127 187.418 209.206 187.72 209.206ZM194.879 206.178L194.007 206.332C193.971 206.221 193.913 206.114 193.833 206.014C193.756 205.913 193.651 205.83 193.518 205.766C193.385 205.701 193.219 205.669 193.019 205.669C192.747 205.669 192.519 205.73 192.337 205.853C192.155 205.973 192.063 206.128 192.063 206.319C192.063 206.485 192.125 206.618 192.247 206.718C192.369 206.819 192.567 206.902 192.839 206.966L193.624 207.146C194.079 207.252 194.418 207.414 194.641 207.632C194.864 207.851 194.976 208.135 194.976 208.485C194.976 208.781 194.89 209.045 194.718 209.277C194.549 209.506 194.312 209.687 194.007 209.818C193.705 209.948 193.354 210.014 192.955 210.014C192.401 210.014 191.95 209.896 191.6 209.66C191.25 209.422 191.036 209.084 190.956 208.646L191.886 208.504C191.944 208.747 192.063 208.93 192.244 209.055C192.424 209.177 192.659 209.238 192.948 209.238C193.264 209.238 193.516 209.173 193.705 209.042C193.894 208.909 193.988 208.747 193.988 208.556C193.988 208.402 193.93 208.272 193.814 208.167C193.7 208.061 193.526 207.982 193.29 207.928L192.453 207.745C191.992 207.64 191.65 207.473 191.429 207.243C191.211 207.013 191.101 206.723 191.101 206.371C191.101 206.079 191.183 205.824 191.346 205.605C191.509 205.386 191.734 205.215 192.022 205.093C192.309 204.969 192.638 204.907 193.01 204.907C193.544 204.907 193.964 205.022 194.271 205.254C194.578 205.484 194.781 205.792 194.879 206.178ZM198.244 210.014C197.757 210.014 197.338 209.91 196.986 209.702C196.636 209.491 196.366 209.196 196.175 208.817C195.986 208.435 195.892 207.987 195.892 207.475C195.892 206.968 195.986 206.522 196.175 206.136C196.366 205.75 196.632 205.448 196.973 205.232C197.316 205.015 197.718 204.907 198.177 204.907C198.456 204.907 198.726 204.953 198.988 205.045C199.25 205.137 199.484 205.282 199.693 205.479C199.901 205.677 200.065 205.933 200.185 206.249C200.305 206.562 200.365 206.943 200.365 207.391V207.732H196.436V207.011H199.422C199.422 206.758 199.371 206.534 199.268 206.339C199.165 206.141 199.02 205.986 198.833 205.872C198.649 205.758 198.432 205.701 198.183 205.701C197.913 205.701 197.677 205.768 197.475 205.901C197.276 206.032 197.121 206.203 197.012 206.416C196.905 206.626 196.851 206.855 196.851 207.101V207.665C196.851 207.995 196.909 208.276 197.025 208.508C197.143 208.739 197.307 208.916 197.517 209.039C197.727 209.159 197.973 209.219 198.254 209.219C198.436 209.219 198.603 209.193 198.753 209.142C198.903 209.088 199.033 209.009 199.142 208.904C199.252 208.798 199.335 208.669 199.393 208.514L200.304 208.678C200.231 208.946 200.1 209.181 199.911 209.383C199.725 209.583 199.49 209.738 199.207 209.85C198.926 209.959 198.605 210.014 198.244 210.014ZM202.475 206.979V209.914H201.513V204.971H202.436V205.775H202.498C202.611 205.514 202.789 205.303 203.032 205.145C203.276 204.986 203.584 204.907 203.955 204.907C204.292 204.907 204.587 204.977 204.84 205.119C205.094 205.258 205.29 205.466 205.429 205.743C205.569 206.02 205.639 206.362 205.639 206.77V209.914H204.676V206.886C204.676 206.527 204.583 206.247 204.396 206.046C204.21 205.842 203.953 205.74 203.627 205.74C203.404 205.74 203.206 205.788 203.032 205.885C202.86 205.981 202.724 206.123 202.623 206.31C202.524 206.494 202.475 206.717 202.475 206.979Z" fill="#0A2540"/>
<path d="M100.867 226.914V220.323H104.954V221.179H101.861V223.187H104.661V224.04H101.861V226.914H100.867ZM106.118 226.914V221.971H107.048V222.756H107.099C107.189 222.49 107.348 222.281 107.575 222.129C107.805 221.974 108.065 221.897 108.354 221.897C108.414 221.897 108.485 221.899 108.567 221.903C108.65 221.908 108.716 221.913 108.763 221.919V222.84C108.724 222.829 108.656 222.817 108.557 222.804C108.458 222.789 108.36 222.782 108.261 222.782C108.033 222.782 107.831 222.83 107.653 222.927C107.477 223.021 107.337 223.153 107.234 223.323C107.131 223.49 107.08 223.681 107.08 223.895V226.914H106.118ZM111.581 227.014C111.117 227.014 110.713 226.908 110.368 226.695C110.022 226.483 109.754 226.186 109.563 225.804C109.372 225.422 109.277 224.976 109.277 224.465C109.277 223.952 109.372 223.504 109.563 223.12C109.754 222.736 110.022 222.438 110.368 222.225C110.713 222.013 111.117 221.907 111.581 221.907C112.044 221.907 112.449 222.013 112.794 222.225C113.14 222.438 113.408 222.736 113.599 223.12C113.79 223.504 113.885 223.952 113.885 224.465C113.885 224.976 113.79 225.422 113.599 225.804C113.408 226.186 113.14 226.483 112.794 226.695C112.449 226.908 112.044 227.014 111.581 227.014ZM111.584 226.206C111.884 226.206 112.133 226.127 112.331 225.968C112.528 225.809 112.674 225.598 112.768 225.334C112.865 225.07 112.913 224.779 112.913 224.462C112.913 224.146 112.865 223.857 112.768 223.593C112.674 223.327 112.528 223.113 112.331 222.952C112.133 222.792 111.884 222.711 111.584 222.711C111.282 222.711 111.031 222.792 110.831 222.952C110.634 223.113 110.487 223.327 110.39 223.593C110.296 223.857 110.248 224.146 110.248 224.462C110.248 224.779 110.296 225.07 110.39 225.334C110.487 225.598 110.634 225.809 110.831 225.968C111.031 226.127 111.282 226.206 111.584 226.206ZM115.039 226.914V221.971H115.963V222.775H116.024C116.127 222.503 116.295 222.291 116.529 222.138C116.763 221.984 117.043 221.907 117.369 221.907C117.7 221.907 117.976 221.984 118.199 222.138C118.425 222.293 118.591 222.505 118.698 222.775H118.75C118.868 222.512 119.055 222.301 119.313 222.145C119.57 221.986 119.877 221.907 120.233 221.907C120.682 221.907 121.048 222.047 121.331 222.328C121.616 222.609 121.759 223.033 121.759 223.599V226.914H120.797V223.689C120.797 223.355 120.705 223.112 120.523 222.962C120.341 222.812 120.123 222.737 119.87 222.737C119.556 222.737 119.313 222.833 119.139 223.026C118.965 223.217 118.878 223.463 118.878 223.763V226.914H117.919V223.628C117.919 223.36 117.836 223.144 117.668 222.981C117.501 222.818 117.283 222.737 117.015 222.737C116.833 222.737 116.664 222.785 116.51 222.882C116.358 222.976 116.234 223.108 116.14 223.277C116.048 223.447 116.001 223.643 116.001 223.866V226.914H115.039Z" fill="#727F96"/>
<path d="M150.879 226.914V220.21H153.269C153.791 220.21 154.223 220.304 154.565 220.494C154.908 220.684 155.164 220.944 155.335 221.273C155.505 221.601 155.59 221.97 155.59 222.38C155.59 222.792 155.504 223.163 155.331 223.493C155.161 223.82 154.904 224.08 154.559 224.272C154.216 224.462 153.785 224.557 153.266 224.557H151.622V223.699H153.174C153.504 223.699 153.771 223.643 153.976 223.529C154.181 223.413 154.332 223.256 154.428 223.058C154.524 222.859 154.572 222.633 154.572 222.38C154.572 222.127 154.524 221.902 154.428 221.706C154.332 221.509 154.18 221.355 153.973 221.244C153.768 221.133 153.497 221.077 153.161 221.077H151.891V226.914H150.879ZM158.832 227.016C158.361 227.016 157.95 226.908 157.598 226.691C157.247 226.475 156.974 226.173 156.78 225.785C156.586 225.396 156.488 224.942 156.488 224.423C156.488 223.901 156.586 223.445 156.78 223.054C156.974 222.664 157.247 222.36 157.598 222.144C157.95 221.928 158.361 221.82 158.832 221.82C159.304 221.82 159.715 221.928 160.067 222.144C160.418 222.36 160.691 222.664 160.885 223.054C161.079 223.445 161.176 223.901 161.176 224.423C161.176 224.942 161.079 225.396 160.885 225.785C160.691 226.173 160.418 226.475 160.067 226.691C159.715 226.908 159.304 227.016 158.832 227.016ZM158.836 226.194C159.141 226.194 159.394 226.113 159.595 225.952C159.796 225.79 159.944 225.575 160.04 225.307C160.139 225.038 160.188 224.743 160.188 224.42C160.188 224.099 160.139 223.804 160.04 223.536C159.944 223.265 159.796 223.048 159.595 222.884C159.394 222.72 159.141 222.639 158.836 222.639C158.528 222.639 158.273 222.72 158.07 222.884C157.869 223.048 157.719 223.265 157.621 223.536C157.525 223.804 157.477 224.099 157.477 224.42C157.477 224.743 157.525 225.038 157.621 225.307C157.719 225.575 157.869 225.79 158.07 225.952C158.273 226.113 158.528 226.194 158.836 226.194ZM163.286 226.914L161.806 221.886H162.818L163.803 225.578H163.852L164.841 221.886H165.853L166.835 225.562H166.884L167.863 221.886H168.874L167.398 226.914H166.399L165.378 223.284H165.303L164.281 226.914H163.286ZM171.613 227.012C171.207 227.012 170.844 226.909 170.526 226.701C170.209 226.492 169.96 226.194 169.779 225.808C169.6 225.419 169.511 224.953 169.511 224.41C169.511 223.866 169.601 223.401 169.783 223.015C169.966 222.629 170.217 222.333 170.535 222.128C170.854 221.923 171.215 221.82 171.619 221.82C171.931 221.82 172.182 221.873 172.372 221.977C172.564 222.08 172.713 222.2 172.817 222.337C172.924 222.475 173.007 222.596 173.066 222.701H173.125V220.21H174.104V226.914H173.148V226.132H173.066C173.007 226.239 172.922 226.361 172.811 226.498C172.702 226.636 172.551 226.756 172.359 226.858C172.167 226.961 171.918 227.012 171.613 227.012ZM171.829 226.177C172.11 226.177 172.348 226.103 172.542 225.955C172.739 225.804 172.887 225.596 172.988 225.33C173.09 225.063 173.141 224.753 173.141 224.4C173.141 224.051 173.091 223.745 172.991 223.483C172.89 223.221 172.743 223.017 172.549 222.871C172.355 222.725 172.115 222.652 171.829 222.652C171.534 222.652 171.288 222.728 171.092 222.881C170.896 223.034 170.747 223.242 170.647 223.506C170.549 223.77 170.499 224.068 170.499 224.4C170.499 224.736 170.55 225.038 170.65 225.307C170.75 225.575 170.899 225.788 171.095 225.945C171.294 226.1 171.538 226.177 171.829 226.177ZM178.766 224.829V221.886H179.748V226.914H178.786V226.043H178.733C178.618 226.312 178.432 226.535 178.177 226.714C177.924 226.891 177.608 226.98 177.231 226.98C176.908 226.98 176.622 226.909 176.373 226.767C176.127 226.623 175.932 226.41 175.79 226.128C175.651 225.847 175.581 225.499 175.581 225.084V221.886H176.56V224.966C176.56 225.309 176.655 225.582 176.845 225.785C177.034 225.988 177.281 226.089 177.584 226.089C177.768 226.089 177.95 226.043 178.131 225.952C178.314 225.86 178.466 225.721 178.586 225.536C178.708 225.35 178.768 225.115 178.766 224.829ZM181.144 226.914V221.886H182.09V222.684H182.142C182.234 222.414 182.395 222.201 182.627 222.046C182.86 221.889 183.124 221.81 183.419 221.81C183.48 221.81 183.552 221.813 183.635 221.817C183.72 221.821 183.786 221.827 183.835 221.833V222.77C183.795 222.759 183.725 222.747 183.625 222.734C183.525 222.718 183.424 222.711 183.324 222.711C183.092 222.711 182.886 222.76 182.705 222.858C182.526 222.954 182.384 223.088 182.279 223.261C182.175 223.431 182.122 223.625 182.122 223.843V226.914H181.144Z" fill="#0A2540"/>
<path d="M100.904 236.982H102.173L104.38 242.371H104.461L106.668 236.982H107.937V243.914H106.942V238.898H106.878L104.834 243.904H104.008L101.964 238.895H101.899V243.914H100.904V236.982ZM111.697 244.019C111.185 244.019 110.744 243.91 110.374 243.691C110.006 243.47 109.722 243.159 109.521 242.76C109.323 242.358 109.223 241.888 109.223 241.348C109.223 240.816 109.323 240.347 109.521 239.94C109.722 239.534 110.002 239.217 110.361 238.989C110.722 238.761 111.144 238.648 111.626 238.648C111.92 238.648 112.204 238.696 112.479 238.793C112.755 238.89 113.002 239.042 113.221 239.25C113.439 239.458 113.612 239.727 113.738 240.059C113.865 240.388 113.928 240.789 113.928 241.26V241.619H109.795V240.861H112.936C112.936 240.595 112.882 240.359 112.774 240.154C112.665 239.946 112.513 239.783 112.317 239.663C112.123 239.543 111.895 239.484 111.633 239.484C111.349 239.484 111.101 239.553 110.889 239.693C110.679 239.831 110.516 240.012 110.401 240.235C110.288 240.456 110.232 240.696 110.232 240.956V241.548C110.232 241.896 110.293 242.191 110.415 242.435C110.539 242.679 110.711 242.865 110.933 242.993C111.154 243.12 111.412 243.183 111.708 243.183C111.899 243.183 112.074 243.156 112.232 243.102C112.39 243.045 112.527 242.962 112.642 242.851C112.757 242.741 112.845 242.604 112.906 242.442L113.864 242.614C113.787 242.896 113.649 243.143 113.451 243.356C113.254 243.565 113.007 243.729 112.709 243.846C112.414 243.961 112.077 244.019 111.697 244.019ZM115.131 243.914V238.715H116.102V239.561H116.167C116.275 239.275 116.452 239.051 116.698 238.891C116.944 238.729 117.238 238.648 117.581 238.648C117.929 238.648 118.22 238.729 118.455 238.891C118.692 239.054 118.866 239.277 118.979 239.561H119.033C119.157 239.284 119.355 239.063 119.626 238.898C119.896 238.731 120.219 238.648 120.594 238.648C121.065 238.648 121.45 238.795 121.748 239.091C122.048 239.386 122.198 239.832 122.198 240.428V243.914H121.186V240.523C121.186 240.171 121.09 239.916 120.898 239.758C120.707 239.6 120.478 239.521 120.211 239.521C119.882 239.521 119.626 239.622 119.443 239.825C119.26 240.026 119.169 240.285 119.169 240.6V243.914H118.16V240.458C118.16 240.176 118.072 239.949 117.896 239.778C117.72 239.606 117.491 239.521 117.209 239.521C117.017 239.521 116.84 239.572 116.678 239.673C116.517 239.772 116.388 239.911 116.288 240.089C116.191 240.268 116.143 240.474 116.143 240.709V243.914H115.131ZM125.824 244.019C125.337 244.019 124.912 243.907 124.548 243.684C124.185 243.461 123.903 243.148 123.702 242.746C123.501 242.345 123.401 241.875 123.401 241.338C123.401 240.799 123.501 240.327 123.702 239.924C123.903 239.52 124.185 239.206 124.548 238.983C124.912 238.759 125.337 238.648 125.824 238.648C126.312 238.648 126.737 238.759 127.1 238.983C127.464 239.206 127.746 239.52 127.947 239.924C128.147 240.327 128.248 240.799 128.248 241.338C128.248 241.875 128.147 242.345 127.947 242.746C127.746 243.148 127.464 243.461 127.1 243.684C126.737 243.907 126.312 244.019 125.824 244.019ZM125.828 243.169C126.144 243.169 126.405 243.086 126.613 242.919C126.821 242.752 126.974 242.53 127.073 242.252C127.175 241.975 127.226 241.669 127.226 241.335C127.226 241.003 127.175 240.699 127.073 240.421C126.974 240.141 126.821 239.917 126.613 239.748C126.405 239.578 126.144 239.494 125.828 239.494C125.51 239.494 125.246 239.578 125.036 239.748C124.828 239.917 124.674 240.141 124.572 240.421C124.473 240.699 124.423 241.003 124.423 241.335C124.423 241.669 124.473 241.975 124.572 242.252C124.674 242.53 124.828 242.752 125.036 242.919C125.246 243.086 125.51 243.169 125.828 243.169Z" fill="#727F96"/>
<path d="M156.186 237.323V243.914H155.272L151.922 239.08H151.861V243.914H150.867V237.323H151.787L155.14 242.163H155.202V237.323H156.186ZM159.722 244.014C159.259 244.014 158.854 243.908 158.509 243.695C158.163 243.483 157.895 243.186 157.704 242.804C157.513 242.422 157.418 241.976 157.418 241.465C157.418 240.952 157.513 240.504 157.704 240.12C157.895 239.736 158.163 239.438 158.509 239.225C158.854 239.013 159.259 238.907 159.722 238.907C160.185 238.907 160.59 239.013 160.935 239.225C161.281 239.438 161.549 239.736 161.74 240.12C161.931 240.504 162.026 240.952 162.026 241.465C162.026 241.976 161.931 242.422 161.74 242.804C161.549 243.186 161.281 243.483 160.935 243.695C160.59 243.908 160.185 244.014 159.722 244.014ZM159.725 243.206C160.026 243.206 160.274 243.127 160.472 242.968C160.669 242.809 160.815 242.598 160.909 242.334C161.006 242.07 161.054 241.779 161.054 241.462C161.054 241.146 161.006 240.857 160.909 240.593C160.815 240.327 160.669 240.113 160.472 239.952C160.274 239.792 160.026 239.711 159.725 239.711C159.423 239.711 159.172 239.792 158.972 239.952C158.775 240.113 158.628 240.327 158.531 240.593C158.437 240.857 158.39 241.146 158.39 241.462C158.39 241.779 158.437 242.07 158.531 242.334C158.628 242.598 158.775 242.809 158.972 242.968C159.172 243.127 159.423 243.206 159.725 243.206ZM165.488 238.971V239.743H162.788V238.971H165.488ZM163.512 237.787H164.474V242.463C164.474 242.649 164.502 242.79 164.558 242.884C164.613 242.976 164.685 243.04 164.773 243.074C164.863 243.106 164.961 243.122 165.066 243.122C165.143 243.122 165.211 243.117 165.269 243.106C165.327 243.096 165.372 243.087 165.404 243.081L165.578 243.875C165.522 243.897 165.443 243.918 165.34 243.94C165.237 243.963 165.108 243.976 164.954 243.978C164.7 243.983 164.464 243.938 164.246 243.843C164.027 243.749 163.85 243.603 163.714 243.406C163.579 243.208 163.512 242.96 163.512 242.662V237.787ZM168.71 244.014C168.222 244.014 167.803 243.91 167.451 243.702C167.101 243.491 166.831 243.196 166.64 242.817C166.451 242.435 166.357 241.987 166.357 241.475C166.357 240.968 166.451 240.522 166.64 240.136C166.831 239.75 167.097 239.448 167.438 239.232C167.782 239.015 168.183 238.907 168.642 238.907C168.921 238.907 169.191 238.953 169.453 239.045C169.715 239.137 169.95 239.282 170.158 239.479C170.366 239.677 170.53 239.933 170.65 240.249C170.77 240.562 170.83 240.943 170.83 241.391V241.732H166.901V241.011H169.887C169.887 240.758 169.836 240.534 169.733 240.339C169.63 240.141 169.485 239.986 169.298 239.872C169.114 239.758 168.897 239.701 168.648 239.701C168.378 239.701 168.142 239.768 167.94 239.901C167.741 240.032 167.586 240.203 167.477 240.416C167.37 240.626 167.316 240.855 167.316 241.101V241.665C167.316 241.995 167.374 242.276 167.49 242.508C167.608 242.739 167.772 242.916 167.982 243.039C168.192 243.159 168.438 243.219 168.719 243.219C168.902 243.219 169.068 243.193 169.218 243.142C169.368 243.088 169.498 243.009 169.607 242.904C169.717 242.798 169.8 242.669 169.858 242.514L170.769 242.678C170.696 242.946 170.565 243.181 170.377 243.383C170.19 243.583 169.955 243.738 169.672 243.85C169.391 243.959 169.07 244.014 168.71 244.014ZM176.764 238.971V239.743H174.064V238.971H176.764ZM174.788 237.787H175.75V242.463C175.75 242.649 175.778 242.79 175.834 242.884C175.89 242.976 175.961 243.04 176.049 243.074C176.139 243.106 176.237 243.122 176.342 243.122C176.419 243.122 176.487 243.117 176.545 243.106C176.603 243.096 176.648 243.087 176.68 243.081L176.854 243.875C176.798 243.897 176.719 243.918 176.616 243.94C176.513 243.963 176.384 243.976 176.23 243.978C175.976 243.983 175.74 243.938 175.522 243.843C175.303 243.749 175.126 243.603 174.991 243.406C174.855 243.208 174.788 242.96 174.788 242.662V237.787ZM178.977 240.979V243.914H178.014V237.323H178.964V239.775H179.025C179.141 239.509 179.318 239.298 179.556 239.141C179.794 238.985 180.105 238.907 180.489 238.907C180.828 238.907 181.124 238.976 181.377 239.116C181.633 239.255 181.83 239.463 181.97 239.74C182.111 240.015 182.182 240.358 182.182 240.77V243.914H181.22V240.886C181.22 240.523 181.126 240.242 180.94 240.043C180.753 239.841 180.494 239.74 180.161 239.74C179.934 239.74 179.73 239.788 179.55 239.885C179.371 239.981 179.231 240.123 179.128 240.31C179.027 240.494 178.977 240.717 178.977 240.979ZM183.546 243.914V238.971H184.508V243.914H183.546ZM184.032 238.208C183.865 238.208 183.721 238.152 183.601 238.041C183.483 237.927 183.424 237.792 183.424 237.635C183.424 237.477 183.483 237.341 183.601 237.23C183.721 237.116 183.865 237.059 184.032 237.059C184.199 237.059 184.342 237.116 184.46 237.23C184.58 237.341 184.64 237.477 184.64 237.635C184.64 237.792 184.58 237.927 184.46 238.041C184.342 238.152 184.199 238.208 184.032 238.208ZM189.587 240.178L188.715 240.332C188.678 240.221 188.62 240.114 188.541 240.014C188.464 239.913 188.359 239.83 188.226 239.766C188.093 239.701 187.926 239.669 187.727 239.669C187.454 239.669 187.227 239.73 187.045 239.853C186.862 239.973 186.771 240.128 186.771 240.319C186.771 240.485 186.832 240.618 186.955 240.718C187.077 240.819 187.274 240.902 187.547 240.966L188.332 241.146C188.787 241.252 189.126 241.414 189.349 241.632C189.572 241.851 189.684 242.135 189.684 242.485C189.684 242.781 189.598 243.045 189.426 243.277C189.257 243.506 189.02 243.687 188.715 243.818C188.412 243.948 188.062 244.014 187.663 244.014C187.109 244.014 186.657 243.896 186.308 243.66C185.958 243.422 185.743 243.084 185.664 242.646L186.594 242.504C186.652 242.747 186.771 242.93 186.951 243.055C187.132 243.177 187.366 243.238 187.656 243.238C187.971 243.238 188.224 243.173 188.412 243.042C188.601 242.909 188.696 242.747 188.696 242.556C188.696 242.402 188.638 242.272 188.522 242.167C188.408 242.061 188.233 241.982 187.997 241.928L187.161 241.745C186.699 241.64 186.358 241.473 186.137 241.243C185.918 241.013 185.809 240.723 185.809 240.371C185.809 240.079 185.89 239.824 186.053 239.605C186.216 239.386 186.442 239.215 186.729 239.093C187.017 238.969 187.346 238.907 187.717 238.907C188.251 238.907 188.672 239.022 188.979 239.254C189.286 239.484 189.488 239.792 189.587 240.178ZM193.3 243.914V238.971H194.262V243.914H193.3ZM193.786 238.208C193.619 238.208 193.475 238.152 193.355 238.041C193.237 237.927 193.178 237.792 193.178 237.635C193.178 237.477 193.237 237.341 193.355 237.23C193.475 237.116 193.619 237.059 193.786 237.059C193.953 237.059 194.096 237.116 194.214 237.23C194.334 237.341 194.394 237.477 194.394 237.635C194.394 237.792 194.334 237.927 194.214 238.041C194.096 238.152 193.953 238.208 193.786 238.208ZM196.599 240.979V243.914H195.637V238.971H196.56V239.775H196.622C196.735 239.514 196.913 239.303 197.156 239.145C197.4 238.986 197.708 238.907 198.079 238.907C198.416 238.907 198.711 238.977 198.964 239.119C199.218 239.258 199.414 239.466 199.553 239.743C199.693 240.02 199.762 240.362 199.762 240.77V243.914H198.8V240.886C198.8 240.527 198.707 240.247 198.52 240.046C198.334 239.842 198.077 239.74 197.751 239.74C197.528 239.74 197.33 239.788 197.156 239.885C196.984 239.981 196.848 240.123 196.747 240.31C196.648 240.494 196.599 240.717 196.599 240.979ZM203.215 244.014C202.737 244.014 202.325 243.905 201.979 243.689C201.636 243.47 201.372 243.169 201.188 242.784C201.003 242.4 200.911 241.961 200.911 241.465C200.911 240.963 201.005 240.52 201.194 240.136C201.383 239.75 201.649 239.448 201.992 239.232C202.336 239.015 202.74 238.907 203.206 238.907C203.581 238.907 203.916 238.976 204.21 239.116C204.504 239.253 204.741 239.446 204.921 239.695C205.103 239.944 205.212 240.235 205.246 240.567H204.309C204.258 240.335 204.14 240.136 203.955 239.969C203.773 239.801 203.528 239.718 203.222 239.718C202.953 239.718 202.718 239.788 202.517 239.93C202.317 240.069 202.162 240.269 202.05 240.528C201.939 240.786 201.883 241.091 201.883 241.442C201.883 241.803 201.938 242.114 202.047 242.376C202.156 242.638 202.311 242.84 202.51 242.984C202.712 243.128 202.949 243.2 203.222 243.2C203.404 243.2 203.569 243.166 203.717 243.1C203.867 243.031 203.993 242.934 204.094 242.807C204.197 242.68 204.269 242.528 204.309 242.35H205.246C205.212 242.67 205.107 242.955 204.934 243.206C204.76 243.457 204.527 243.654 204.235 243.798C203.946 243.942 203.606 244.014 203.215 244.014ZM207.317 237.323V243.914H206.355V237.323H207.317ZM211.823 241.864V238.971H212.788V243.914H211.842V243.058H211.791C211.677 243.322 211.495 243.542 211.244 243.718C210.995 243.892 210.685 243.978 210.314 243.978C209.996 243.978 209.715 243.909 209.47 243.769C209.228 243.628 209.037 243.418 208.898 243.142C208.76 242.865 208.692 242.523 208.692 242.115V238.971H209.654V241.999C209.654 242.336 209.747 242.604 209.934 242.804C210.121 243.003 210.363 243.103 210.661 243.103C210.841 243.103 211.021 243.058 211.199 242.968C211.379 242.878 211.528 242.742 211.646 242.559C211.766 242.377 211.825 242.145 211.823 241.864ZM216.012 244.011C215.613 244.011 215.257 243.909 214.943 243.705C214.632 243.499 214.388 243.206 214.21 242.826C214.034 242.444 213.946 241.986 213.946 241.452C213.946 240.918 214.035 240.461 214.213 240.081C214.393 239.701 214.64 239.411 214.953 239.209C215.266 239.007 215.621 238.907 216.018 238.907C216.325 238.907 216.572 238.958 216.758 239.061C216.947 239.162 217.093 239.28 217.196 239.415C217.301 239.55 217.383 239.669 217.441 239.772H217.499V237.323H218.461V243.914H217.521V243.145H217.441C217.383 243.25 217.299 243.37 217.19 243.505C217.082 243.641 216.934 243.759 216.746 243.859C216.557 243.96 216.312 244.011 216.012 244.011ZM216.224 243.19C216.501 243.19 216.735 243.117 216.926 242.971C217.119 242.823 217.265 242.618 217.364 242.356C217.464 242.095 217.515 241.79 217.515 241.442C217.515 241.099 217.465 240.799 217.367 240.541C217.268 240.284 217.123 240.083 216.932 239.94C216.741 239.796 216.505 239.724 216.224 239.724C215.935 239.724 215.693 239.799 215.5 239.949C215.307 240.099 215.161 240.304 215.062 240.564C214.966 240.824 214.918 241.116 214.918 241.442C214.918 241.773 214.967 242.07 215.066 242.334C215.164 242.598 215.31 242.807 215.503 242.961C215.699 243.114 215.939 243.19 216.224 243.19ZM222.045 244.014C221.558 244.014 221.138 243.91 220.786 243.702C220.437 243.491 220.166 243.196 219.975 242.817C219.787 242.435 219.692 241.987 219.692 241.475C219.692 240.968 219.787 240.522 219.975 240.136C220.166 239.75 220.432 239.448 220.774 239.232C221.117 239.015 221.518 238.907 221.977 238.907C222.256 238.907 222.526 238.953 222.788 239.045C223.05 239.137 223.285 239.282 223.493 239.479C223.701 239.677 223.865 239.933 223.985 240.249C224.105 240.562 224.166 240.943 224.166 241.391V241.732H220.236V241.011H223.223C223.223 240.758 223.171 240.534 223.068 240.339C222.965 240.141 222.82 239.986 222.634 239.872C222.449 239.758 222.232 239.701 221.984 239.701C221.713 239.701 221.477 239.768 221.276 239.901C221.076 240.032 220.922 240.203 220.812 240.416C220.705 240.626 220.651 240.855 220.651 241.101V241.665C220.651 241.995 220.709 242.276 220.825 242.508C220.943 242.739 221.107 242.916 221.317 243.039C221.528 243.159 221.773 243.219 222.054 243.219C222.237 243.219 222.403 243.193 222.553 243.142C222.703 243.088 222.833 243.009 222.943 242.904C223.052 242.798 223.136 242.669 223.194 242.514L224.104 242.678C224.031 242.946 223.901 243.181 223.712 243.383C223.525 243.583 223.29 243.738 223.007 243.85C222.726 243.959 222.405 244.014 222.045 244.014ZM229.017 240.178L228.145 240.332C228.109 240.221 228.051 240.114 227.971 240.014C227.894 239.913 227.789 239.83 227.656 239.766C227.523 239.701 227.357 239.669 227.157 239.669C226.885 239.669 226.657 239.73 226.475 239.853C226.293 239.973 226.201 240.128 226.201 240.319C226.201 240.485 226.263 240.618 226.385 240.718C226.507 240.819 226.705 240.902 226.977 240.966L227.762 241.146C228.217 241.252 228.556 241.414 228.779 241.632C229.002 241.851 229.114 242.135 229.114 242.485C229.114 242.781 229.028 243.045 228.856 243.277C228.687 243.506 228.45 243.687 228.145 243.818C227.843 243.948 227.492 244.014 227.093 244.014C226.539 244.014 226.088 243.896 225.738 243.66C225.388 243.422 225.174 243.084 225.094 242.646L226.024 242.504C226.082 242.747 226.201 242.93 226.382 243.055C226.562 243.177 226.797 243.238 227.086 243.238C227.402 243.238 227.654 243.173 227.843 243.042C228.032 242.909 228.126 242.747 228.126 242.556C228.126 242.402 228.068 242.272 227.952 242.167C227.838 242.061 227.664 241.982 227.428 241.928L226.591 241.745C226.13 241.64 225.788 241.473 225.567 241.243C225.349 241.013 225.239 240.723 225.239 240.371C225.239 240.079 225.321 239.824 225.484 239.605C225.647 239.386 225.872 239.215 226.16 239.093C226.447 238.969 226.776 238.907 227.148 238.907C227.682 238.907 228.102 239.022 228.409 239.254C228.716 239.484 228.919 239.792 229.017 240.178ZM233.693 240.979V243.914H232.73V238.971H233.654V239.775H233.715C233.829 239.514 234.007 239.303 234.249 239.145C234.494 238.986 234.802 238.907 235.173 238.907C235.51 238.907 235.805 238.977 236.058 239.119C236.311 239.258 236.507 239.466 236.647 239.743C236.786 240.02 236.856 240.362 236.856 240.77V243.914H235.894V240.886C235.894 240.527 235.8 240.247 235.614 240.046C235.427 239.842 235.171 239.74 234.845 239.74C234.622 239.74 234.423 239.788 234.249 239.885C234.078 239.981 233.941 240.123 233.841 240.31C233.742 240.494 233.693 240.717 233.693 240.979ZM238.227 243.914V238.971H239.189V243.914H238.227ZM238.712 238.208C238.545 238.208 238.401 238.152 238.281 238.041C238.163 237.927 238.104 237.792 238.104 237.635C238.104 237.477 238.163 237.341 238.281 237.23C238.401 237.116 238.545 237.059 238.712 237.059C238.88 237.059 239.023 237.116 239.141 237.23C239.261 237.341 239.321 237.477 239.321 237.635C239.321 237.792 239.261 237.927 239.141 238.041C239.023 238.152 238.88 238.208 238.712 238.208ZM241.526 240.979V243.914H240.563V238.971H241.487V239.775H241.548C241.662 239.514 241.84 239.303 242.082 239.145C242.327 238.986 242.635 238.907 243.006 238.907C243.343 238.907 243.638 238.977 243.891 239.119C244.144 239.258 244.34 239.466 244.48 239.743C244.619 240.02 244.689 240.362 244.689 240.77V243.914H243.727V240.886C243.727 240.527 243.633 240.247 243.447 240.046C243.26 239.842 243.004 239.74 242.678 239.74C242.455 239.74 242.256 239.788 242.082 239.885C241.911 239.981 241.774 240.123 241.674 240.31C241.575 240.494 241.526 240.717 241.526 240.979ZM248.19 244.014C247.703 244.014 247.284 243.91 246.932 243.702C246.582 243.491 246.312 243.196 246.121 242.817C245.932 242.435 245.838 241.987 245.838 241.475C245.838 240.968 245.932 240.522 246.121 240.136C246.312 239.75 246.578 239.448 246.919 239.232C247.262 239.015 247.663 238.907 248.122 238.907C248.401 238.907 248.672 238.953 248.933 239.045C249.195 239.137 249.43 239.282 249.638 239.479C249.846 239.677 250.01 239.933 250.131 240.249C250.251 240.562 250.311 240.943 250.311 241.391V241.732H246.381V241.011H249.368C249.368 240.758 249.316 240.534 249.213 240.339C249.11 240.141 248.966 239.986 248.779 239.872C248.594 239.758 248.378 239.701 248.129 239.701C247.859 239.701 247.623 239.768 247.421 239.901C247.221 240.032 247.067 240.203 246.957 240.416C246.85 240.626 246.797 240.855 246.797 241.101V241.665C246.797 241.995 246.854 242.276 246.97 242.508C247.088 242.739 247.252 242.916 247.463 243.039C247.673 243.159 247.919 243.219 248.2 243.219C248.382 243.219 248.548 243.193 248.699 243.142C248.849 243.088 248.978 243.009 249.088 242.904C249.197 242.798 249.281 242.669 249.339 242.514L250.25 242.678C250.177 242.946 250.046 243.181 249.857 243.383C249.67 243.583 249.435 243.738 249.152 243.85C248.871 243.959 248.55 244.014 248.19 244.014ZM256.067 244.014C255.58 244.014 255.161 243.91 254.809 243.702C254.459 243.491 254.189 243.196 253.998 242.817C253.809 242.435 253.715 241.987 253.715 241.475C253.715 240.968 253.809 240.522 253.998 240.136C254.189 239.75 254.455 239.448 254.796 239.232C255.139 239.015 255.541 238.907 256 238.907C256.279 238.907 256.549 238.953 256.811 239.045C257.072 239.137 257.307 239.282 257.516 239.479C257.724 239.677 257.888 239.933 258.008 240.249C258.128 240.562 258.188 240.943 258.188 241.391V241.732H254.259V241.011H257.245C257.245 240.758 257.194 240.534 257.091 240.339C256.988 240.141 256.843 239.986 256.656 239.872C256.472 239.758 256.255 239.701 256.006 239.701C255.736 239.701 255.5 239.768 255.298 239.901C255.099 240.032 254.944 240.203 254.835 240.416C254.727 240.626 254.674 240.855 254.674 241.101V241.665C254.674 241.995 254.732 242.276 254.848 242.508C254.966 242.739 255.13 242.916 255.34 243.039C255.55 243.159 255.796 243.219 256.077 243.219C256.259 243.219 256.426 243.193 256.576 243.142C256.726 243.088 256.856 243.009 256.965 242.904C257.075 242.798 257.158 242.669 257.216 242.514L258.127 242.678C258.054 242.946 257.923 243.181 257.734 243.383C257.548 243.583 257.313 243.738 257.03 243.85C256.749 243.959 256.428 244.014 256.067 244.014ZM261.186 244.011C260.787 244.011 260.431 243.909 260.118 243.705C259.807 243.499 259.562 243.206 259.384 242.826C259.208 242.444 259.12 241.986 259.12 241.452C259.12 240.918 259.209 240.461 259.387 240.081C259.567 239.701 259.814 239.411 260.127 239.209C260.441 239.007 260.796 238.907 261.193 238.907C261.499 238.907 261.746 238.958 261.933 239.061C262.122 239.162 262.268 239.28 262.371 239.415C262.476 239.55 262.557 239.669 262.615 239.772H262.673V237.323H263.635V243.914H262.696V243.145H262.615C262.557 243.25 262.474 243.37 262.364 243.505C262.257 243.641 262.109 243.759 261.92 243.859C261.731 243.96 261.487 244.011 261.186 244.011ZM261.399 243.19C261.675 243.19 261.909 243.117 262.1 242.971C262.293 242.823 262.439 242.618 262.538 242.356C262.639 242.095 262.689 241.79 262.689 241.442C262.689 241.099 262.64 240.799 262.541 240.541C262.442 240.284 262.298 240.083 262.107 239.94C261.916 239.796 261.68 239.724 261.399 239.724C261.109 239.724 260.868 239.799 260.675 239.949C260.481 240.099 260.336 240.304 260.237 240.564C260.14 240.824 260.092 241.116 260.092 241.442C260.092 241.773 260.141 242.07 260.24 242.334C260.339 242.598 260.485 242.807 260.678 242.961C260.873 243.114 261.113 243.19 261.399 243.19ZM265.089 243.914V238.971H266.051V243.914H265.089ZM265.575 238.208C265.407 238.208 265.264 238.152 265.143 238.041C265.025 237.927 264.966 237.792 264.966 237.635C264.966 237.477 265.025 237.341 265.143 237.23C265.264 237.116 265.407 237.059 265.575 237.059C265.742 237.059 265.885 237.116 266.003 237.23C266.123 237.341 266.183 237.477 266.183 237.635C266.183 237.792 266.123 237.927 266.003 238.041C265.885 238.152 265.742 238.208 265.575 238.208ZM269.733 238.971V239.743H267.033V238.971H269.733ZM267.757 237.787H268.719V242.463C268.719 242.649 268.747 242.79 268.803 242.884C268.859 242.976 268.931 243.04 269.018 243.074C269.109 243.106 269.206 243.122 269.311 243.122C269.389 243.122 269.456 243.117 269.514 243.106C269.572 243.096 269.617 243.087 269.649 243.081L269.823 243.875C269.767 243.897 269.688 243.918 269.585 243.94C269.482 243.963 269.353 243.976 269.199 243.978C268.946 243.983 268.71 243.938 268.491 243.843C268.272 243.749 268.095 243.603 267.96 243.406C267.825 243.208 267.757 242.96 267.757 242.662V237.787ZM272.906 244.014C272.443 244.014 272.039 243.908 271.693 243.695C271.348 243.483 271.08 243.186 270.889 242.804C270.698 242.422 270.602 241.976 270.602 241.465C270.602 240.952 270.698 240.504 270.889 240.12C271.08 239.736 271.348 239.438 271.693 239.225C272.039 239.013 272.443 238.907 272.906 238.907C273.37 238.907 273.774 239.013 274.12 239.225C274.465 239.438 274.733 239.736 274.924 240.12C275.115 240.504 275.211 240.952 275.211 241.465C275.211 241.976 275.115 242.422 274.924 242.804C274.733 243.186 274.465 243.483 274.12 243.695C273.774 243.908 273.37 244.014 272.906 244.014ZM272.91 243.206C273.21 243.206 273.459 243.127 273.656 242.968C273.854 242.809 274 242.598 274.094 242.334C274.19 242.07 274.239 241.779 274.239 241.462C274.239 241.146 274.19 240.857 274.094 240.593C274 240.327 273.854 240.113 273.656 239.952C273.459 239.792 273.21 239.711 272.91 239.711C272.607 239.711 272.356 239.792 272.157 239.952C271.959 240.113 271.812 240.327 271.716 240.593C271.621 240.857 271.574 241.146 271.574 241.462C271.574 241.779 271.621 242.07 271.716 242.334C271.812 242.598 271.959 242.809 272.157 242.968C272.356 243.127 272.607 243.206 272.91 243.206ZM276.365 243.914V238.971H277.295V239.756H277.346C277.436 239.49 277.595 239.281 277.823 239.129C278.052 238.974 278.312 238.897 278.601 238.897C278.661 238.897 278.732 238.899 278.814 238.903C278.897 238.908 278.963 238.913 279.01 238.919V239.84C278.972 239.829 278.903 239.817 278.804 239.804C278.705 239.789 278.607 239.782 278.508 239.782C278.281 239.782 278.078 239.83 277.9 239.927C277.724 240.021 277.584 240.153 277.481 240.323C277.378 240.49 277.327 240.681 277.327 240.895V243.914H276.365ZM283.627 240.178L282.755 240.332C282.718 240.221 282.66 240.114 282.581 240.014C282.504 239.913 282.399 239.83 282.266 239.766C282.133 239.701 281.966 239.669 281.767 239.669C281.494 239.669 281.267 239.73 281.085 239.853C280.902 239.973 280.811 240.128 280.811 240.319C280.811 240.485 280.872 240.618 280.994 240.718C281.117 240.819 281.314 240.902 281.587 240.966L282.372 241.146C282.827 241.252 283.166 241.414 283.389 241.632C283.612 241.851 283.724 242.135 283.724 242.485C283.724 242.781 283.638 243.045 283.466 243.277C283.297 243.506 283.06 243.687 282.755 243.818C282.452 243.948 282.102 244.014 281.703 244.014C281.149 244.014 280.697 243.896 280.348 243.66C279.998 243.422 279.783 243.084 279.704 242.646L280.634 242.504C280.692 242.747 280.811 242.93 280.991 243.055C281.172 243.177 281.406 243.238 281.696 243.238C282.011 243.238 282.264 243.173 282.452 243.042C282.641 242.909 282.736 242.747 282.736 242.556C282.736 242.402 282.678 242.272 282.562 242.167C282.448 242.061 282.273 241.982 282.037 241.928L281.2 241.745C280.739 241.64 280.398 241.473 280.177 241.243C279.958 241.013 279.849 240.723 279.849 240.371C279.849 240.079 279.93 239.824 280.093 239.605C280.256 239.386 280.482 239.215 280.769 239.093C281.057 238.969 281.386 238.907 281.757 238.907C282.291 238.907 282.712 239.022 283.019 239.254C283.326 239.484 283.528 239.792 283.627 240.178ZM288.778 244.023C288.465 244.023 288.182 243.966 287.929 243.85C287.676 243.732 287.475 243.561 287.327 243.338C287.181 243.115 287.108 242.841 287.108 242.517C287.108 242.238 287.162 242.009 287.269 241.829C287.376 241.648 287.521 241.506 287.704 241.401C287.886 241.296 288.09 241.216 288.315 241.162C288.54 241.109 288.77 241.068 289.004 241.04C289.3 241.006 289.54 240.978 289.725 240.957C289.909 240.933 290.043 240.895 290.127 240.844C290.211 240.792 290.252 240.709 290.252 240.593V240.57C290.252 240.289 290.173 240.072 290.014 239.917C289.858 239.763 289.624 239.685 289.313 239.685C288.989 239.685 288.733 239.757 288.547 239.901C288.362 240.043 288.235 240.2 288.164 240.374L287.259 240.168C287.367 239.868 287.523 239.625 287.729 239.441C287.937 239.254 288.177 239.119 288.447 239.035C288.717 238.949 289.002 238.907 289.3 238.907C289.497 238.907 289.706 238.93 289.927 238.977C290.15 239.022 290.359 239.106 290.552 239.228C290.747 239.351 290.907 239.525 291.031 239.753C291.156 239.978 291.218 240.271 291.218 240.631V243.914H290.278V243.238H290.24C290.177 243.363 290.084 243.485 289.96 243.605C289.835 243.725 289.675 243.825 289.48 243.904C289.285 243.984 289.051 244.023 288.778 244.023ZM288.988 243.251C289.254 243.251 289.481 243.199 289.67 243.093C289.861 242.988 290.006 242.851 290.104 242.681C290.205 242.51 290.256 242.326 290.256 242.131V241.494C290.221 241.528 290.155 241.56 290.056 241.591C289.96 241.618 289.849 241.643 289.725 241.665C289.6 241.684 289.479 241.702 289.361 241.719C289.243 241.734 289.144 241.747 289.065 241.758C288.878 241.781 288.708 241.821 288.553 241.877C288.401 241.933 288.279 242.013 288.186 242.118C288.096 242.221 288.051 242.359 288.051 242.53C288.051 242.768 288.139 242.949 288.315 243.071C288.491 243.191 288.715 243.251 288.988 243.251ZM293.542 240.979V243.914H292.58V238.971H293.503V239.775H293.564C293.678 239.514 293.856 239.303 294.099 239.145C294.343 238.986 294.651 238.907 295.022 238.907C295.359 238.907 295.654 238.977 295.907 239.119C296.16 239.258 296.357 239.466 296.496 239.743C296.636 240.02 296.705 240.362 296.705 240.77V243.914H295.743V240.886C295.743 240.527 295.65 240.247 295.463 240.046C295.276 239.842 295.02 239.74 294.694 239.74C294.471 239.74 294.272 239.788 294.099 239.885C293.927 239.981 293.791 240.123 293.69 240.31C293.591 240.494 293.542 240.717 293.542 240.979ZM299.926 244.011C299.527 244.011 299.171 243.909 298.858 243.705C298.547 243.499 298.302 243.206 298.124 242.826C297.948 242.444 297.86 241.986 297.86 241.452C297.86 240.918 297.949 240.461 298.127 240.081C298.307 239.701 298.554 239.411 298.867 239.209C299.181 239.007 299.536 238.907 299.933 238.907C300.24 238.907 300.486 238.958 300.673 239.061C300.862 239.162 301.008 239.28 301.111 239.415C301.216 239.55 301.297 239.669 301.355 239.772H301.413V237.323H302.375V243.914H301.436V243.145H301.355C301.297 243.25 301.214 243.37 301.104 243.505C300.997 243.641 300.849 243.759 300.66 243.859C300.471 243.96 300.227 244.011 299.926 244.011ZM300.139 243.19C300.415 243.19 300.649 243.117 300.84 242.971C301.033 242.823 301.179 242.618 301.278 242.356C301.379 242.095 301.429 241.79 301.429 241.442C301.429 241.099 301.38 240.799 301.281 240.541C301.182 240.284 301.038 240.083 300.847 239.94C300.656 239.796 300.42 239.724 300.139 239.724C299.849 239.724 299.608 239.799 299.415 239.949C299.221 240.099 299.076 240.304 298.977 240.564C298.88 240.824 298.832 241.116 298.832 241.442C298.832 241.773 298.881 242.07 298.98 242.334C299.079 242.598 299.225 242.807 299.418 242.961C299.613 243.114 299.853 243.19 300.139 243.19ZM309.438 241.864V238.971H310.404V243.914H309.458V243.058H309.406C309.293 243.322 309.11 243.542 308.859 243.718C308.61 243.892 308.3 243.978 307.929 243.978C307.612 243.978 307.33 243.909 307.086 243.769C306.843 243.628 306.653 243.418 306.513 243.142C306.376 242.865 306.307 242.523 306.307 242.115V238.971H307.269V241.999C307.269 242.336 307.363 242.604 307.549 242.804C307.736 243.003 307.978 243.103 308.277 243.103C308.457 243.103 308.636 243.058 308.814 242.968C308.994 242.878 309.143 242.742 309.261 242.559C309.382 242.377 309.441 242.145 309.438 241.864ZM312.739 240.979V243.914H311.777V238.971H312.7V239.775H312.762C312.875 239.514 313.053 239.303 313.296 239.145C313.54 238.986 313.848 238.907 314.219 238.907C314.556 238.907 314.851 238.977 315.104 239.119C315.358 239.258 315.554 239.466 315.693 239.743C315.833 240.02 315.903 240.362 315.903 240.77V243.914H314.94V240.886C314.94 240.527 314.847 240.247 314.66 240.046C314.474 239.842 314.217 239.74 313.891 239.74C313.668 239.74 313.47 239.788 313.296 239.885C313.124 239.981 312.988 240.123 312.887 240.31C312.788 240.494 312.739 240.717 312.739 240.979ZM318.235 237.323V243.914H317.273V237.323H318.235ZM319.61 243.914V238.971H320.572V243.914H319.61ZM320.096 238.208C319.928 238.208 319.785 238.152 319.665 238.041C319.547 237.927 319.488 237.792 319.488 237.635C319.488 237.477 319.547 237.341 319.665 237.23C319.785 237.116 319.928 237.059 320.096 237.059C320.263 237.059 320.406 237.116 320.524 237.23C320.644 237.341 320.704 237.477 320.704 237.635C320.704 237.792 320.644 237.927 320.524 238.041C320.406 238.152 320.263 238.208 320.096 238.208ZM321.947 243.914V238.971H322.87V239.775H322.931C323.034 239.503 323.203 239.291 323.437 239.138C323.67 238.984 323.95 238.907 324.277 238.907C324.607 238.907 324.884 238.984 325.107 239.138C325.332 239.293 325.498 239.505 325.606 239.775H325.657C325.775 239.512 325.963 239.301 326.22 239.145C326.478 238.986 326.785 238.907 327.141 238.907C327.589 238.907 327.955 239.047 328.238 239.328C328.524 239.609 328.666 240.033 328.666 240.599V243.914H327.704V240.689C327.704 240.355 327.613 240.112 327.43 239.962C327.248 239.812 327.03 239.737 326.777 239.737C326.464 239.737 326.22 239.833 326.047 240.026C325.873 240.217 325.786 240.463 325.786 240.763V243.914H324.827V240.628C324.827 240.36 324.743 240.144 324.576 239.981C324.409 239.818 324.191 239.737 323.923 239.737C323.74 239.737 323.572 239.785 323.417 239.882C323.265 239.976 323.142 240.108 323.047 240.277C322.955 240.447 322.909 240.643 322.909 240.866V243.914H321.947ZM330.036 243.914V238.971H330.998V243.914H330.036ZM330.522 238.208C330.355 238.208 330.211 238.152 330.091 238.041C329.973 237.927 329.914 237.792 329.914 237.635C329.914 237.477 329.973 237.341 330.091 237.23C330.211 237.116 330.355 237.059 330.522 237.059C330.689 237.059 330.832 237.116 330.95 237.23C331.07 237.341 331.13 237.477 331.13 237.635C331.13 237.792 331.07 237.927 330.95 238.041C330.832 238.152 330.689 238.208 330.522 238.208ZM334.68 238.971V239.743H331.98V238.971H334.68ZM332.704 237.787H333.666V242.463C333.666 242.649 333.694 242.79 333.75 242.884C333.806 242.976 333.878 243.04 333.966 243.074C334.056 243.106 334.153 243.122 334.259 243.122C334.336 243.122 334.403 243.117 334.461 243.106C334.519 243.096 334.564 243.087 334.596 243.081L334.77 243.875C334.714 243.897 334.635 243.918 334.532 243.94C334.429 243.963 334.3 243.976 334.146 243.978C333.893 243.983 333.657 243.938 333.438 243.843C333.219 243.749 333.042 243.603 332.907 243.406C332.772 243.208 332.704 242.96 332.704 242.662V237.787ZM337.902 244.014C337.415 244.014 336.995 243.91 336.644 243.702C336.294 243.491 336.024 243.196 335.833 242.817C335.644 242.435 335.549 241.987 335.549 241.475C335.549 240.968 335.644 240.522 335.833 240.136C336.024 239.75 336.29 239.448 336.631 239.232C336.974 239.015 337.375 238.907 337.834 238.907C338.113 238.907 338.384 238.953 338.645 239.045C338.907 239.137 339.142 239.282 339.35 239.479C339.558 239.677 339.722 239.933 339.843 240.249C339.963 240.562 340.023 240.943 340.023 241.391V241.732H336.093V241.011H339.08C339.08 240.758 339.028 240.534 338.925 240.339C338.822 240.141 338.678 239.986 338.491 239.872C338.306 239.758 338.09 239.701 337.841 239.701C337.57 239.701 337.334 239.768 337.133 239.901C336.933 240.032 336.779 240.203 336.669 240.416C336.562 240.626 336.508 240.855 336.508 241.101V241.665C336.508 241.995 336.566 242.276 336.682 242.508C336.8 242.739 336.964 242.916 337.175 243.039C337.385 243.159 337.631 243.219 337.912 243.219C338.094 243.219 338.26 243.193 338.41 243.142C338.561 243.088 338.69 243.009 338.8 242.904C338.909 242.798 338.993 242.669 339.051 242.514L339.962 242.678C339.889 242.946 339.758 243.181 339.569 243.383C339.382 243.583 339.147 243.738 338.864 243.85C338.583 243.959 338.262 244.014 337.902 244.014ZM343.021 244.011C342.622 244.011 342.266 243.909 341.952 243.705C341.641 243.499 341.397 243.206 341.219 242.826C341.043 242.444 340.955 241.986 340.955 241.452C340.955 240.918 341.044 240.461 341.222 240.081C341.402 239.701 341.649 239.411 341.962 239.209C342.275 239.007 342.63 238.907 343.027 238.907C343.334 238.907 343.581 238.958 343.768 239.061C343.956 239.162 344.102 239.28 344.205 239.415C344.31 239.55 344.392 239.669 344.45 239.772H344.508V237.323H345.47V243.914H344.53V243.145H344.45C344.392 243.25 344.308 243.37 344.199 243.505C344.091 243.641 343.943 243.759 343.755 243.859C343.566 243.96 343.321 244.011 343.021 244.011ZM343.233 243.19C343.51 243.19 343.744 243.117 343.935 242.971C344.128 242.823 344.274 242.618 344.373 242.356C344.473 242.095 344.524 241.79 344.524 241.442C344.524 241.099 344.474 240.799 344.376 240.541C344.277 240.284 344.132 240.083 343.941 239.94C343.75 239.796 343.514 239.724 343.233 239.724C342.944 239.724 342.702 239.799 342.509 239.949C342.316 240.099 342.17 240.304 342.072 240.564C341.975 240.824 341.927 241.116 341.927 241.442C341.927 241.773 341.976 242.07 342.075 242.334C342.173 242.598 342.319 242.807 342.512 242.961C342.708 243.114 342.948 243.19 343.233 243.19ZM150.789 262.768V255.971H151.729V256.772H151.81C151.865 256.669 151.946 256.55 152.051 256.415C152.156 256.28 152.302 256.162 152.489 256.061C152.675 255.958 152.922 255.907 153.229 255.907C153.628 255.907 153.984 256.007 154.297 256.209C154.611 256.411 154.856 256.701 155.034 257.081C155.214 257.461 155.305 257.918 155.305 258.452C155.305 258.986 155.216 259.444 155.037 259.826C154.859 260.206 154.615 260.499 154.304 260.705C153.993 260.909 153.638 261.011 153.239 261.011C152.938 261.011 152.692 260.96 152.502 260.859C152.313 260.759 152.165 260.641 152.057 260.505C151.95 260.37 151.868 260.25 151.81 260.145H151.752V262.768H150.789ZM151.732 258.442C151.732 258.79 151.783 259.095 151.884 259.356C151.984 259.618 152.13 259.823 152.321 259.971C152.512 260.117 152.746 260.19 153.023 260.19C153.31 260.19 153.551 260.114 153.744 259.961C153.937 259.807 154.083 259.598 154.181 259.334C154.282 259.07 154.333 258.773 154.333 258.442C154.333 258.116 154.283 257.824 154.185 257.564C154.088 257.304 153.942 257.099 153.747 256.949C153.554 256.799 153.313 256.724 153.023 256.724C152.744 256.724 152.508 256.796 152.315 256.94C152.124 257.083 151.979 257.284 151.88 257.541C151.782 257.799 151.732 258.099 151.732 258.442ZM156.463 260.914V255.971H157.393V256.756H157.444C157.534 256.49 157.693 256.281 157.921 256.129C158.15 255.974 158.41 255.897 158.699 255.897C158.759 255.897 158.83 255.899 158.912 255.903C158.995 255.908 159.061 255.913 159.108 255.919V256.84C159.069 256.829 159.001 256.817 158.902 256.804C158.803 256.789 158.705 256.782 158.606 256.782C158.379 256.782 158.176 256.83 157.998 256.927C157.822 257.021 157.682 257.153 157.579 257.323C157.476 257.49 157.425 257.681 157.425 257.895V260.914H156.463ZM161.926 261.014C161.463 261.014 161.058 260.908 160.713 260.695C160.367 260.483 160.099 260.186 159.908 259.804C159.717 259.422 159.622 258.976 159.622 258.465C159.622 257.952 159.717 257.504 159.908 257.12C160.099 256.736 160.367 256.438 160.713 256.225C161.058 256.013 161.463 255.907 161.926 255.907C162.389 255.907 162.794 256.013 163.139 256.225C163.485 256.438 163.753 256.736 163.944 257.12C164.135 257.504 164.23 257.952 164.23 258.465C164.23 258.976 164.135 259.422 163.944 259.804C163.753 260.186 163.485 260.483 163.139 260.695C162.794 260.908 162.389 261.014 161.926 261.014ZM161.929 260.206C162.23 260.206 162.478 260.127 162.676 259.968C162.873 259.809 163.019 259.598 163.113 259.334C163.21 259.07 163.258 258.779 163.258 258.462C163.258 258.146 163.21 257.857 163.113 257.593C163.019 257.327 162.873 257.113 162.676 256.952C162.478 256.792 162.23 256.711 161.929 256.711C161.627 256.711 161.376 256.792 161.176 256.952C160.979 257.113 160.832 257.327 160.735 257.593C160.641 257.857 160.594 258.146 160.594 258.462C160.594 258.779 160.641 259.07 160.735 259.334C160.832 259.598 160.979 259.809 161.176 259.968C161.376 260.127 161.627 260.206 161.929 260.206ZM165.384 255.971H166.347V261.236C166.347 261.566 166.286 261.845 166.166 262.073C166.048 262.3 165.872 262.473 165.639 262.591C165.407 262.709 165.12 262.768 164.779 262.768C164.745 262.768 164.713 262.768 164.683 262.768C164.651 262.768 164.617 262.767 164.583 262.765V261.937C164.613 261.937 164.64 261.937 164.663 261.937C164.685 261.937 164.71 261.937 164.737 261.937C164.965 261.937 165.129 261.876 165.23 261.754C165.333 261.634 165.384 261.459 165.384 261.229V255.971ZM165.861 255.208C165.693 255.208 165.549 255.152 165.429 255.041C165.311 254.927 165.252 254.792 165.252 254.635C165.252 254.477 165.311 254.341 165.429 254.23C165.549 254.116 165.693 254.059 165.861 254.059C166.028 254.059 166.171 254.116 166.289 254.23C166.409 254.341 166.469 254.477 166.469 254.635C166.469 254.792 166.409 254.927 166.289 255.041C166.171 255.152 166.028 255.208 165.861 255.208ZM169.852 261.014C169.365 261.014 168.945 260.91 168.593 260.702C168.243 260.491 167.973 260.196 167.782 259.817C167.593 259.435 167.499 258.987 167.499 258.475C167.499 257.968 167.593 257.522 167.782 257.136C167.973 256.75 168.239 256.448 168.58 256.232C168.924 256.015 169.325 255.907 169.784 255.907C170.063 255.907 170.333 255.953 170.595 256.045C170.857 256.137 171.092 256.282 171.3 256.479C171.508 256.677 171.672 256.933 171.792 257.249C171.912 257.562 171.972 257.943 171.972 258.391V258.732H168.043V258.011H171.029C171.029 257.758 170.978 257.534 170.875 257.339C170.772 257.141 170.627 256.986 170.44 256.872C170.256 256.758 170.039 256.701 169.79 256.701C169.52 256.701 169.284 256.768 169.082 256.901C168.883 257.032 168.728 257.203 168.619 257.416C168.512 257.626 168.458 257.855 168.458 258.101V258.665C168.458 258.995 168.516 259.276 168.632 259.508C168.75 259.739 168.914 259.916 169.124 260.039C169.334 260.159 169.58 260.219 169.861 260.219C170.044 260.219 170.21 260.193 170.36 260.142C170.51 260.088 170.64 260.009 170.749 259.904C170.859 259.798 170.943 259.669 171 259.514L171.911 259.678C171.838 259.946 171.707 260.181 171.519 260.383C171.332 260.583 171.097 260.738 170.814 260.85C170.533 260.959 170.212 261.014 169.852 261.014ZM175.202 261.014C174.724 261.014 174.312 260.905 173.966 260.689C173.623 260.47 173.359 260.169 173.175 259.784C172.99 259.4 172.898 258.961 172.898 258.465C172.898 257.963 172.992 257.52 173.181 257.136C173.37 256.75 173.636 256.448 173.979 256.232C174.323 256.015 174.727 255.907 175.193 255.907C175.568 255.907 175.903 255.976 176.197 256.116C176.491 256.253 176.728 256.446 176.908 256.695C177.09 256.944 177.199 257.235 177.233 257.567H176.296C176.245 257.335 176.127 257.136 175.942 256.969C175.76 256.801 175.515 256.718 175.209 256.718C174.94 256.718 174.705 256.788 174.504 256.93C174.304 257.069 174.149 257.269 174.037 257.528C173.926 257.786 173.87 258.091 173.87 258.442C173.87 258.803 173.925 259.114 174.034 259.376C174.143 259.638 174.298 259.84 174.497 259.984C174.699 260.128 174.936 260.2 175.209 260.2C175.391 260.2 175.556 260.166 175.704 260.1C175.854 260.031 175.98 259.934 176.081 259.807C176.184 259.68 176.256 259.528 176.296 259.35H177.233C177.199 259.67 177.094 259.955 176.921 260.206C176.747 260.457 176.514 260.654 176.222 260.798C175.933 260.942 175.593 261.014 175.202 261.014ZM180.649 255.971V256.743H177.949V255.971H180.649ZM178.673 254.787H179.636V259.463C179.636 259.649 179.664 259.79 179.719 259.884C179.775 259.976 179.847 260.04 179.935 260.074C180.025 260.106 180.123 260.122 180.228 260.122C180.305 260.122 180.373 260.117 180.431 260.106C180.488 260.096 180.533 260.087 180.566 260.081L180.739 260.875C180.684 260.897 180.604 260.918 180.501 260.94C180.398 260.963 180.27 260.976 180.115 260.978C179.862 260.983 179.626 260.938 179.407 260.843C179.188 260.749 179.011 260.603 178.876 260.406C178.741 260.208 178.673 259.96 178.673 259.662V254.787ZM185.418 257.178L184.546 257.332C184.51 257.221 184.452 257.114 184.372 257.014C184.295 256.913 184.19 256.83 184.057 256.766C183.924 256.701 183.758 256.669 183.558 256.669C183.286 256.669 183.058 256.73 182.876 256.853C182.694 256.973 182.602 257.128 182.602 257.319C182.602 257.485 182.663 257.618 182.786 257.718C182.908 257.819 183.105 257.902 183.378 257.966L184.163 258.146C184.618 258.252 184.957 258.414 185.18 258.632C185.403 258.851 185.515 259.135 185.515 259.485C185.515 259.781 185.429 260.045 185.257 260.277C185.088 260.506 184.851 260.687 184.546 260.818C184.244 260.948 183.893 261.014 183.494 261.014C182.94 261.014 182.489 260.896 182.139 260.66C181.789 260.422 181.575 260.084 181.495 259.646L182.425 259.504C182.483 259.747 182.602 259.93 182.783 260.055C182.963 260.177 183.198 260.238 183.487 260.238C183.803 260.238 184.055 260.173 184.244 260.042C184.432 259.909 184.527 259.747 184.527 259.556C184.527 259.402 184.469 259.272 184.353 259.167C184.239 259.061 184.064 258.982 183.828 258.928L182.992 258.745C182.53 258.64 182.189 258.473 181.968 258.243C181.75 258.013 181.64 257.723 181.64 257.371C181.64 257.079 181.722 256.824 181.885 256.605C182.048 256.386 182.273 256.215 182.561 256.093C182.848 255.969 183.177 255.907 183.549 255.907C184.083 255.907 184.503 256.022 184.81 256.254C185.117 256.484 185.32 256.792 185.418 257.178ZM187.287 260.975C187.111 260.975 186.96 260.913 186.833 260.789C186.706 260.662 186.643 260.51 186.643 260.332C186.643 260.156 186.706 260.005 186.833 259.881C186.96 259.754 187.111 259.691 187.287 259.691C187.463 259.691 187.614 259.754 187.741 259.881C187.867 260.005 187.93 260.156 187.93 260.332C187.93 260.45 187.9 260.558 187.84 260.657C187.782 260.753 187.705 260.83 187.609 260.888C187.512 260.946 187.405 260.975 187.287 260.975Z" fill="#0A2540"/>
<path d="M151.465 283.21L153.331 288.67H153.406L155.272 283.21H156.366L153.953 289.914H152.784L150.372 283.21H151.465ZM157.336 289.914V284.886H158.314V289.914H157.336ZM157.83 284.11C157.66 284.11 157.513 284.053 157.391 283.94C157.271 283.824 157.211 283.686 157.211 283.527C157.211 283.366 157.271 283.228 157.391 283.115C157.513 282.999 157.66 282.941 157.83 282.941C158 282.941 158.145 282.999 158.265 283.115C158.387 283.228 158.449 283.366 158.449 283.527C158.449 283.686 158.387 283.824 158.265 283.94C158.145 284.053 158 284.11 157.83 284.11ZM161.878 290.016C161.383 290.016 160.956 289.91 160.598 289.698C160.243 289.484 159.968 289.184 159.773 288.798C159.581 288.409 159.485 287.954 159.485 287.433C159.485 286.918 159.581 286.464 159.773 286.071C159.968 285.678 160.238 285.371 160.585 285.151C160.934 284.93 161.343 284.82 161.81 284.82C162.093 284.82 162.368 284.867 162.635 284.961C162.901 285.055 163.14 285.202 163.352 285.403C163.563 285.604 163.73 285.864 163.852 286.185C163.975 286.504 164.036 286.891 164.036 287.347V287.694H160.039V286.961H163.077C163.077 286.704 163.024 286.476 162.919 286.277C162.815 286.076 162.667 285.918 162.477 285.802C162.29 285.687 162.069 285.629 161.816 285.629C161.541 285.629 161.301 285.696 161.096 285.832C160.893 285.965 160.736 286.139 160.625 286.356C160.515 286.569 160.461 286.802 160.461 287.053V287.626C160.461 287.962 160.52 288.248 160.638 288.483C160.758 288.719 160.925 288.899 161.139 289.024C161.352 289.146 161.602 289.207 161.888 289.207C162.074 289.207 162.243 289.181 162.396 289.128C162.548 289.074 162.68 288.993 162.792 288.886C162.903 288.779 162.988 288.647 163.047 288.49L163.974 288.657C163.899 288.93 163.766 289.169 163.574 289.374C163.384 289.577 163.145 289.735 162.857 289.849C162.571 289.96 162.245 290.016 161.878 290.016ZM166.283 289.914L164.803 284.886H165.815L166.8 288.578H166.849L167.838 284.886H168.85L169.832 288.562H169.881L170.86 284.886H171.871L170.395 289.914H169.396L168.375 286.284H168.3L167.278 289.914H166.283ZM175.4 289.914V284.886H176.379V289.914H175.4ZM175.894 284.11C175.724 284.11 175.578 284.053 175.455 283.94C175.335 283.824 175.275 283.686 175.275 283.527C175.275 283.366 175.335 283.228 175.455 283.115C175.578 282.999 175.724 282.941 175.894 282.941C176.064 282.941 176.21 282.999 176.33 283.115C176.452 283.228 176.513 283.366 176.513 283.527C176.513 283.686 176.452 283.824 176.33 283.94C176.21 284.053 176.064 284.11 175.894 284.11ZM178.754 286.928V289.914H177.775V284.886H178.715V285.704H178.777C178.893 285.438 179.074 285.224 179.321 285.062C179.569 284.901 179.883 284.82 180.26 284.82C180.603 284.82 180.903 284.892 181.161 285.036C181.418 285.178 181.618 285.39 181.76 285.671C181.901 285.953 181.972 286.301 181.972 286.716V289.914H180.994V286.834C180.994 286.469 180.899 286.184 180.709 285.979C180.519 285.772 180.258 285.668 179.926 285.668C179.699 285.668 179.497 285.717 179.321 285.815C179.146 285.914 179.007 286.058 178.905 286.248C178.805 286.435 178.754 286.662 178.754 286.928ZM187.487 284.886L185.663 289.914H184.616L182.789 284.886H183.84L185.113 288.755H185.166L186.436 284.886H187.487ZM190.434 290.016C189.962 290.016 189.551 289.908 189.199 289.691C188.848 289.475 188.575 289.173 188.381 288.785C188.187 288.396 188.09 287.942 188.09 287.423C188.09 286.901 188.187 286.445 188.381 286.054C188.575 285.664 188.848 285.36 189.199 285.144C189.551 284.928 189.962 284.82 190.434 284.82C190.905 284.82 191.316 284.928 191.668 285.144C192.019 285.36 192.292 285.664 192.486 286.054C192.681 286.445 192.778 286.901 192.778 287.423C192.778 287.942 192.681 288.396 192.486 288.785C192.292 289.173 192.019 289.475 191.668 289.691C191.316 289.908 190.905 290.016 190.434 290.016ZM190.437 289.194C190.742 289.194 190.996 289.113 191.196 288.952C191.397 288.79 191.546 288.575 191.642 288.307C191.74 288.038 191.789 287.743 191.789 287.42C191.789 287.099 191.74 286.804 191.642 286.536C191.546 286.265 191.397 286.048 191.196 285.884C190.996 285.72 190.742 285.639 190.437 285.639C190.129 285.639 189.874 285.72 189.671 285.884C189.47 286.048 189.321 286.265 189.222 286.536C189.126 286.804 189.078 287.099 189.078 287.42C189.078 287.743 189.126 288.038 189.222 288.307C189.321 288.575 189.47 288.79 189.671 288.952C189.874 289.113 190.129 289.194 190.437 289.194ZM193.95 289.914V284.886H194.929V289.914H193.95ZM194.445 284.11C194.274 284.11 194.128 284.053 194.006 283.94C193.886 283.824 193.826 283.686 193.826 283.527C193.826 283.366 193.886 283.228 194.006 283.115C194.128 282.999 194.274 282.941 194.445 282.941C194.615 282.941 194.76 282.999 194.88 283.115C195.002 283.228 195.063 283.366 195.063 283.527C195.063 283.686 195.002 283.824 194.88 283.94C194.76 284.053 194.615 284.11 194.445 284.11ZM198.444 290.016C197.957 290.016 197.538 289.905 197.187 289.685C196.838 289.462 196.569 289.156 196.382 288.765C196.194 288.374 196.1 287.927 196.1 287.423C196.1 286.912 196.196 286.461 196.388 286.071C196.58 285.678 196.851 285.371 197.2 285.151C197.549 284.93 197.961 284.82 198.434 284.82C198.816 284.82 199.157 284.891 199.456 285.033C199.755 285.173 199.996 285.369 200.179 285.622C200.365 285.875 200.475 286.171 200.51 286.509H199.557C199.505 286.274 199.385 286.071 199.197 285.901C199.011 285.73 198.763 285.645 198.451 285.645C198.178 285.645 197.939 285.717 197.734 285.861C197.531 286.003 197.372 286.206 197.259 286.47C197.145 286.732 197.089 287.042 197.089 287.4C197.089 287.767 197.144 288.083 197.256 288.349C197.367 288.615 197.524 288.822 197.727 288.968C197.932 289.114 198.173 289.187 198.451 289.187C198.636 289.187 198.804 289.153 198.955 289.086C199.107 289.016 199.235 288.917 199.338 288.788C199.442 288.659 199.516 288.504 199.557 288.323H200.51C200.475 288.648 200.369 288.938 200.192 289.194C200.015 289.449 199.779 289.65 199.482 289.796C199.187 289.942 198.841 290.016 198.444 290.016ZM203.804 290.016C203.308 290.016 202.882 289.91 202.524 289.698C202.168 289.484 201.893 289.184 201.699 288.798C201.507 288.409 201.411 287.954 201.411 287.433C201.411 286.918 201.507 286.464 201.699 286.071C201.893 285.678 202.164 285.371 202.511 285.151C202.86 284.93 203.268 284.82 203.735 284.82C204.019 284.82 204.294 284.867 204.56 284.961C204.826 285.055 205.065 285.202 205.277 285.403C205.489 285.604 205.656 285.864 205.778 286.185C205.9 286.504 205.961 286.891 205.961 287.347V287.694H201.964V286.961H205.002C205.002 286.704 204.949 286.476 204.845 286.277C204.74 286.076 204.593 285.918 204.403 285.802C204.215 285.687 203.995 285.629 203.741 285.629C203.466 285.629 203.226 285.696 203.021 285.832C202.818 285.965 202.661 286.139 202.55 286.356C202.441 286.569 202.386 286.802 202.386 287.053V287.626C202.386 287.962 202.445 288.248 202.563 288.483C202.683 288.719 202.85 288.899 203.064 289.024C203.278 289.146 203.528 289.207 203.814 289.207C203.999 289.207 204.168 289.181 204.321 289.128C204.474 289.074 204.606 288.993 204.717 288.886C204.828 288.779 204.913 288.647 204.972 288.49L205.899 288.657C205.825 288.93 205.692 289.169 205.499 289.374C205.31 289.577 205.071 289.735 204.783 289.849C204.497 289.96 204.17 290.016 203.804 290.016ZM211.529 290.012C211.123 290.012 210.761 289.909 210.442 289.701C210.126 289.492 209.877 289.194 209.696 288.808C209.517 288.419 209.427 287.953 209.427 287.41C209.427 286.866 209.518 286.401 209.699 286.015C209.883 285.629 210.134 285.333 210.452 285.128C210.771 284.923 211.132 284.82 211.536 284.82C211.848 284.82 212.099 284.873 212.289 284.977C212.481 285.08 212.629 285.2 212.734 285.337C212.841 285.475 212.924 285.596 212.983 285.701H213.042V283.21H214.021V289.914H213.065V289.132H212.983C212.924 289.239 212.839 289.361 212.727 289.498C212.618 289.636 212.468 289.756 212.276 289.858C212.084 289.961 211.835 290.012 211.529 290.012ZM211.745 289.177C212.027 289.177 212.265 289.103 212.459 288.955C212.655 288.804 212.804 288.596 212.904 288.33C213.007 288.063 213.058 287.753 213.058 287.4C213.058 287.051 213.008 286.745 212.907 286.483C212.807 286.221 212.66 286.017 212.465 285.871C212.271 285.725 212.031 285.652 211.745 285.652C211.451 285.652 211.205 285.728 211.009 285.881C210.812 286.034 210.664 286.242 210.563 286.506C210.465 286.77 210.416 287.068 210.416 287.4C210.416 287.736 210.466 288.038 210.567 288.307C210.667 288.575 210.816 288.788 211.012 288.945C211.211 289.1 211.455 289.177 211.745 289.177ZM217.665 290.016C217.169 290.016 216.743 289.91 216.385 289.698C216.029 289.484 215.754 289.184 215.56 288.798C215.368 288.409 215.272 287.954 215.272 287.433C215.272 286.918 215.368 286.464 215.56 286.071C215.754 285.678 216.025 285.371 216.372 285.151C216.721 284.93 217.129 284.82 217.596 284.82C217.88 284.82 218.155 284.867 218.421 284.961C218.687 285.055 218.926 285.202 219.138 285.403C219.35 285.604 219.517 285.864 219.639 286.185C219.761 286.504 219.822 286.891 219.822 287.347V287.694H215.825V286.961H218.863C218.863 286.704 218.811 286.476 218.706 286.277C218.601 286.076 218.454 285.918 218.264 285.802C218.076 285.687 217.856 285.629 217.603 285.629C217.328 285.629 217.087 285.696 216.882 285.832C216.679 285.965 216.522 286.139 216.411 286.356C216.302 286.569 216.247 286.802 216.247 287.053V287.626C216.247 287.962 216.306 288.248 216.424 288.483C216.544 288.719 216.711 288.899 216.925 289.024C217.139 289.146 217.389 289.207 217.675 289.207C217.86 289.207 218.029 289.181 218.182 289.128C218.335 289.074 218.467 288.993 218.578 288.886C218.689 288.779 218.775 288.647 218.833 288.49L219.76 288.657C219.686 288.93 219.553 289.169 219.361 289.374C219.171 289.577 218.932 289.735 218.644 289.849C218.358 289.96 218.031 290.016 217.665 290.016ZM223.335 284.886V285.671H220.589V284.886H223.335ZM221.325 283.681H222.304V288.438C222.304 288.627 222.333 288.77 222.389 288.866C222.446 288.96 222.519 289.025 222.609 289.06C222.7 289.092 222.8 289.109 222.907 289.109C222.985 289.109 223.054 289.103 223.113 289.092C223.172 289.081 223.218 289.073 223.25 289.066L223.427 289.875C223.37 289.897 223.29 289.918 223.185 289.94C223.08 289.964 222.949 289.977 222.792 289.98C222.534 289.984 222.294 289.938 222.072 289.842C221.849 289.746 221.669 289.598 221.532 289.397C221.394 289.196 221.325 288.944 221.325 288.641V283.681ZM225.962 290.025C225.643 290.025 225.355 289.966 225.097 289.849C224.84 289.729 224.636 289.555 224.485 289.328C224.337 289.101 224.262 288.823 224.262 288.493C224.262 288.21 224.317 287.976 224.426 287.793C224.535 287.609 224.683 287.464 224.868 287.357C225.054 287.25 225.261 287.17 225.49 287.115C225.719 287.06 225.953 287.019 226.191 286.991C226.492 286.956 226.736 286.927 226.924 286.906C227.112 286.882 227.248 286.843 227.333 286.791C227.418 286.739 227.461 286.653 227.461 286.536V286.513C227.461 286.227 227.38 286.005 227.219 285.848C227.059 285.691 226.821 285.612 226.505 285.612C226.175 285.612 225.916 285.686 225.726 285.832C225.538 285.976 225.408 286.136 225.336 286.313L224.416 286.103C224.525 285.798 224.685 285.551 224.894 285.364C225.106 285.174 225.349 285.036 225.624 284.951C225.899 284.864 226.189 284.82 226.492 284.82C226.693 284.82 226.905 284.844 227.13 284.892C227.357 284.938 227.569 285.023 227.765 285.148C227.964 285.272 228.127 285.45 228.253 285.681C228.38 285.91 228.443 286.208 228.443 286.575V289.914H227.487V289.227H227.448C227.385 289.353 227.29 289.478 227.163 289.6C227.036 289.722 226.874 289.823 226.675 289.904C226.477 289.985 226.239 290.025 225.962 290.025ZM226.174 289.24C226.445 289.24 226.676 289.186 226.868 289.079C227.063 288.972 227.21 288.833 227.31 288.66C227.413 288.486 227.464 288.299 227.464 288.1V287.452C227.429 287.487 227.362 287.52 227.261 287.55C227.163 287.579 227.051 287.604 226.924 287.626C226.797 287.645 226.674 287.664 226.554 287.681C226.434 287.697 226.334 287.71 226.253 287.721C226.063 287.745 225.89 287.785 225.732 287.842C225.577 287.899 225.453 287.98 225.359 288.087C225.268 288.192 225.222 288.332 225.222 288.506C225.222 288.749 225.311 288.932 225.49 289.056C225.669 289.179 225.897 289.24 226.174 289.24ZM229.827 289.914V284.886H230.806V289.914H229.827ZM230.321 284.11C230.151 284.11 230.005 284.053 229.882 283.94C229.762 283.824 229.702 283.686 229.702 283.527C229.702 283.366 229.762 283.228 229.882 283.115C230.005 282.999 230.151 282.941 230.321 282.941C230.491 282.941 230.636 282.999 230.756 283.115C230.879 283.228 230.94 283.366 230.94 283.527C230.94 283.686 230.879 283.824 230.756 283.94C230.636 284.053 230.491 284.11 230.321 284.11ZM233.181 283.21V289.914H232.202V283.21H233.181ZM238.346 286.113L237.459 286.27C237.422 286.157 237.363 286.049 237.282 285.946C237.204 285.844 237.097 285.76 236.961 285.694C236.826 285.629 236.657 285.596 236.454 285.596C236.177 285.596 235.945 285.658 235.76 285.783C235.574 285.905 235.482 286.063 235.482 286.257C235.482 286.425 235.544 286.561 235.668 286.663C235.793 286.766 235.993 286.85 236.271 286.915L237.069 287.099C237.532 287.206 237.877 287.37 238.104 287.593C238.331 287.816 238.444 288.105 238.444 288.461C238.444 288.762 238.357 289.03 238.182 289.266C238.01 289.499 237.769 289.683 237.459 289.816C237.151 289.949 236.794 290.016 236.388 290.016C235.825 290.016 235.366 289.896 235.01 289.655C234.655 289.413 234.436 289.069 234.356 288.624L235.302 288.48C235.361 288.727 235.482 288.913 235.665 289.04C235.848 289.164 236.087 289.227 236.382 289.227C236.703 289.227 236.959 289.16 237.151 289.027C237.343 288.892 237.439 288.727 237.439 288.533C237.439 288.375 237.38 288.243 237.263 288.136C237.147 288.03 236.969 287.949 236.729 287.894L235.878 287.708C235.409 287.601 235.062 287.43 234.837 287.197C234.614 286.963 234.503 286.668 234.503 286.31C234.503 286.013 234.586 285.753 234.752 285.531C234.918 285.308 235.147 285.134 235.439 285.01C235.732 284.883 236.067 284.82 236.444 284.82C236.988 284.82 237.415 284.938 237.727 285.174C238.04 285.407 238.246 285.72 238.346 286.113Z" fill="#727F96"/>
<g clip-path="url(#clip3_4003_3463)">
<path fill-rule="evenodd" clip-rule="evenodd" d="M243.68 284.694C243.593 284.603 243.545 284.482 243.547 284.355C243.548 284.229 243.599 284.109 243.688 284.02C243.777 283.931 243.898 283.88 244.024 283.879C244.15 283.878 244.271 283.926 244.362 284.013L247.397 287.049C247.487 287.14 247.538 287.262 247.538 287.389C247.538 287.517 247.487 287.639 247.397 287.729L244.362 290.765C244.272 290.856 244.149 290.906 244.021 290.906C243.893 290.906 243.771 290.856 243.68 290.765C243.59 290.675 243.539 290.552 243.539 290.424C243.539 290.296 243.59 290.174 243.68 290.083L246.372 287.388L243.68 284.694Z" fill="#727F96"/>
</g>
</g>
</g>
<g opacity="0.3">
<path d="M4.14258 4.92383H504.143V334.254C504.143 336.463 502.352 338.254 500.143 338.254H8.14259C5.93345 338.254 4.14258 336.463 4.14258 334.254V4.92383Z" fill="url(#paint0_linear_4003_3463)"/>
</g>
</g>
<defs>
<linearGradient id="paint0_linear_4003_3463" x1="254.143" y1="4.92383" x2="254.143" y2="338.254" gradientUnits="userSpaceOnUse">
<stop stop-color="#BEC9DC" stop-opacity="0"/>
<stop offset="1" stop-color="#BEC9DC" stop-opacity="0.4"/>
</linearGradient>
<clipPath id="clip0_4003_3463">
<rect x="4.14258" y="4.92383" width="500" height="333.33" rx="4" fill="white"/>
</clipPath>
<clipPath id="clip1_4003_3463">
<rect x="4.14258" y="4.92383" width="500" height="333.33" rx="4" fill="white"/>
</clipPath>
<clipPath id="clip2_4003_3463">
<rect width="500" height="333.33" fill="white" transform="translate(4.14258 54.9141)"/>
</clipPath>
<clipPath id="clip3_4003_3463">
<rect width="5" height="8" fill="white" transform="translate(243.143 283.414)"/>
</clipPath>
</defs>
</svg>
