<svg width="332" height="221" viewBox="0 0 332 221" fill="none" xmlns="http://www.w3.org/2000/svg">
<g clip-path="url(#clip0_4003_1800)">
<rect x="0.660156" y="0.0800781" width="330.67" height="220.44" rx="4" fill="#F6F9FC"/>
<g clip-path="url(#clip1_4003_1800)">
<g clip-path="url(#clip2_4003_1800)">
<g clip-path="url(#clip3_4003_1800)">
<g clip-path="url(#clip4_4003_1800)">
<mask id="mask0_4003_1800" style="mask-type:luminance" maskUnits="userSpaceOnUse" x="120" y="105" width="10" height="10">
<path d="M120.169 105.818H129.041V114.69H120.169V105.818Z" fill="white"/>
</mask>
<g mask="url(#mask0_4003_1800)">
<path d="M123.324 113.974C123.247 114.051 123.15 114.103 123.043 114.125C122.937 114.146 122.826 114.135 122.726 114.094C122.626 114.052 122.54 113.982 122.48 113.891C122.42 113.801 122.387 113.695 122.388 113.586V106.922C122.387 106.813 122.42 106.707 122.48 106.617C122.54 106.527 122.626 106.456 122.726 106.415C122.826 106.373 122.937 106.362 123.043 106.384C123.15 106.405 123.247 106.458 123.324 106.535L126.663 109.867C126.713 109.918 126.754 109.978 126.781 110.045C126.809 110.111 126.823 110.182 126.823 110.254C126.823 110.326 126.809 110.397 126.781 110.464C126.754 110.53 126.713 110.59 126.663 110.641L123.324 113.974Z" fill="#7A73FF"/>
</g>
<mask id="mask1_4003_1800" style="mask-type:luminance" maskUnits="userSpaceOnUse" x="129" y="105" width="9" height="10">
<path d="M129.041 105.818H137.912V114.69H129.041V105.818Z" fill="white"/>
</mask>
<g mask="url(#mask1_4003_1800)">
<path d="M132.195 113.974C132.118 114.051 132.02 114.103 131.914 114.125C131.807 114.146 131.697 114.135 131.597 114.094C131.496 114.052 131.411 113.982 131.35 113.891C131.29 113.801 131.258 113.695 131.258 113.586V106.922C131.258 106.813 131.29 106.707 131.35 106.617C131.411 106.527 131.496 106.456 131.597 106.415C131.697 106.373 131.807 106.362 131.914 106.384C132.02 106.405 132.118 106.458 132.195 106.535L135.533 109.867C135.584 109.918 135.624 109.978 135.652 110.045C135.679 110.111 135.694 110.182 135.694 110.254C135.694 110.326 135.679 110.397 135.652 110.464C135.624 110.53 135.584 110.59 135.533 110.641L132.195 113.974Z" fill="#7A73FF"/>
</g>
<mask id="mask2_4003_1800" style="mask-type:luminance" maskUnits="userSpaceOnUse" x="137" y="105" width="10" height="10">
<path d="M137.911 105.818H146.782V114.69H137.911V105.818Z" fill="white"/>
</mask>
<g mask="url(#mask2_4003_1800)">
<path d="M141.066 113.974C140.989 114.051 140.891 114.103 140.785 114.125C140.678 114.146 140.568 114.135 140.468 114.094C140.367 114.052 140.282 113.982 140.221 113.891C140.161 113.801 140.129 113.695 140.129 113.586V106.922C140.129 106.813 140.161 106.707 140.221 106.617C140.282 106.527 140.367 106.456 140.468 106.415C140.568 106.373 140.678 106.362 140.785 106.384C140.891 106.405 140.989 106.458 141.066 106.535L144.403 109.867C144.454 109.918 144.495 109.978 144.523 110.045C144.55 110.111 144.564 110.182 144.564 110.254C144.564 110.326 144.55 110.397 144.523 110.464C144.495 110.53 144.454 110.59 144.403 110.641L141.066 113.974Z" fill="#7A73FF"/>
</g>
<mask id="mask3_4003_1800" style="mask-type:luminance" maskUnits="userSpaceOnUse" x="146" y="105" width="10" height="10">
<path d="M146.783 105.818H155.654V114.69H146.783V105.818Z" fill="white"/>
</mask>
<g mask="url(#mask3_4003_1800)">
<path d="M149.936 113.974C149.86 114.051 149.762 114.103 149.656 114.125C149.549 114.146 149.439 114.135 149.338 114.094C149.238 114.052 149.152 113.982 149.092 113.891C149.032 113.801 149 113.695 149 113.586V106.922C149 106.813 149.032 106.707 149.092 106.617C149.152 106.527 149.238 106.456 149.338 106.415C149.439 106.373 149.549 106.362 149.656 106.384C149.762 106.405 149.86 106.458 149.936 106.535L153.275 109.867C153.326 109.918 153.366 109.978 153.394 110.045C153.421 110.111 153.435 110.182 153.435 110.254C153.435 110.326 153.421 110.397 153.394 110.464C153.366 110.53 153.326 110.59 153.275 110.641L149.936 113.974Z" fill="#7A73FF"/>
</g>
<mask id="mask4_4003_1800" style="mask-type:luminance" maskUnits="userSpaceOnUse" x="155" y="105" width="10" height="10">
<path d="M155.653 105.818H164.524V114.69H155.653V105.818Z" fill="white"/>
</mask>
<g mask="url(#mask4_4003_1800)">
<path d="M158.807 113.974C158.731 114.051 158.633 114.103 158.527 114.125C158.42 114.146 158.31 114.135 158.209 114.094C158.109 114.052 158.023 113.982 157.963 113.891C157.903 113.801 157.871 113.695 157.871 113.586V106.922C157.871 106.813 157.903 106.707 157.963 106.617C158.023 106.527 158.109 106.456 158.209 106.415C158.31 106.373 158.42 106.362 158.527 106.384C158.633 106.405 158.731 106.458 158.807 106.535L162.145 109.867C162.196 109.918 162.237 109.978 162.264 110.045C162.292 110.111 162.306 110.182 162.306 110.254C162.306 110.326 162.292 110.397 162.264 110.464C162.237 110.53 162.196 110.59 162.145 110.641L158.807 113.974Z" fill="#7A73FF"/>
</g>
<mask id="mask5_4003_1800" style="mask-type:luminance" maskUnits="userSpaceOnUse" x="164" y="105" width="10" height="10">
<path d="M164.524 105.818H173.396V114.69H164.524V105.818Z" fill="white"/>
</mask>
<g mask="url(#mask5_4003_1800)">
<path d="M167.678 113.974C167.601 114.051 167.504 114.103 167.397 114.125C167.291 114.146 167.18 114.135 167.08 114.094C166.98 114.052 166.894 113.982 166.834 113.891C166.773 113.801 166.741 113.695 166.742 113.586V106.922C166.741 106.813 166.773 106.707 166.834 106.617C166.894 106.527 166.98 106.456 167.08 106.415C167.18 106.373 167.291 106.362 167.397 106.384C167.504 106.405 167.601 106.458 167.678 106.535L171.016 109.867C171.067 109.918 171.108 109.978 171.135 110.045C171.163 110.111 171.177 110.182 171.177 110.254C171.177 110.326 171.163 110.397 171.135 110.464C171.108 110.53 171.067 110.59 171.016 110.641L167.678 113.974Z" fill="#7A73FF"/>
</g>
<mask id="mask6_4003_1800" style="mask-type:luminance" maskUnits="userSpaceOnUse" x="173" y="105" width="10" height="10">
<path d="M173.395 105.818H182.266V114.69H173.395V105.818Z" fill="white"/>
</mask>
<g mask="url(#mask6_4003_1800)">
<path d="M176.549 113.974C176.472 114.051 176.375 114.103 176.268 114.125C176.162 114.146 176.051 114.135 175.951 114.094C175.851 114.052 175.765 113.982 175.705 113.891C175.645 113.801 175.613 113.695 175.613 113.586V106.922C175.613 106.813 175.645 106.707 175.705 106.617C175.765 106.527 175.851 106.456 175.951 106.415C176.051 106.373 176.162 106.362 176.268 106.384C176.375 106.405 176.472 106.458 176.549 106.535L179.887 109.867C179.938 109.918 179.978 109.978 180.006 110.045C180.034 110.111 180.048 110.182 180.048 110.254C180.048 110.326 180.034 110.397 180.006 110.464C179.978 110.53 179.938 110.59 179.887 110.641L176.549 113.974Z" fill="#7A73FF"/>
</g>
<mask id="mask7_4003_1800" style="mask-type:luminance" maskUnits="userSpaceOnUse" x="182" y="105" width="10" height="10">
<path d="M182.266 105.818H191.137V114.69H182.266V105.818Z" fill="white"/>
</mask>
<g mask="url(#mask7_4003_1800)">
<path d="M185.42 113.974C185.343 114.051 185.245 114.103 185.139 114.125C185.032 114.146 184.922 114.135 184.822 114.094C184.721 114.052 184.636 113.982 184.575 113.891C184.515 113.801 184.483 113.695 184.483 113.586V106.922C184.483 106.813 184.515 106.707 184.575 106.617C184.636 106.527 184.721 106.456 184.822 106.415C184.922 106.373 185.032 106.362 185.139 106.384C185.245 106.405 185.343 106.458 185.42 106.535L188.758 109.867C188.809 109.918 188.849 109.978 188.877 110.045C188.904 110.111 188.919 110.182 188.919 110.254C188.919 110.326 188.904 110.397 188.877 110.464C188.849 110.53 188.809 110.59 188.758 110.641L185.42 113.974Z" fill="#7A73FF"/>
</g>
<mask id="mask8_4003_1800" style="mask-type:luminance" maskUnits="userSpaceOnUse" x="191" y="105" width="10" height="10">
<path d="M191.136 105.818H200.008V114.69H191.136V105.818Z" fill="white"/>
</mask>
<g mask="url(#mask8_4003_1800)">
<path d="M194.291 113.974C194.214 114.051 194.116 114.103 194.01 114.125C193.904 114.146 193.793 114.135 193.693 114.094C193.592 114.052 193.507 113.982 193.447 113.891C193.386 113.801 193.354 113.695 193.354 113.586V106.922C193.354 106.813 193.386 106.707 193.447 106.617C193.507 106.527 193.592 106.456 193.693 106.415C193.793 106.373 193.904 106.362 194.01 106.384C194.116 106.405 194.214 106.458 194.291 106.535L197.628 109.867C197.679 109.918 197.72 109.978 197.748 110.045C197.775 110.111 197.79 110.182 197.79 110.254C197.79 110.326 197.775 110.397 197.748 110.464C197.72 110.53 197.679 110.59 197.628 110.641L194.291 113.974Z" fill="#7A73FF"/>
</g>
<mask id="mask9_4003_1800" style="mask-type:luminance" maskUnits="userSpaceOnUse" x="200" y="105" width="9" height="10">
<path d="M200.007 105.818H208.879V114.69H200.007V105.818Z" fill="white"/>
</mask>
<g mask="url(#mask9_4003_1800)">
<path d="M203.161 113.974C203.084 114.051 202.987 114.103 202.88 114.125C202.774 114.146 202.663 114.135 202.563 114.094C202.463 114.052 202.377 113.982 202.317 113.891C202.256 113.801 202.224 113.695 202.225 113.586V106.922C202.224 106.813 202.256 106.707 202.317 106.617C202.377 106.527 202.463 106.456 202.563 106.415C202.663 106.373 202.774 106.362 202.88 106.384C202.987 106.405 203.084 106.458 203.161 106.535L206.499 109.867C206.55 109.918 206.591 109.978 206.618 110.045C206.646 110.111 206.66 110.182 206.66 110.254C206.66 110.326 206.646 110.397 206.618 110.464C206.591 110.53 206.55 110.59 206.499 110.641L203.161 113.974Z" fill="#7A73FF"/>
</g>
<mask id="mask10_4003_1800" style="mask-type:luminance" maskUnits="userSpaceOnUse" x="208" y="105" width="10" height="10">
<path d="M208.878 105.818H217.749V114.69H208.878V105.818Z" fill="white"/>
</mask>
<g mask="url(#mask10_4003_1800)">
<path d="M212.032 113.974C211.956 114.051 211.858 114.103 211.752 114.125C211.645 114.146 211.535 114.135 211.435 114.094C211.334 114.052 211.248 113.982 211.188 113.891C211.128 113.801 211.096 113.695 211.096 113.586V106.922C211.096 106.813 211.128 106.707 211.188 106.617C211.248 106.527 211.334 106.456 211.435 106.415C211.535 106.373 211.645 106.362 211.752 106.384C211.858 106.405 211.956 106.458 212.032 106.535L215.37 109.867C215.421 109.918 215.462 109.978 215.489 110.045C215.517 110.111 215.531 110.182 215.531 110.254C215.531 110.326 215.517 110.397 215.489 110.464C215.462 110.53 215.421 110.59 215.37 110.641L212.032 113.974Z" fill="#7A73FF"/>
</g>
<path d="M250.645 159.601C278.149 159.601 300.445 137.305 300.445 109.802C300.445 82.298 278.149 60.002 250.645 60.002C223.141 60.002 200.845 82.298 200.845 109.802C200.845 137.305 223.141 159.601 250.645 159.601Z" fill="white"/>
<path fill-rule="evenodd" clip-rule="evenodd" d="M238.904 92.8418C237.321 92.8418 235.802 93.4707 234.682 94.5903C233.563 95.7099 232.933 97.2284 232.933 98.8118V113.253C232.933 114.836 233.562 116.355 234.682 117.475C235.802 118.595 237.32 119.224 238.904 119.224H260.882C262.465 119.224 263.984 118.595 265.104 117.475C266.224 116.355 266.853 114.836 266.853 113.253V98.8118C266.852 97.2284 266.223 95.7099 265.103 94.5903C263.984 93.4707 262.465 92.8418 260.882 92.8418H238.904ZM237.173 98.4951C237.359 98.495 237.543 98.4583 237.714 98.3872C237.886 98.3161 238.042 98.2118 238.173 98.0805C238.304 97.9491 238.408 97.7931 238.479 97.6215C238.55 97.4499 238.587 97.266 238.587 97.0802C238.587 96.8945 238.55 96.7106 238.479 96.5391C238.408 96.3675 238.304 96.2116 238.172 96.0803C238.041 95.949 237.885 95.8449 237.713 95.7739C237.542 95.7029 237.358 95.6664 237.172 95.6664C236.797 95.6666 236.437 95.8157 236.172 96.081C235.907 96.3464 235.758 96.7061 235.758 97.0812C235.758 97.4563 235.908 97.816 236.173 98.0812C236.438 98.3463 236.798 98.4952 237.173 98.4951ZM243.297 97.0807C243.297 97.2663 243.261 97.4501 243.19 97.6216C243.119 97.7931 243.015 97.9489 242.883 98.0801C242.752 98.2114 242.596 98.3155 242.425 98.3865C242.253 98.4575 242.07 98.4941 241.884 98.4941C241.699 98.4941 241.515 98.4575 241.343 98.3865C241.172 98.3155 241.016 98.2114 240.885 98.0801C240.754 97.9489 240.649 97.7931 240.578 97.6216C240.507 97.4501 240.471 97.2663 240.471 97.0807C240.471 96.7059 240.62 96.3464 240.885 96.0814C241.15 95.8163 241.509 95.6674 241.884 95.6674C242.259 95.6674 242.618 95.8163 242.883 96.0814C243.149 96.3464 243.297 96.7059 243.297 97.0807ZM246.595 98.4951C246.97 98.4951 247.329 98.3462 247.595 98.0811C247.86 97.8161 248.008 97.4566 248.008 97.0817C248.008 96.7069 247.86 96.3474 247.595 96.0824C247.329 95.8173 246.97 95.6684 246.595 95.6684C246.22 95.6684 245.861 95.8173 245.596 96.0824C245.331 96.3474 245.182 96.7069 245.182 97.0817C245.182 97.4566 245.331 97.8161 245.596 98.0811C245.861 98.3462 246.22 98.4951 246.595 98.4951Z" fill="#80E9FF"/>
<path fill-rule="evenodd" clip-rule="evenodd" d="M265.79 103.205C267.47 103.205 268.079 103.38 268.693 103.709C269.308 104.038 269.789 104.52 270.117 105.133C270.446 105.748 270.621 106.357 270.621 108.037V121.93C270.621 123.609 270.446 124.219 270.117 124.833C269.796 125.44 269.3 125.936 268.693 126.257C268.079 126.586 267.47 126.76 265.79 126.76H245.302C243.622 126.76 243.012 126.586 242.398 126.257C241.791 125.936 241.295 125.44 240.974 124.833C240.645 124.219 240.471 123.609 240.471 121.93V108.037C240.471 106.357 240.645 105.748 240.974 105.133C241.302 104.52 241.784 104.038 242.398 103.709C243.012 103.38 243.622 103.205 245.302 103.205H265.79ZM255.85 108.858C252.841 108.858 250.835 110.392 250.835 112.956C250.835 116.964 256.474 116.313 256.474 118.041C256.474 118.711 255.879 118.927 255.051 118.927C253.822 118.927 252.236 118.432 250.991 117.77V121.228C252.371 121.807 253.768 122.049 255.047 122.049C258.132 122.049 260.257 120.562 260.257 117.956C260.257 113.639 254.587 114.413 254.587 112.784C254.587 112.219 255.069 112 255.847 112C256.974 112 258.408 112.336 259.536 112.931V109.522C258.307 109.043 257.079 108.858 255.85 108.858Z" fill="#7A73FF"/>
<path fill-rule="evenodd" clip-rule="evenodd" d="M266.853 103.237C266.499 103.214 266.144 103.204 265.79 103.205H245.302C243.622 103.205 243.012 103.381 242.398 103.709C241.784 104.038 241.302 104.52 240.974 105.133C240.645 105.748 240.471 106.358 240.471 108.037V119.223H250.991V117.771C252.236 118.432 253.822 118.927 255.051 118.927C255.879 118.927 256.474 118.711 256.474 118.042C256.474 117.356 255.588 117.046 254.518 116.669C252.89 116.097 250.835 115.375 250.835 112.956C250.835 110.392 252.841 108.859 255.85 108.859C257.079 108.859 258.307 109.043 259.536 109.522V112.931C258.408 112.337 256.974 112 255.847 112C255.069 112 254.587 112.219 254.587 112.784C254.587 113.404 255.408 113.676 256.426 114.013C258.081 114.562 260.257 115.282 260.257 117.956C260.257 118.414 260.191 118.836 260.067 119.223H260.882C261.666 119.223 262.442 119.069 263.167 118.769C263.891 118.469 264.549 118.029 265.104 117.475C265.658 116.92 266.098 116.262 266.398 115.538C266.698 114.813 266.853 114.037 266.853 113.253V103.237Z" fill="#0048E5"/>
<path d="M82.3217 159.601C109.825 159.601 132.121 137.305 132.121 109.802C132.121 82.298 109.825 60.002 82.3217 60.002C54.8181 60.002 32.522 82.298 32.522 109.802C32.522 137.305 54.8181 159.601 82.3217 159.601Z" fill="white"/>
<path fill-rule="evenodd" clip-rule="evenodd" d="M82.0232 94.6621C91.7042 94.6621 99.5527 102.511 99.5527 112.192C99.5527 117.765 96.9521 122.731 92.8974 125.941C91.9253 122.314 87.4264 119.573 82.0232 119.573C76.6199 119.573 72.121 122.314 71.1469 125.94C69.0706 124.301 67.3932 122.212 66.2408 119.83C65.0884 117.449 64.4911 114.837 64.4937 112.192C64.4937 102.511 72.3421 94.6621 82.0232 94.6621ZM82.0232 105.618C80.5703 105.618 79.177 106.195 78.1496 107.222C77.1223 108.25 76.5452 109.643 76.5452 111.096C76.5452 112.549 77.1223 113.942 78.1496 114.97C79.177 115.997 80.5703 116.574 82.0232 116.574C83.476 116.574 84.8693 115.997 85.8967 114.97C86.924 113.942 87.5011 112.549 87.5011 111.096C87.5011 109.643 86.924 108.25 85.8967 107.222C84.8693 106.195 83.476 105.618 82.0232 105.618Z" fill="#80E9FF"/>
<path fill-rule="evenodd" clip-rule="evenodd" d="M97.3016 88.4238C98.443 89.1807 101.454 90.9616 104.943 91.3122C105.594 91.3769 106.126 91.9018 106.126 92.5572V97.3977C106.126 107.06 98.0555 111.093 96.8135 111.093C95.5725 111.093 87.501 107.06 87.501 97.3977V92.5572C87.501 91.9018 88.0328 91.3769 88.6842 91.3122C92.1732 90.9616 95.1851 89.1807 96.3255 88.4238C96.4703 88.3283 96.64 88.2773 96.8135 88.2773C96.987 88.2773 97.1567 88.3283 97.3016 88.4238ZM95.1403 101.404L101.647 94.7752C102.304 94.1079 103.301 94.8848 102.48 95.7613C102.48 95.7613 96.2349 103.606 95.9062 104.055C95.8079 104.213 95.6708 104.344 95.5078 104.435C95.3449 104.526 95.1614 104.573 94.9749 104.573C94.7884 104.573 94.605 104.526 94.442 104.435C94.279 104.344 94.1419 104.213 94.0437 104.055L91.9949 100.549C91.8908 100.359 91.8581 100.138 91.9027 99.9254C91.9473 99.7132 92.0663 99.5239 92.2381 99.3917C92.41 99.2594 92.6235 99.193 92.8401 99.2043C93.0566 99.2157 93.262 99.304 93.4192 99.4534L95.1403 101.404Z" fill="#7A73FF"/>
<path fill-rule="evenodd" clip-rule="evenodd" d="M99.4091 109.937C98.194 110.722 97.19 111.093 96.8145 111.093C95.5725 111.093 87.502 107.06 87.502 97.3977V95.5352C90.6383 96.5695 93.4194 98.4675 95.5257 101.011L95.1402 101.404L93.4202 99.4534C93.263 99.304 93.0576 99.2156 92.8411 99.2043C92.6245 99.193 92.411 99.2594 92.2391 99.3916C92.0672 99.5239 91.9483 99.7131 91.9037 99.9254C91.8591 100.138 91.8918 100.359 91.9959 100.549L94.0446 104.055C94.1429 104.213 94.28 104.344 94.443 104.435C94.6059 104.526 94.7894 104.573 94.9759 104.573C95.1624 104.573 95.3459 104.526 95.5088 104.435C95.6718 104.344 95.8089 104.213 95.9071 104.055C95.9789 103.956 96.3384 103.498 96.8553 102.845C98.2142 104.994 99.0859 107.415 99.4091 109.937Z" fill="#0048E5"/>
</g>
</g>
</g>
</g>
<g opacity="0.3">
<path d="M0.660156 0.0800781H331.33V216.52C331.33 218.729 329.539 220.52 327.33 220.52H4.66015C2.45101 220.52 0.660156 218.729 0.660156 216.52V0.0800781Z" fill="url(#paint0_linear_4003_1800)"/>
</g>
</g>
<defs>
<linearGradient id="paint0_linear_4003_1800" x1="165.995" y1="0.0800781" x2="165.995" y2="220.52" gradientUnits="userSpaceOnUse">
<stop stop-color="#BEC9DC" stop-opacity="0"/>
<stop offset="1" stop-color="#BEC9DC" stop-opacity="0.4"/>
</linearGradient>
<clipPath id="clip0_4003_1800">
<rect x="0.660156" y="0.0800781" width="330.67" height="220.44" rx="4" fill="white"/>
</clipPath>
<clipPath id="clip1_4003_1800">
<rect x="0.660156" y="0.0800781" width="330.67" height="220.44" rx="4" fill="white"/>
</clipPath>
<clipPath id="clip2_4003_1800">
<rect width="330.67" height="220.44" fill="white" transform="translate(0.660156 0.0800781)"/>
</clipPath>
<clipPath id="clip3_4003_1800">
<rect width="330.67" height="220.12" fill="white" transform="translate(0.650391 0.240234)"/>
</clipPath>
<clipPath id="clip4_4003_1800">
<rect width="330.67" height="220.12" fill="white" transform="translate(0.650391 0.240234)"/>
</clipPath>
</defs>
</svg>
