<svg width="339" height="225" viewBox="0 0 339 225" fill="none" xmlns="http://www.w3.org/2000/svg">
<g clip-path="url(#clip0_4003_1764)">
<rect x="4" y="4.08008" width="330.66" height="220.44" rx="4" fill="#F6F9FC"/>
<g clip-path="url(#clip1_4003_1764)">
<g clip-path="url(#clip2_4003_1764)">
<g clip-path="url(#clip3_4003_1764)">
<g clip-path="url(#clip4_4003_1764)">
<g clip-path="url(#clip5_4003_1764)">
<mask id="mask0_4003_1764" style="mask-type:luminance" maskUnits="userSpaceOnUse" x="4" y="7" width="359" height="251">
<path d="M362.29 7.04297H4V257.747H362.29V7.04297Z" fill="white"/>
</mask>
<g mask="url(#mask0_4003_1764)">
<path d="M98.5715 257.758C125.827 257.758 147.923 235.44 147.923 207.908C147.923 180.377 125.827 158.059 98.5715 158.059C71.3155 158.059 49.2202 180.377 49.2202 207.908C49.2202 235.44 71.3155 257.758 98.5715 257.758Z" fill="#0077C5"/>
<path fill-rule="evenodd" clip-rule="evenodd" d="M118.562 213.475C118.434 213.474 118.311 213.421 118.22 213.327C118.128 213.232 118.077 213.104 118.077 212.971C118.082 212.84 118.136 212.718 118.226 212.628C118.316 212.538 118.437 212.488 118.562 212.488C118.688 212.488 118.808 212.538 118.899 212.628C118.99 212.718 119.043 212.84 119.049 212.971C119.049 213.247 118.832 213.475 118.562 213.475ZM118.562 212.373C118.243 212.373 117.985 212.639 117.985 212.971C117.985 213.302 118.243 213.562 118.562 213.562C118.882 213.562 119.141 213.301 119.141 212.971C119.141 212.639 118.882 212.373 118.562 212.373ZM118.454 212.925V212.734H118.56C118.621 212.734 118.69 212.753 118.69 212.827C118.69 212.907 118.614 212.925 118.547 212.925H118.454ZM118.806 212.828C118.806 212.684 118.687 212.631 118.565 212.631H118.338V213.303H118.454V213.023H118.538L118.69 213.304H118.832L118.656 213.01C118.748 212.989 118.806 212.926 118.806 212.828ZM115.17 204.302C115.327 204.306 115.483 204.276 115.629 204.216C115.775 204.155 115.908 204.066 116.021 203.952C116.132 203.838 116.222 203.701 116.282 203.551C116.343 203.401 116.375 203.24 116.375 203.077C116.375 202.914 116.343 202.753 116.282 202.602C116.222 202.452 116.133 202.316 116.021 202.202C115.908 202.088 115.776 201.998 115.63 201.938C115.484 201.877 115.328 201.849 115.171 201.852C114.862 201.858 114.568 201.99 114.351 202.219C114.134 202.448 114.013 202.756 114.013 203.077C114.013 203.397 114.134 203.705 114.351 203.934C114.568 204.163 114.862 204.296 115.171 204.302H115.17ZM112.002 205.36V207.157H114.193V213.476H116.147V207.157H118.337V205.36H112.002ZM94.954 204.302C95.1091 204.302 95.2627 204.27 95.4059 204.209C95.5491 204.147 95.6793 204.057 95.789 203.943C95.8986 203.83 95.9856 203.695 96.0449 203.546C96.1043 203.396 96.1348 203.238 96.1348 203.077C96.1348 202.916 96.1043 202.757 96.0449 202.608C95.9856 202.459 95.8986 202.325 95.789 202.21C95.6793 202.097 95.5491 202.007 95.4059 201.945C95.2627 201.883 95.1091 201.852 94.954 201.852C94.6451 201.858 94.3508 201.99 94.1345 202.219C93.9182 202.448 93.797 202.756 93.797 203.077C93.797 203.397 93.9182 203.705 94.1345 203.934C94.3508 204.163 94.6451 204.296 94.954 204.302ZM91.7863 207.156H93.9768V213.476H95.9304V207.157H98.1214V205.36H91.7868V207.157L91.7863 207.156ZM108.679 213.476H110.633V205.365H108.679V213.476ZM104.725 209.826C104.725 210.908 104.138 212.022 102.901 212.022C101.648 212.022 101.436 210.823 101.436 209.86V205.365H99.4817V210.434C99.4817 212.09 100.328 213.712 102.364 213.712C103.52 213.712 104.448 212.985 104.79 212.174H104.823V213.476H106.678V205.365H104.725V209.826ZM87.9091 205.128C86.753 205.128 85.825 205.855 85.4831 206.665H85.4502V205.365H83.5944V213.476H85.5481V209.015C85.5481 207.933 86.1346 206.817 87.3719 206.817C88.6252 206.817 88.8374 208.018 88.8374 208.981V213.476H90.7911V208.406C90.7911 206.75 89.9451 205.128 87.9091 205.128ZM79.6387 213.476H81.5923V205.365H79.6387V213.476Z" fill="white"/>
<path d="M176.024 136.343C203.28 136.343 225.375 114.248 225.375 86.9919C225.375 59.7359 203.28 37.6406 176.024 37.6406C148.768 37.6406 126.672 59.7359 126.672 86.9919C126.672 114.248 148.768 136.343 176.024 136.343Z" fill="black"/>
<path fill-rule="evenodd" clip-rule="evenodd" d="M146.013 84.6736C146.748 84.6736 147.438 84.971 147.955 85.5111C149.026 86.628 149.026 88.4455 147.955 89.5623L143.874 93.8197L143.136 93.0509L147.218 88.7933C147.539 88.4583 147.716 88.012 147.716 87.5366C147.716 87.0613 147.539 86.6152 147.218 86.2802C146.553 85.5876 145.472 85.5874 144.808 86.2803L140.078 91.2146L139.341 90.4455L144.071 85.5115C144.589 84.9712 145.279 84.6738 146.013 84.6736ZM145.64 87.1455L146.374 87.9157L141.666 92.857C141.15 93.3981 140.464 93.6959 139.734 93.6961C139.003 93.6961 138.317 93.3982 137.801 92.8574L137.434 92.4724L138.168 91.7022L138.535 92.0872C139.196 92.7811 140.271 92.7808 140.932 92.087L145.64 87.1455ZM160.908 84.3028C161.355 84.3028 161.763 84.3827 162.133 84.5425C162.503 84.7024 162.817 84.926 163.077 85.2137C163.336 85.5015 163.537 85.8458 163.681 86.2467C163.824 86.6478 163.896 87.0865 163.896 87.5629C163.896 88.0571 163.82 88.5031 163.668 88.9011C163.516 89.2993 163.3 89.6435 163.019 89.9339L163.813 90.9191V91.2242H162.804L162.249 90.5096C162.055 90.6025 161.848 90.675 161.628 90.7273C161.407 90.7796 161.17 90.8058 160.916 90.8058C160.458 90.8058 160.046 90.7257 159.679 90.5661C159.312 90.4062 159 90.1825 158.743 89.8949C158.486 89.6071 158.288 89.2645 158.148 88.8661C158.007 88.4681 157.937 88.0338 157.937 87.5629C157.937 87.0865 158.007 86.6493 158.148 86.251C158.288 85.8531 158.488 85.5101 158.748 85.2224C159.007 84.9348 159.319 84.7096 159.687 84.5468C160.054 84.3843 160.461 84.3028 160.908 84.3028ZM166.605 84.3028V88.138C166.605 88.7101 166.722 89.1348 166.959 89.4121C167.196 89.6895 167.526 89.8279 167.949 89.8279C168.372 89.8279 168.702 89.6895 168.939 89.4121C169.175 89.1348 169.293 88.7101 169.293 88.138V84.3028H170.333V88.1642C170.333 88.6196 170.278 89.0091 170.168 89.3332C170.057 89.6572 169.901 89.9228 169.698 90.1302C169.495 90.3374 169.244 90.4892 168.947 90.5855C168.65 90.6818 168.317 90.7298 167.949 90.7298C167.575 90.7298 167.24 90.6818 166.947 90.5855C166.652 90.4892 166.403 90.3374 166.2 90.1302C165.997 89.9228 165.84 89.6572 165.73 89.3332C165.62 89.0091 165.565 88.6196 165.565 88.1642V84.3028H166.605ZM154.389 84.1792C155.002 84.1792 155.488 84.3324 155.847 84.6389C156.205 84.9455 156.416 85.3556 156.476 85.8694L155.482 85.9569C155.422 85.6942 155.3 85.4899 155.118 85.344C154.936 85.198 154.681 85.125 154.357 85.125C154.053 85.125 153.815 85.1994 153.644 85.3483C153.472 85.4973 153.387 85.6886 153.387 85.922C153.387 86.0562 153.412 86.1684 153.461 86.259C153.512 86.3497 153.583 86.4284 153.678 86.4955C153.771 86.5627 153.886 86.6225 154.021 86.6749C154.156 86.7275 154.309 86.7833 154.48 86.8414L154.903 86.9816C155.168 87.0691 155.407 87.161 155.619 87.2573C155.831 87.3537 156.012 87.4691 156.161 87.6034C156.31 87.7376 156.425 87.8982 156.504 88.0851C156.585 88.2719 156.625 88.5026 156.625 88.7769C156.625 89.0689 156.57 89.336 156.46 89.5781C156.349 89.8205 156.195 90.0263 155.996 90.1955C155.797 90.3649 155.561 90.4964 155.287 90.5895C155.014 90.6829 154.712 90.7298 154.381 90.7298C153.768 90.7298 153.257 90.5781 152.849 90.2744C152.441 89.9708 152.189 89.5125 152.095 88.8994L153.106 88.803C153.166 89.1183 153.308 89.3651 153.533 89.543C153.756 89.7212 154.05 89.8102 154.414 89.8102C154.773 89.8102 155.051 89.7226 155.246 89.5474C155.442 89.3724 155.54 89.1418 155.54 88.8556C155.54 88.7155 155.514 88.5973 155.462 88.5009C155.409 88.4046 155.336 88.3229 155.242 88.2557C155.148 88.1888 155.033 88.1316 154.895 88.0851C154.756 88.0383 154.601 87.9887 154.431 87.9361L153.984 87.8048C153.718 87.7289 153.481 87.637 153.271 87.5289C153.062 87.4209 152.882 87.2939 152.733 87.148C152.584 87.002 152.47 86.8342 152.393 86.6444C152.316 86.4547 152.278 86.2341 152.278 85.9832C152.278 85.7204 152.327 85.4782 152.427 85.2562C152.526 85.0347 152.667 84.8446 152.849 84.687C153.031 84.5295 153.252 84.4054 153.512 84.3147C153.771 84.2246 154.064 84.1792 154.389 84.1792ZM209.903 84.3028C210.561 84.3028 211.112 84.461 211.555 84.7766C211.998 85.0924 212.312 85.5118 212.496 86.0344L211.434 86.2497C211.289 85.9339 211.087 85.6854 210.827 85.5045C210.569 85.3237 210.255 85.2332 209.887 85.2332C209.592 85.2332 209.328 85.2919 209.097 85.4092C208.865 85.5266 208.671 85.6882 208.512 85.8942C208.353 86.1001 208.231 86.3433 208.148 86.6238C208.065 86.9041 208.022 87.2044 208.022 87.5248C208.022 87.8509 208.066 88.1529 208.152 88.4304C208.238 88.7082 208.364 88.9482 208.529 89.1514C208.692 89.3546 208.892 89.5132 209.126 89.6276C209.36 89.7422 209.628 89.7994 209.929 89.7994C210.319 89.7994 210.641 89.7017 210.894 89.5064C211.148 89.3111 211.345 89.0728 211.484 88.7913L212.529 88.9723C212.434 89.2136 212.311 89.4406 212.157 89.6536C212.004 89.8666 211.818 90.0532 211.601 90.2126C211.384 90.3719 211.131 90.4979 210.844 90.5906C210.557 90.6833 210.238 90.7298 209.887 90.7298C209.441 90.7298 209.036 90.6492 208.671 90.4884C208.305 90.3278 207.994 90.1051 207.735 89.8209C207.477 89.5365 207.278 89.1978 207.138 88.8043C206.997 88.411 206.927 87.9845 206.927 87.5248C206.927 87.0656 206.997 86.6391 207.138 86.2455C207.278 85.8522 207.478 85.5118 207.74 85.2246C208 84.9376 208.313 84.7119 208.679 84.5484C209.044 84.3846 209.452 84.3028 209.903 84.3028ZM191.937 84.1792C192.55 84.1792 193.035 84.3324 193.395 84.6389C193.753 84.9455 193.963 85.3556 194.023 85.8694L193.03 85.9569C192.969 85.6942 192.848 85.4899 192.666 85.344C192.483 85.198 192.23 85.125 191.904 85.125C191.6 85.125 191.362 85.1994 191.191 85.3483C191.021 85.4973 190.935 85.6886 190.935 85.922C190.935 86.0562 190.96 86.1684 191.01 86.259C191.059 86.3497 191.131 86.4284 191.225 86.4955C191.319 86.5627 191.433 86.6225 191.569 86.6749C191.704 86.7275 191.857 86.7833 192.027 86.8414L192.45 86.9816C192.715 87.0691 192.954 87.161 193.167 87.2573C193.379 87.3537 193.56 87.4691 193.708 87.6034C193.857 87.7376 193.973 87.8982 194.053 88.0851C194.133 88.2719 194.172 88.5026 194.172 88.7769C194.172 89.0689 194.117 89.336 194.007 89.5781C193.896 89.8205 193.742 90.0263 193.544 90.1955C193.344 90.3649 193.108 90.4964 192.835 90.5895C192.561 90.6829 192.259 90.7298 191.929 90.7298C191.316 90.7298 190.806 90.5781 190.397 90.2744C189.988 89.9708 189.737 89.5125 189.643 88.8994L190.654 88.803C190.714 89.1183 190.856 89.3651 191.08 89.543C191.303 89.7212 191.597 89.8102 191.961 89.8102C192.321 89.8102 192.598 89.7226 192.794 89.5474C192.99 89.3724 193.088 89.1418 193.088 88.8556C193.088 88.7155 193.062 88.5973 193.01 88.5009C192.957 88.4046 192.883 88.3229 192.789 88.2557C192.696 88.1888 192.58 88.1316 192.442 88.0851C192.304 88.0383 192.149 87.9887 191.978 87.9361L191.531 87.8048C191.266 87.7289 191.029 87.637 190.819 87.5289C190.609 87.4209 190.429 87.2939 190.281 87.148C190.131 87.002 190.019 86.8342 189.941 86.6444C189.864 86.4547 189.825 86.2341 189.825 85.9832C189.825 85.7204 189.875 85.4782 189.974 85.2562C190.074 85.0347 190.214 84.8446 190.397 84.687C190.579 84.5295 190.8 84.4054 191.059 84.3147C191.319 84.2246 191.611 84.1792 191.937 84.1792ZM175.132 84.4265L177.247 90.305V90.6062H176.205L175.601 88.8417H172.992L172.388 90.6062H171.406V90.305L173.545 84.4265H175.132ZM180.494 84.4265C180.799 84.4265 181.088 84.4479 181.363 84.4909C181.637 84.5339 181.885 84.6329 182.107 84.7878C182.578 85.109 182.813 85.5939 182.813 86.242C182.813 86.5232 182.773 86.7685 182.692 86.9779C182.612 87.1873 182.506 87.365 182.372 87.5114C182.239 87.6578 182.085 87.7767 181.911 87.8683C181.737 87.9602 181.555 88.029 181.367 88.0748L183.087 90.3048V90.6062H182.081L180.261 88.179H179.588V90.6062H178.558V84.4265H180.494ZM188.274 84.4265V85.3731H185.423V86.9912H188.073V87.9207H185.423V89.6594H188.332V90.6062H184.399V84.4265H188.274ZM197.936 84.4265C198.347 84.4265 198.692 84.4751 198.971 84.5727C199.25 84.6702 199.475 84.805 199.647 84.9773C199.818 85.1493 199.942 85.3516 200.018 85.5841C200.094 85.8164 200.133 86.0675 200.133 86.3371C200.133 86.6586 200.081 86.9381 199.976 87.1762C199.872 87.4144 199.721 87.6108 199.524 87.7659C199.328 87.9207 199.088 88.0369 198.806 88.1145C198.524 88.1919 198.206 88.2306 197.852 88.2306H196.778V90.6062H195.722V84.4265H197.936ZM204.097 84.4265L206.212 90.305V90.6062H205.172L204.567 88.8417H201.957L201.353 90.6062H200.371V90.305L202.511 84.4265H204.097ZM217.79 84.3518V85.3077H214.923V86.9415H217.589V87.8799H214.923V89.6355H217.849V90.5915H213.893V84.3518H217.79ZM138.743 81.2129L139.48 81.9818L135.398 86.2392C134.734 86.9321 134.734 88.0596 135.398 88.7525C136.062 89.4452 137.143 89.4451 137.807 88.7522L142.537 83.818L143.274 84.587L138.545 89.5212C138.026 90.0613 137.337 90.3591 136.602 90.3591C135.869 90.3591 135.179 90.0614 134.662 89.5214C133.591 88.4047 133.591 86.5872 134.662 85.4703L138.743 81.2129ZM160.9 85.2442C160.602 85.2442 160.335 85.3023 160.101 85.4183C159.866 85.5344 159.668 85.6953 159.505 85.9011C159.342 86.1071 159.218 86.3509 159.132 86.6319C159.047 86.9135 159.005 87.2194 159.005 87.5499C159.005 87.8806 159.048 88.188 159.137 88.4724C159.225 88.7565 159.35 89.003 159.513 89.2119C159.676 89.4206 159.874 89.5844 160.109 89.7036C160.344 89.8223 160.609 89.8816 160.908 89.8816C161.206 89.8816 161.472 89.8253 161.707 89.7122C161.941 89.599 162.14 89.441 162.303 89.2378C162.465 89.035 162.591 88.7897 162.679 88.5028C162.767 88.2155 162.812 87.9009 162.812 87.5587C162.812 87.2222 162.767 86.9119 162.679 86.6277C162.591 86.3436 162.465 86.1 162.303 85.8968C162.14 85.694 161.94 85.5344 161.702 85.4183C161.465 85.3023 161.198 85.2442 160.9 85.2442ZM174.453 85.3561H174.192L174.091 85.6487C174.058 85.7463 174.02 85.8554 173.978 85.9757C173.936 86.0962 173.89 86.2339 173.84 86.3889C173.789 86.5436 173.727 86.7245 173.655 86.931L173.311 87.9122H175.299L174.973 86.931C174.843 86.5468 174.74 86.2339 174.662 85.9931C174.584 85.752 174.514 85.5397 174.453 85.3561ZM203.418 85.3561H203.157L203.056 85.6487C203.023 85.7463 202.985 85.8554 202.943 85.9757C202.902 86.0962 202.855 86.2339 202.805 86.3889C202.754 86.5436 202.693 86.7245 202.62 86.931L202.276 87.9122H204.265L203.938 86.931C203.809 86.5468 203.705 86.2339 203.627 85.9931C203.549 85.752 203.479 85.5397 203.418 85.3561ZM142.883 81.3365C143.614 81.3365 144.3 81.6344 144.815 82.1752L145.182 82.5602L144.448 83.3304L144.082 82.9454C143.762 82.6096 143.337 82.4253 142.883 82.4253C142.429 82.4253 142.004 82.6098 141.683 82.9456L136.976 87.8871L136.242 87.1169L140.95 82.1755C141.465 81.6346 142.152 81.3367 142.883 81.3365ZM197.809 85.3559H196.778V87.3011H197.793C197.978 87.3011 198.149 87.2855 198.304 87.2541C198.458 87.2229 198.593 87.1704 198.709 87.0963C198.824 87.0224 198.915 86.9229 198.979 86.7977C199.044 86.6726 199.077 86.519 199.077 86.3369C199.077 86.1493 199.044 85.9917 198.979 85.8637C198.915 85.7357 198.826 85.6348 198.714 85.5607C198.6 85.4867 198.467 85.4341 198.312 85.4029C198.157 85.3717 197.989 85.3559 197.809 85.3559ZM180.494 85.3559H179.588V87.2495H180.494C180.893 87.2495 181.208 87.174 181.438 87.0235C181.668 86.8729 181.782 86.6269 181.782 86.2855C181.782 85.9387 181.666 85.697 181.433 85.5605C181.201 85.4242 180.888 85.3559 180.494 85.3559Z" fill="white"/>
<path d="M255.692 242.943C282.948 242.943 305.043 220.847 305.043 193.591C305.043 166.336 282.948 144.24 255.692 144.24C228.436 144.24 206.34 166.336 206.34 193.591C206.34 220.847 228.436 242.943 255.692 242.943Z" fill="white"/>
<path d="M254.659 179.441L256.04 181.952C256.316 182.472 256.316 183.106 256.04 183.625L247.81 198.545L251.704 205.587C252.312 206.683 253.444 207.376 254.659 207.376C255.874 207.376 257.006 206.683 257.614 205.587L261.508 198.545L260.487 196.64L256.068 204.634C255.791 205.153 255.24 205.471 254.687 205.471C254.106 205.471 253.582 205.153 253.306 204.634L249.909 198.545L257.559 184.693L258.94 187.204C259.216 187.724 259.216 188.358 258.94 188.878L253.61 198.545L254.659 200.45L260.459 189.945L264.27 196.843C264.85 197.911 264.85 199.21 264.27 200.277L260.404 207.289C259.824 208.357 257.974 210.752 254.659 210.752C251.345 210.752 249.523 208.357 248.915 207.289L245.049 200.277C244.468 199.21 244.468 197.911 245.049 196.843L254.659 179.441Z" fill="#ED5153"/>
<path d="M311.929 105.745C339.185 105.745 361.281 83.6501 361.281 56.3942C361.281 29.1383 339.185 7.04297 311.929 7.04297C284.673 7.04297 262.578 29.1383 262.578 56.3942C262.578 83.6501 284.673 105.745 311.929 105.745Z" fill="#FF7A59"/>
<path d="M315.368 50.7443V46.5181C315.907 46.2572 316.364 45.8431 316.685 45.3238C317.005 44.8045 317.177 44.2015 317.18 43.5851V43.4865C317.178 42.6251 316.846 41.7995 316.258 41.1904C315.67 40.5812 314.872 40.238 314.039 40.2357H313.945C313.112 40.238 312.315 40.5812 311.727 41.1904C311.137 41.7995 310.807 42.6251 310.804 43.4865V43.5851C310.807 44.2015 310.979 44.8045 311.299 45.3238C311.62 45.8431 312.077 46.2572 312.617 46.5181V50.7443C311.065 50.9899 309.605 51.6552 308.382 52.6733L297.171 43.6444C297.251 43.3465 297.293 43.0393 297.298 42.7303C297.299 42.0049 297.092 41.2956 296.703 40.6921C296.314 40.0885 295.762 39.6178 295.115 39.3394C294.468 39.061 293.756 38.9876 293.068 39.1282C292.381 39.2689 291.749 39.6174 291.253 40.1296C290.757 40.6418 290.419 41.2949 290.282 42.0061C290.144 42.7173 290.214 43.4547 290.481 44.1252C290.748 44.7956 291.201 45.369 291.784 45.7727C292.366 46.1763 293.05 46.3922 293.751 46.3931C294.367 46.3908 294.971 46.2207 295.502 45.8999L306.524 54.782C305.532 56.3325 305.014 58.1568 305.039 60.0166C305.063 61.8766 305.629 63.6856 306.662 65.2073L303.307 68.6795C303.039 68.5907 302.759 68.5434 302.475 68.5392C301.9 68.5392 301.336 68.716 300.858 69.0471C300.379 69.3784 300.006 69.8491 299.786 70.3998C299.566 70.9506 299.507 71.5566 299.62 72.1412C299.732 72.726 300.01 73.263 300.416 73.6845C300.824 74.106 301.343 74.393 301.908 74.5094C302.472 74.6257 303.058 74.566 303.59 74.3379C304.122 74.1098 304.577 73.7234 304.896 73.2278C305.216 72.7321 305.387 72.1493 305.387 71.5533C305.383 71.2607 305.338 70.9704 305.252 70.6918L308.57 67.2569C309.653 68.1133 310.911 68.7023 312.248 68.9787C313.584 69.2552 314.964 69.2119 316.282 68.8521C317.6 68.4923 318.821 67.8256 319.852 66.9028C320.883 65.98 321.698 64.8255 322.232 63.5276C322.766 62.2295 323.006 60.8223 322.935 59.4134C322.864 58.0043 322.483 56.6307 321.821 55.3976C321.159 54.1643 320.233 53.104 319.115 52.2975C317.996 51.4911 316.714 50.9598 315.368 50.7443ZM313.993 64.6462C313.085 64.6462 312.198 64.3674 311.442 63.8452C310.687 63.3231 310.099 62.5808 309.752 61.7124C309.404 60.8441 309.313 59.8885 309.49 58.9667C309.668 58.0448 310.105 57.1981 310.747 56.5334C311.389 55.8688 312.207 55.4162 313.098 55.2328C313.988 55.0494 314.911 55.1436 315.75 55.5033C316.589 55.8629 317.306 56.472 317.811 57.2536C318.315 58.0351 318.585 58.9539 318.585 59.8938C318.585 61.1542 318.1 62.363 317.239 63.2543C316.379 64.1455 315.211 64.6462 313.993 64.6462Z" fill="white"/>
</g>
</g>
</g>
</g>
</g>
</g>
<g opacity="0.3">
<path d="M4 4.08008H334.66V220.52C334.66 222.729 332.869 224.52 330.66 224.52H7.99999C5.79086 224.52 4 222.729 4 220.52V4.08008Z" fill="url(#paint0_linear_4003_1764)"/>
</g>
</g>
<defs>
<linearGradient id="paint0_linear_4003_1764" x1="169.33" y1="4.08008" x2="169.33" y2="224.52" gradientUnits="userSpaceOnUse">
<stop stop-color="#BEC9DC" stop-opacity="0"/>
<stop offset="1" stop-color="#BEC9DC" stop-opacity="0.4"/>
</linearGradient>
<clipPath id="clip0_4003_1764">
<rect x="4" y="4.08008" width="330.66" height="220.44" rx="4" fill="white"/>
</clipPath>
<clipPath id="clip1_4003_1764">
<rect x="4" y="4.08008" width="330.66" height="220.44" rx="4" fill="white"/>
</clipPath>
<clipPath id="clip2_4003_1764">
<rect width="330.66" height="220.44" fill="white" transform="translate(4 4.08008)"/>
</clipPath>
<clipPath id="clip3_4003_1764">
<rect width="358.29" height="256.63" fill="white" transform="translate(4 4.08008)"/>
</clipPath>
<clipPath id="clip4_4003_1764">
<rect width="358.29" height="256.63" fill="white" transform="translate(4 4.08008)"/>
</clipPath>
<clipPath id="clip5_4003_1764">
<rect width="358.29" height="250.704" fill="white" transform="translate(4 7.04297)"/>
</clipPath>
</defs>
</svg>
